{
.appVersion = "1365";
classes = (
{
automatic = 1;
code = "";
name = xxxx;
}
);
copyright = "Copyright © 2017 by Lokal Container. All rights reserved.";
customParameters = (
{
name = "Use Typo Metrics";
value = 0;
},
{
name = fsType;
value = (
);
},
{
name = "Disable Last Change";
value = 0;
},
{
name = "Use Line Breaks";
value = 1;
},
{
name = "Family Alignment Zones";
value = (
"{790, 10}",
"{729, 10}",
"{557, 10}",
"{0, -10}",
"{-167, -10}"
);
},
{
name = "Variable Font Origin";
value = "47995495-C855-4C5A-BA32-118EA0334940";
},
{
name = vendorID;
value = LC;
},
{
name = license;
value = "This Font Software is licensed under the SIL Open Font License, Version 1.1. This license is available with a FAQ at: http://scripts.sil.org/OFL";
},
{
name = licenseURL;
value = "https://scripts.sil.org/OFL";
},
{
name = sampleText;
value = "Texte in Point & Millimeter";
},
{
name = "Variable Font Family Name";
value = "BDO Grotesk VF";
},
{
name = "Variable Font Family Name";
value = "BDO Grotesk Variable";
},
{
name = Axes;
value = (
{
Hidden = 1;
Name = Weight;
Tag = wght;
}
);
}
);
date = "2017-05-31 03:56:58 +0000";
designer = "Deni Anggara";
designerURL = "https://degarism.com";
familyName = "BDO Grotesk";
featurePrefixes = (
{
automatic = 1;
code = "languagesystem DFLT dflt;

languagesystem latn dflt;
languagesystem latn AZE;
languagesystem latn CRT;
languagesystem latn KAZ;
languagesystem latn TAT;
languagesystem latn TRK;
languagesystem latn ROM;
languagesystem latn MOL;
languagesystem latn CAT;
languagesystem latn NLD;
";
name = Languagesystems;
}
);
features = (
{
automatic = 1;
code = "feature locl;
feature subs;
feature sinf;
feature sups;
feature numr;
feature dnom;
feature frac;
feature ordn;
feature pnum;
feature tnum;
feature case;
feature fwid;
feature salt;
feature ss01;
feature ss02;
feature ss03;
feature ss04;
feature ss05;
feature ss06;
feature ss07;
";
name = aalt;
},
{
automatic = 1;
code = "lookup ccmp_Other_1 {

glyphs = (
{
glyphname = A;
lastChange = "2025-01-02 18:44:19 +0000";
layers = (
{
anchors = (
{
name = bottom;
position = "{358, 0}";
},
{
name = ogonek;
position = "{700, 0}";
},
{
name = top;
position = "{358, 729}";
}
);
background = {
paths = (
{
closed = 1;
nodes = (
"82 0 LINE",
"168 209 LINE",
"545 209 LINE",
"632 0 LINE",
"700 0 LINE",
"397 729 LINE",
"317 729 LINE",
"14 0 LINE"
);
},
{
closed = 1;
nodes = (
"270 457 LINE SMOOTH",
"326 593 OFFCURVE",
"330 604 OFFCURVE",
"355 668 CURVE",
"357 668 LINE",
"395 572 OFFCURVE",
"421 509 OFFCURVE",
"443 456 CURVE SMOOTH",
"521 265 LINE",
"191 265 LINE"
);
}
);
};
layerId = "F114AD5B-DC62-4E73-AD12-1938E40AC8EF";
paths = (
{
closed = 1;
nodes = (
"82 0 LINE",
"168 209 LINE",
"545 209 LINE",
"632 0 LINE",
"700 0 LINE",
"397 729 LINE",
"317 729 LINE",
"14 0 LINE"
);
},
{
closed = 1;
nodes = (
"306 544 LINE SMOOTH",
"323 586 OFFCURVE",
"342 630 OFFCURVE",
"357 672 CURVE",
"372 630 OFFCURVE",
"391 586 OFFCURVE",
"408 544 CURVE SMOOTH",
"521 265 LINE",
"191 265 LINE"
);
}
);
width = 713;
},
{
anchors = (
{
name = bottom;
position = "{366, 0}";
},
{
name = ogonek;
position = "{720, 0}";
},
{
name = top;
position = "{366, 729}";
}
);
background = {
paths = (
{
closed = 1;
nodes = (
"118 0 LINE",
"189 176 LINE",
"537 176 LINE",
"609 0 LINE",
"720 0 LINE",
"426 729 LINE",
"303 729 LINE",
"9 0 LINE"
);
},
{
closed = 1;
nodes = (
"331 535 LINE SMOOTH",
"342 565 OFFCURVE",
"353 594 OFFCURVE",
"363 619 CURVE",
"365 619 LINE",
"375 591 OFFCURVE",
"386 563 OFFCURVE",
"396 535 CURVE SMOOTH",
"503 265 LINE",
"224 265 LINE"
);
}
);
};
layerId = "47995495-C855-4C5A-BA32-118EA0334940";
paths = (
{
closed = 1;
nodes = (
"118 0 LINE",
"189 176 LINE",
"537 176 LINE",
"609 0 LINE",
"720 0 LINE",
"426 729 LINE",
"303 729 LINE",
"9 0 LINE"
);
},
{
closed = 1;
nodes = (
"319 511 LINE SMOOTH",
"335 553 OFFCURVE",
"352 593 OFFCURVE",
"364 634 CURVE",
"376 593 OFFCURVE",
"392 553 OFFCURVE",
"408 511 CURVE SMOOTH",
"503 265 LINE",
"224 265 LINE"
);
}
);
width = 729;
},
{
anchors = (
{
name = bottom;
position = "{410, 0}";
},
{
name = ogonek;
position = "{789, 0}";
},
{
name = top;
position = "{406, 729}";
}
);
background = {
paths = (
{
closed = 1;
nodes = (
"222 0 LINE",
"271 141 LINE",
"537 141 LINE",
"584 0 LINE",
"789 0 LINE",
"515 729 LINE",
"297 729 LINE",
"24 0 LINE"
);
},
{
closed = 1;
nodes = (
"375 441 LINE SMOOTH",
"384 470 OFFCURVE",
"394 498 OFFCURVE",
"403 525 CURVE",
"407 525 LINE",
"414 505 OFFCURVE",
"424 474 OFFCURVE",
"435 441 CURVE SMOOTH",
"481 291 LINE",
"329 291 LINE"
);
}
);
};
layerId = "E2C2D751-4CF7-4DAD-9523-B06BE55028F5";
paths = (
{
closed = 1;
nodes = (
"222 0 LINE",
"271 141 LINE",
"537 141 LINE",
"584 0 LINE",
"789 0 LINE",
"515 729 LINE",
"297 729 LINE",
"24 0 LINE"
);
},
{
closed = 1;
nodes = (
"367 408 LINE SMOOTH",
"380 450 OFFCURVE",
"395 493 OFFCURVE",
"405 544 CURVE",
"415 493 OFFCURVE",
"430 450 OFFCURVE",
"443 408 CURVE SMOOTH",
"481 291 LINE",
"329 291 LINE"
);
}
);
width = 813;
}
);
leftKerningGroup = KO_A;
rightKerningGroup = KO_A;
unicode = 0041;
userData = {
KernOnName = A;
};
},
{
glyphname = Aringacute;
layers = (
{
components = (
{
name = A;
}
);
layerId = "F114AD5B-DC62-4E73-AD12-1938E40AC8EF";
paths = (
{
closed = 1;
nodes = (
"474 1004 LINE",
"405 1004 LINE",
"346 919 LINE",
"396 919 LINE",
"474 1002 LINE"
);
},
{
closed = 1;
nodes = (
"463 838 OFFCURVE",
"421 876 OFFCURVE",
"362 876 CURVE SMOOTH",
"303 876 OFFCURVE",
"261 838 OFFCURVE",
"261 785 CURVE SMOOTH",
"261 731 OFFCURVE",
"303 692 OFFCURVE",
"362 692 CURVE SMOOTH",
"421 692 OFFCURVE",
"463 731 OFFCURVE",
"463 785 CURVE SMOOTH"
);
},
{
closed = 1;
nodes = (
"418 753 OFFCURVE",
"396 731 OFFCURVE",
"363 731 CURVE SMOOTH",
"329 731 OFFCURVE",
"306 753 OFFCURVE",
"306 785 CURVE SMOOTH",
"306 815 OFFCURVE",
"329 838 OFFCURVE",
"363 838 CURVE SMOOTH",
"396 838 OFFCURVE",
"418 815 OFFCURVE",
"418 785 CURVE SMOOTH"
);
}
);
width = 713;
},
{
components = (
{
alignment = -1;
name = A;
}
);
layerId = "47995495-C855-4C5A-BA32-118EA0334940";
paths = (
{
closed = 1;
nodes = (
"501 1012 LINE",
"404 1012 LINE",
"345 923 LINE",
"415 923 LINE",
"501 1010 LINE"
);
},
{
closed = 1;
nodes = (
"483 840 OFFCURVE",
"438 882 OFFCURVE",
"372 882 CURVE SMOOTH",
"306 882 OFFCURVE",
"260 840 OFFCURVE",
"260 780 CURVE SMOOTH",
"260 721 OFFCURVE",
"306 677 OFFCURVE",
"372 677 CURVE SMOOTH",
"437 677 OFFCURVE",
"483 720 OFFCURVE",
"483 780 CURVE SMOOTH"
);
},
{
closed = 1;
nodes = (
"423 751 OFFCURVE",
"403 731 OFFCURVE",
"373 731 CURVE SMOOTH",
"341 731 OFFCURVE",
"320 751 OFFCURVE",
"320 780 CURVE SMOOTH",
"320 808 OFFCURVE",
"341 830 OFFCURVE",
"373 830 CURVE SMOOTH",
"403 830 OFFCURVE",
"423 808 OFFCURVE",
"423 780 CURVE SMOOTH"
);
}
);
width = 729;
},
{
components = (
{
alignment = -1;
name = A;
}
);
layerId = "E2C2D751-4CF7-4DAD-9523-B06BE55028F5";
paths = (
{
closed = 1;
nodes = (
"585 1029 LINE",
"426 1029 LINE",
"367 930 LINE",
"481 930 LINE",
"585 1025 LINE"
);
},
{
closed = 1;
nodes = (
"552 845 OFFCURVE",
"498 894 OFFCURVE",
"417 894 CURVE SMOOTH",
"336 894 OFFCURVE",
"281 845 OFFCURVE",
"281 771 CURVE SMOOTH",
"281 698 OFFCURVE",
"336 648 OFFCURVE",
"417 648 CURVE SMOOTH",
"498 648 OFFCURVE",
"552 698 OFFCURVE",
"552 771 CURVE SMOOTH"
);
},
{
closed = 1;
nodes = (
"458 747 OFFCURVE",
"441 730 OFFCURVE",
"417 730 CURVE SMOOTH",
"393 730 OFFCURVE",
"376 747 OFFCURVE",
"376 771 CURVE SMOOTH",
"376 795 OFFCURVE",
"393 813 OFFCURVE",
"417 813 CURVE SMOOTH",
"441 813 OFFCURVE",
"458 795 OFFCURVE",
"458 771 CURVE SMOOTH"
);
}
);
width = 813;
}
);
leftMetricsKey = "=A";
rightMetricsKey = "=A";
unicode = 01FA;
},
{
glyphname = AE;
layers = (
{
anchors = (
{
name = bottom;
position = "{1088, 0}";
},
{
name = ogonek;
position = "{1108, 10}";
},
{
name = top;
position = "{591, 729}";
},
{
name = topleft;
position = "{544, 729}";
}
);
layerId = "F114AD5B-DC62-4E73-AD12-1938E40AC8EF";
paths = (
{
closed = 1;
nodes = (
"486 336 LINE",
"857 336 LINE",
"857 395 LINE",
"486 395 LINE",
"486 666 LINE",
"919 666 LINE",
"919 729 LINE",
"283 729 LINE",
"14 0 LINE",
"83 0 LINE",
"159 215 LINE",
"421 215 LINE",
"421 0 LINE",
"929 0 LINE",
"929 63 LINE",
"486 63 LINE"
);
},
{
closed = 1;
nodes = (
"319 666 LINE",
"421 666 LINE",
"421 272 LINE",
"179 272 LINE"
);
}
);
width = 957;
},
{
anchors = (
{
name = bottom;
position = "{1088, 0}";
},
{
name = ogonek;
position = "{1118, 10}";
},
{
name = top;
position = "{593, 729}";
},
{
name = topleft;
position = "{567, 729}";
}
);
layerId = "47995495-C855-4C5A-BA32-118EA0334940";
paths = (
{
closed = 1;
nodes = (
"543 319 LINE",
"884 319 LINE",
"884 410 LINE",
"543 410 LINE",
"543 633 LINE",
"943 633 LINE",
"943 729 LINE",
"267 729 LINE",
"9 0 LINE",
"122 0 LINE",
"187 193 LINE",
"435 193 LINE",
"435 0 LINE",
"953 0 LINE",
"953 96 LINE",
"543 96 LINE"
);
},
{
closed = 1;
nodes = (
"336 633 LINE",
"435 633 LINE",
"435 280 LINE",
"216 280 LINE"
);
}
);
width = 1012;
},
{
anchors = (
{
name = bottom;
position = "{1115, 0}";
},
{
name = ogonek;
position = "{1165, 10}";
},
{
name = top;
position = "{621, 729}";
},
{
name = topleft;
position = "{642, 729}";
}
);
layerId = "E2C2D751-4CF7-4DAD-9523-B06BE55028F5";
paths = (
{
closed = 1;
nodes = (
"695 286 LINE",
"969 286 LINE",
"969 439 LINE",
"695 439 LINE",
"695 565 LINE",
"1024 565 LINE",
"1024 729 LINE",
"259 729 LINE",
"24 0 LINE",
"233 0 LINE",
"276 149 LINE",
"492 149 LINE",
"492 0 LINE",
"1034 0 LINE",
"1034 164 LINE",
"695 164 LINE"
);
},
{
closed = 1;
nodes = (
"400 565 LINE",
"492 565 LINE",
"492 296 LINE",
"323 296 LINE"
);
}
);
width = 1069;
}
);
leftKerningGroup = KO_AE;
leftMetricsKey = "=A";
rightKerningGroup = KO_E;
rightMetricsKey = "=E";
unicode = 00C6;
},
{
glyphname = B;
lastChange = "2025-01-03 09:30:54 +0000";
layers = (
{
anchors = (
{
name = bottom;
position = "{351, 0}";
},
{
name = top;
position = "{351, 729}";
}
);
background = {
paths = (
{
closed = 1;
nodes = (
"406 0 LINE SMOOTH",
"556 0 OFFCURVE",
"650 77 OFFCURVE",
"650 198 CURVE SMOOTH",
"650 280 OFFCURVE",
"606 349 OFFCURVE",
"504 375 CURVE",
"590 402 OFFCURVE",
"631 467 OFFCURVE",
"631 544 CURVE SMOOTH",
"631 652 OFFCURVE",
"551 729 OFFCURVE",
"408 729 CURVE SMOOTH",
"86 729 LINE",
"86 0 LINE"
);
},
{
closed = 1;
nodes = (
"151 342 LINE",
"411 342 LINE SMOOTH",
"517 342 OFFCURVE",
"581 294 OFFCURVE",
"581 203 CURVE SMOOTH",
"581 125 OFFCURVE",
"535 63 OFFCURVE",
"411 63 CURVE SMOOTH",
"151 63 LINE"
);
},
{
closed = 1;
nodes = (
"151 667 LINE",
"408 667 LINE SMOOTH",
"501 667 OFFCURVE",
"564 618 OFFCURVE",
"564 534 CURVE SMOOTH",
"564 456 OFFCURVE",
"510 403 OFFCURVE",
"408 403 CURVE SMOOTH",
"151 403 LINE"
);
}
);
};
layerId = "F114AD5B-DC62-4E73-AD12-1938E40AC8EF";
paths = (
{
closed = 1;
nodes = (
"406 0 LINE SMOOTH",
"556 0 OFFCURVE",
"650 78 OFFCURVE",
"650 200 CURVE SMOOTH",
"650 282 OFFCURVE",
"605 354 OFFCURVE",
"501 379 CURVE",
"576 402 OFFCURVE",
"626 463 OFFCURVE",
"626 545 CURVE SMOOTH",
"626 654 OFFCURVE",
"546 729 OFFCURVE",
"400 729 CURVE SMOOTH",
"86 729 LINE",
"86 0 LINE"
);
},
{
closed = 1;
nodes = (
"151 345 LINE",
"411 345 LINE SMOOTH",
"517 345 OFFCURVE",
"581 296 OFFCURVE",
"581 204 CURVE SMOOTH",
"581 126 OFFCURVE",
"535 63 OFFCURVE",
"406 63 CURVE SMOOTH",
"151 63 LINE"
);
},
{
closed = 1;
nodes = (
"151 667 LINE",
"400 667 LINE SMOOTH",
"497 667 OFFCURVE",
"559 624 OFFCURVE",
"559 535 CURVE SMOOTH",
"559 457 OFFCURVE",
"505 406 OFFCURVE",
"399 406 CURVE SMOOTH",
"151 406 LINE"
);
}
);
width = 694;
},
{
anchors = (
{
name = bottom;
position = "{376, 0}";
},
{
name = top;
position = "{376, 729}";
}
);
background = {
paths = (
{
closed = 1;
nodes = (
"436 0 LINE SMOOTH",
"588 0 OFFCURVE",
"687 78 OFFCURVE",
"687 202 CURVE SMOOTH",
"687 281 OFFCURVE",
"642 348 OFFCURVE",
"553 375 CURVE",
"553 378 LINE",
"630 409 OFFCURVE",
"667 470 OFFCURVE",
"667 543 CURVE SMOOTH",
"667 652 OFFCURVE",
"585 729 OFFCURVE",
"441 729 CURVE SMOOTH",
"100 729 LINE",
"100 0 LINE"
);
},
{
closed = 1;
nodes = (
"204 329 LINE",
"428 329 LINE SMOOTH",
"525 329 OFFCURVE",
"575 287 OFFCURVE",
"575 211 CURVE SMOOTH",
"575 140 OFFCURVE",
"532 92 OFFCURVE",
"428 92 CURVE SMOOTH",
"204 92 LINE"
);
},
{
closed = 1;
nodes = (
"204 638 LINE",
"425 638 LINE SMOOTH",
"505 638 OFFCURVE",
"558 599 OFFCURVE",
"558 526 CURVE SMOOTH",
"558 460 OFFCURVE",
"515 416 OFFCURVE",
"425 416 CURVE SMOOTH",
"204 416 LINE"
);
}
);
};
layerId = "47995495-C855-4C5A-BA32-118EA0334940";
paths = (
{
closed = 1;
nodes = (
"436 0 LINE SMOOTH",
"588 0 OFFCURVE",
"687 78 OFFCURVE",
"687 202 CURVE SMOOTH",
"687 281 OFFCURVE",
"642 348 OFFCURVE",
"542 378 CURVE",
"626 412 OFFCURVE",
"661 472 OFFCURVE",
"661 543 CURVE SMOOTH",
"661 652 OFFCURVE",
"579 729 OFFCURVE",
"435 729 CURVE SMOOTH",
"100 729 LINE",
"100 0 LINE"
);
},
{
closed = 1;
nodes = (
"204 329 LINE",
"428 329 LINE SMOOTH",
"525 329 OFFCURVE",
"575 287 OFFCURVE",
"575 211 CURVE SMOOTH",
"575 140 OFFCURVE",
"532 92 OFFCURVE",
"428 92 CURVE SMOOTH",
"204 92 LINE"
);
},
{
closed = 1;
nodes = (
"204 638 LINE",
"419 638 LINE SMOOTH",
"499 638 OFFCURVE",
"552 599 OFFCURVE",
"552 526 CURVE SMOOTH",
"552 460 OFFCURVE",
"509 416 OFFCURVE",
"419 416 CURVE SMOOTH",
"204 416 LINE"
);
}
);
width = 738;
},
{
anchors = (
{
name = bottom;
position = "{362, 0}";
},
{
name = top;
position = "{362, 729}";
}
);
background = {
paths = (
{
closed = 1;
nodes = (
"433 0 LINE SMOOTH",
"591 0 OFFCURVE",
"697 81 OFFCURVE",
"697 208 CURVE SMOOTH",
"697 302 OFFCURVE",
"639 363 OFFCURVE",
"562 378 CURVE",
"562 381 LINE",
"643 407 OFFCURVE",
"676 468 OFFCURVE",
"676 539 CURVE SMOOTH",
"676 651 OFFCURVE",
"593 729 OFFCURVE",
"442 729 CURVE SMOOTH",
"60 729 LINE",
"60 0 LINE"
);
},
{
closed = 1;
nodes = (
"253 304 LINE",
"397 304 LINE SMOOTH",
"471 304 OFFCURVE",
"494 274 OFFCURVE",
"494 227 CURVE SMOOTH",
"494 171 OFFCURVE",
"455 150 OFFCURVE",
"397 150 CURVE SMOOTH",
"253 150 LINE"
);
},
{
closed = 1;
nodes = (
"253 580 LINE",
"392 580 LINE SMOOTH",
"443 580 OFFCURVE",
"477 562 OFFCURVE",
"477 511 CURVE SMOOTH",
"477 469 OFFCURVE",
"457 441 OFFCURVE",
"392 441 CURVE SMOOTH",
"253 441 LINE"
);
}
);
};
layerId = "E2C2D751-4CF7-4DAD-9523-B06BE55028F5";
paths = (
{
closed = 1;
nodes = (
"433 0 LINE SMOOTH",
"591 0 OFFCURVE",
"697 81 OFFCURVE",
"697 208 CURVE SMOOTH",
"697 302 OFFCURVE",
"633 362 OFFCURVE",
"557 382 CURVE",
"631 409 OFFCURVE",
"670 470 OFFCURVE",
"670 539 CURVE SMOOTH",
"670 651 OFFCURVE",
"587 729 OFFCURVE",
"436 729 CURVE SMOOTH",
"60 729 LINE",
"60 0 LINE"
);
},
{
closed = 1;
nodes = (
"252 304 LINE",
"409 304 LINE SMOOTH",
"455 304 OFFCURVE",
"494 280 OFFCURVE",
"494 228 CURVE SMOOTH",
"494 180 OFFCURVE",
"460 150 OFFCURVE",
"407 150 CURVE SMOOTH",
"252 150 LINE"
);
},
{
closed = 1;
nodes = (
"253 580 LINE",
"394 580 LINE SMOOTH",
"435 580 OFFCURVE",
"471 558 OFFCURVE",
"471 511 CURVE SMOOTH",
"471 468 OFFCURVE",
"440 441 OFFCURVE",
"392 441 CURVE SMOOTH",
"253 441 LINE"
);
}
);
width = 731;
}
);
leftKerningGroup = KO_H;
leftMetricsKey = "=H";
rightKerningGroup = KO_B;
unicode = 0042;
userData = {
KernOnName = B;
};
},
{
glyphname = C;
lastChange = "2025-01-03 18:58:51 +0000";
layers = (
{
anchors = (
{
name = bottom;
position = "{359, 0}";
},
{
name = ogonek;
position = "{372, 0}";
},
{
name = top;
position = "{372, 729}";
}
);
background = {
paths = (
{
closed = 1;
nodes = (
"611 239 LINE",
"590 126 OFFCURVE",
"508 51 OFFCURVE",
"372 51 CURVE SMOOTH",
"213 51 OFFCURVE",
"110 176 OFFCURVE",
"110 365 CURVE SMOOTH",
"110 553 OFFCURVE",
"213 677 OFFCURVE",
"372 677 CURVE SMOOTH",
"497 677 OFFCURVE",
"587 605 OFFCURVE",
"611 492 CURVE",
"676 500 LINE",
"650 646 OFFCURVE",
"531 738 OFFCURVE",
"372 738 CURVE SMOOTH",
"174 738 OFFCURVE",
"41 586 OFFCURVE",
"41 365 CURVE SMOOTH",
"41 141 OFFCURVE",
"175 -10 OFFCURVE",
"372 -10 CURVE SMOOTH",
"533 -10 OFFCURVE",
"654 84 OFFCURVE",
"676 231 CURVE"
);
}
);
};
layerId = "F114AD5B-DC62-4E73-AD12-1938E40AC8EF";
paths = (
{
closed = 1;
nodes = (
"533 -10 OFFCURVE",
"654 84 OFFCURVE",
"676 231 CURVE",
"611 239 LINE",
"590 126 OFFCURVE",
"508 52 OFFCURVE",
"372 52 CURVE SMOOTH",
"204 52 OFFCURVE",
"110 164 OFFCURVE",
"110 364 CURVE SMOOTH",
"110 564 OFFCURVE",
"204 676 OFFCURVE",
"372 676 CURVE SMOOTH",
"497 676 OFFCURVE",
"587 605 OFFCURVE",
"611 492 CURVE",
"676 500 LINE",
"650 646 OFFCURVE",
"531 738 OFFCURVE",
"372 738 CURVE SMOOTH",
"173 738 OFFCURVE",
"41 603 OFFCURVE",
"41 364 CURVE SMOOTH",
"41 140 OFFCURVE",
"160 -10 OFFCURVE",
"372 -10 CURVE SMOOTH"
);
}
);
width = 717;
},
{
anchors = (
{
name = bottom;
position = "{371, 0}";
},
{
name = ogonek;
position = "{383, 0}";
},
{
name = top;
position = "{384, 729}";
}
);
background = {
paths = (
{
closed = 1;
nodes = (
"590 254 LINE",
"575 150 OFFCURVE",
"500 84 OFFCURVE",
"383 84 CURVE SMOOTH",
"245 84 OFFCURVE",
"155 192 OFFCURVE",
"155 364 CURVE SMOOTH",
"155 536 OFFCURVE",
"244 645 OFFCURVE",
"384 645 CURVE SMOOTH",
"493 645 OFFCURVE",
"572 580 OFFCURVE",
"590 476 CURVE",
"695 491 LINE",
"674 641 OFFCURVE",
"551 738 OFFCURVE",
"384 738 CURVE SMOOTH",
"181 738 OFFCURVE",
"45 587 OFFCURVE",
"45 364 CURVE SMOOTH",
"45 141 OFFCURVE",
"180 -10 OFFCURVE",
"383 -10 CURVE SMOOTH",
"550 -10 OFFCURVE",
"678 88 OFFCURVE",
"695 242 CURVE"
);
}
);
};
layerId = "47995495-C855-4C5A-BA32-118EA0334940";
paths = (
{
closed = 1;
nodes = (
"550 -10 OFFCURVE",
"678 88 OFFCURVE",
"695 242 CURVE",
"590 254 LINE",
"575 151 OFFCURVE",
"500 86 OFFCURVE",
"383 86 CURVE SMOOTH",
"233 86 OFFCURVE",
"155 190 OFFCURVE",
"155 365 CURVE SMOOTH",
"155 539 OFFCURVE",
"233 643 OFFCURVE",
"383 643 CURVE SMOOTH",
"492 643 OFFCURVE",
"571 579 OFFCURVE",
"590 476 CURVE",
"695 491 LINE",
"674 642 OFFCURVE",
"551 739 OFFCURVE",
"383 739 CURVE SMOOTH",
"171 739 OFFCURVE",
"45 598 OFFCURVE",
"45 365 CURVE SMOOTH",
"45 131 OFFCURVE",
"171 -10 OFFCURVE",
"383 -10 CURVE SMOOTH"
);
}
);
width = 740;
},
{
anchors = (
{
name = bottom;
position = "{375, 0}";
},
{
name = ogonek;
position = "{387, 0}";
},
{
name = top;
position = "{390, 729}";
}
);
background = {
paths = (
{
closed = 1;
nodes = (
"570 -8 OFFCURVE",
"712 98 OFFCURVE",
"718 262 CURVE",
"523 282 LINE",
"519 203 OFFCURVE",
"459 155 OFFCURVE",
"385 155 CURVE SMOOTH",
"296 155 OFFCURVE",
"238 216 OFFCURVE",
"238 365 CURVE SMOOTH",
"238 514 OFFCURVE",
"296 575 OFFCURVE",
"385 575 CURVE SMOOTH",
"463 575 OFFCURVE",
"518 528 OFFCURVE",
"524 445 CURVE",
"718 472 LINE",
"709 631 OFFCURVE",
"576 738 OFFCURVE",
"385 738 CURVE SMOOTH",
"146 738 OFFCURVE",
"34 590 OFFCURVE",
"34 365 CURVE SMOOTH",
"34 140 OFFCURVE",
"146 -8 OFFCURVE",
"385 -8 CURVE SMOOTH"
);
}
);
};
layerId = "E2C2D751-4CF7-4DAD-9523-B06BE55028F5";
paths = (
{
closed = 1;
nodes = (
"570 -8 OFFCURVE",
"709 99 OFFCURVE",
"716 261 CURVE",
"524 280 LINE",
"519 198 OFFCURVE",
"457 151 OFFCURVE",
"381 151 CURVE SMOOTH",
"289 151 OFFCURVE",
"230 215 OFFCURVE",
"230 365 CURVE SMOOTH",
"230 515 OFFCURVE",
"289 579 OFFCURVE",
"381 579 CURVE SMOOTH",
"461 579 OFFCURVE",
"517 531 OFFCURVE",
"524 447 CURVE",
"716 473 LINE",
"706 630 OFFCURVE",
"576 738 OFFCURVE",
"384 738 CURVE SMOOTH",
"147 738 OFFCURVE",
"34 590 OFFCURVE",
"34 365 CURVE SMOOTH",
"34 140 OFFCURVE",
"147 -8 OFFCURVE",
"384 -8 CURVE SMOOTH"
);
}
);
width = 750;
}
);
leftKerningGroup = KO_O;
leftMetricsKey = "=O";
rightKerningGroup = KO_C;
rightMetricsKey = "=O";
unicode = 0043;
},
{
glyphname = D;
lastChange = "2025-01-03 18:58:17 +0000";
layers = (
{
anchors = (
{
name = bottom;
position = "{382, 0}";
},
{
name = center;
position = "{151, 365}";
},
{
name = top;
position = "{375, 729}";
}
);
layerId = "F114AD5B-DC62-4E73-AD12-1938E40AC8EF";
paths = (
{
closed = 1;
nodes = (
"375 0 LINE SMOOTH",
"581 0 OFFCURVE",
"700 147 OFFCURVE",
"700 364 CURVE SMOOTH",
"700 581 OFFCURVE",
"582 729 OFFCURVE",
"375 729 CURVE SMOOTH",
"86 729 LINE",
"86 0 LINE"
);
},
{
closed = 1;
nodes = (
"151 666 LINE",
"377 666 LINE SMOOTH",
"530 666 OFFCURVE",
"631 554 OFFCURVE",
"631 364 CURVE SMOOTH",
"631 189 OFFCURVE",
"541 63 OFFCURVE",
"377 63 CURVE SMOOTH",
"151 63 LINE"
);
}
);
width = 741;
},
{
anchors = (
{
name = bottom;
position = "{407, 0}";
},
{
name = center;
position = "{197, 365}";
},
{
name = top;
position = "{398, 729}";
}
);
layerId = "47995495-C855-4C5A-BA32-118EA0334940";
paths = (
{
closed = 1;
nodes = (
"398 0 LINE SMOOTH",
"609 0 OFFCURVE",
"730 147 OFFCURVE",
"730 364 CURVE SMOOTH",
"730 586 OFFCURVE",
"605 729 OFFCURVE",
"398 729 CURVE SMOOTH",
"100 729 LINE",
"100 0 LINE"
);
},
{
closed = 1;
nodes = (
"204 635 LINE",
"395 635 LINE SMOOTH",
"536 635 OFFCURVE",
"620 533 OFFCURVE",
"620 365 CURVE SMOOTH",
"620 199 OFFCURVE",
"538 94 OFFCURVE",
"395 94 CURVE SMOOTH",
"204 94 LINE"
);
}
);
width = 775;
},
{
anchors = (
{
name = bottom;
position = "{392, 0}";
},
{
name = center;
position = "{178, 365}";
},
{
name = top;
position = "{378, 729}";
}
);
background = {
paths = (
{
closed = 1;
nodes = (
"379 0 LINE SMOOTH",
"602 0 OFFCURVE",
"727 146 OFFCURVE",
"727 364 CURVE SMOOTH",
"727 597 OFFCURVE",
"588 729 OFFCURVE",
"379 729 CURVE SMOOTH",
"60 729 LINE",
"60 0 LINE"
);
},
{
closed = 1;
nodes = (
"253 574 LINE",
"364 574 LINE SMOOTH",
"480 574 OFFCURVE",
"525 492 OFFCURVE",
"525 368 CURVE SMOOTH",
"525 218 OFFCURVE",
"461 155 OFFCURVE",
"364 155 CURVE SMOOTH",
"253 155 LINE"
);
}
);
};
layerId = "E2C2D751-4CF7-4DAD-9523-B06BE55028F5";
paths = (
{
closed = 1;
nodes = (
"358 0 LINE SMOOTH",
"594 0 OFFCURVE",
"724 140 OFFCURVE",
"724 365 CURVE SMOOTH",
"724 589 OFFCURVE",
"594 729 OFFCURVE",
"358 729 CURVE SMOOTH",
"60 729 LINE",
"60 0 LINE"
);
},
{
closed = 1;
nodes = (
"253 574 LINE",
"353 574 LINE SMOOTH",
"459 574 OFFCURVE",
"529 511 OFFCURVE",
"529 365 CURVE SMOOTH",
"529 218 OFFCURVE",
"459 155 OFFCURVE",
"353 155 CURVE SMOOTH",
"253 155 LINE"
);
}
);
width = 758;
}
);
leftKerningGroup = KO_H;
leftMetricsKey = "=H";
rightKerningGroup = KO_O;
rightMetricsKey = "=O";
unicode = 0044;
},
{
glyphname = E;
layers = (
{
anchors = (
{
name = bottom;
position = "{359, 0}";
},
{
name = ogonek;
position = "{575, 0}";
},
{
name = top;
position = "{344, 729}";
},
{
name = topleft;
position = "{24, 729}";
}
);
layerId = "F114AD5B-DC62-4E73-AD12-1938E40AC8EF";
paths = (
{
closed = 1;
nodes = (
"632 0 LINE",
"632 60 LINE",
"151 60 LINE",
"151 346 LINE",
"562 346 LINE",
"562 404 LINE",
"151 404 LINE",
"151 669 LINE",
"602 669 LINE",
"602 729 LINE",
"86 729 LINE",
"86 0 LINE"
);
}
);
width = 660;
},
{
anchors = (
{
name = bottom;
position = "{376, 0}";
},
{
name = ogonek;
position = "{611, 0}";
},
{
name = top;
position = "{361, 729}";
},
{
name = topleft;
position = "{38, 729}";
}
);
layerId = "47995495-C855-4C5A-BA32-118EA0334940";
paths = (
{
closed = 1;
nodes = (
"650 0 LINE",
"650 92 LINE",
"204 92 LINE",
"204 329 LINE",
"579 329 LINE",
"579 417 LINE",
"204 417 LINE",
"204 638 LINE",
"620 638 LINE",
"620 729 LINE",
"100 729 LINE",
"100 0 LINE"
);
}
);
width = 709;
},
{
anchors = (
{
name = bottom;
position = "{341, 0}";
},
{
name = ogonek;
position = "{590, 0}";
},
{
name = top;
position = "{326, 729}";
},
{
name = topleft;
position = "{0, 729}";
}
);
layerId = "E2C2D751-4CF7-4DAD-9523-B06BE55028F5";
paths = (
{
closed = 1;
nodes = (
"622 0 LINE",
"622 155 LINE",
"253 155 LINE",
"253 295 LINE",
"546 295 LINE",
"546 445 LINE",
"253 445 LINE",
"253 576 LINE",
"592 576 LINE",
"592 729 LINE",
"60 729 LINE",
"60 0 LINE"
);
}
);
width = 657;
}
);
leftKerningGroup = KO_H;
leftMetricsKey = H;
rightKerningGroup = KO_E;
unicode = 0045;
userData = {
KernOnName = E;
};
},
{
glyphname = F;
layers = (
{
anchors = (
{
name = bottom;
position = "{312, 0}";
},
{
name = top;
position = "{312, 729}";
}
);
layerId = "F114AD5B-DC62-4E73-AD12-1938E40AC8EF";
paths = (
{
closed = 1;
nodes = (
"151 0 LINE",
"151 338 LINE",
"548 338 LINE",
"548 396 LINE",
"151 396 LINE",
"151 669 LINE",
"590 669 LINE",
"590 729 LINE",
"86 729 LINE",
"86 0 LINE"
);
}
);
width = 604;
},
{
anchors = (
{
name = bottom;
position = "{326, 0}";
},
{
name = top;
position = "{326, 729}";
}
);
layerId = "47995495-C855-4C5A-BA32-118EA0334940";
paths = (
{
closed = 1;
nodes = (
"204 0 LINE",
"204 319 LINE",
"565 319 LINE",
"565 409 LINE",
"204 409 LINE",
"204 637 LINE",
"612 637 LINE",
"612 729 LINE",
"100 729 LINE",
"100 0 LINE"
);
}
);
width = 646;
},
{
anchors = (
{
name = bottom;
position = "{288, 0}";
},
{
name = top;
position = "{288, 729}";
}
);
layerId = "E2C2D751-4CF7-4DAD-9523-B06BE55028F5";
paths = (
{
closed = 1;
nodes = (
"253 0 LINE",
"253 280 LINE",
"534 280 LINE",
"534 436 LINE",
"253 436 LINE",
"253 574 LINE",
"591 574 LINE",
"591 729 LINE",
"60 729 LINE",
"60 0 LINE"
);
}
);
width = 621;
}
);
leftKerningGroup = KO_H;
leftMetricsKey = "=H";
rightKerningGroup = KO_F;
unicode = 0046;
},
{
glyphname = G;
lastChange = "2025-01-03 18:58:51 +0000";
layers = (
{
anchors = (
{
name = bottom;
position = "{372, 0}";
},
{
name = top;
position = "{378, 729}";
}
);
background = {
paths = (
{
closed = 1;
nodes = (
"41 136 OFFCURVE",
"165 -10 OFFCURVE",
"360 -10 CURVE SMOOTH",
"475 -10 OFFCURVE",
"577 45 OFFCURVE",
"623 158 CURVE",
"635 0 LINE",
"689 0 LINE",
"689 370 LINE",
"397 370 LINE",
"397 312 LINE",
"620 312 LINE",
"620 161 OFFCURVE",
"516 53 OFFCURVE",
"362 53 CURVE SMOOTH",
"209 53 OFFCURVE",
"110 170 OFFCURVE",
"110 361 CURVE SMOOTH",
"110 547 OFFCURVE",
"205 674 OFFCURVE",
"376 674 CURVE SMOOTH",
"501 674 OFFCURVE",
"591 606 OFFCURVE",
"615 492 CURVE",
"681 500 LINE",
"654 646 OFFCURVE",
"535 738 OFFCURVE",
"378 738 CURVE SMOOTH",
"173 738 OFFCURVE",
"41 585 OFFCURVE",
"41 357 CURVE SMOOTH"
);
}
);
};
layerId = "F114AD5B-DC62-4E73-AD12-1938E40AC8EF";
paths = (
{
closed = 1;
nodes = (
"475 -10 OFFCURVE",
"577 45 OFFCURVE",
"623 158 CURVE",
"635 0 LINE",
"689 0 LINE",
"689 370 LINE",
"397 370 LINE",
"397 312 LINE",
"620 312 LINE",
"621 161 OFFCURVE",
"516 52 OFFCURVE",
"367 52 CURVE SMOOTH",
"204 52 OFFCURVE",
"110 164 OFFCURVE",
"110 364 CURVE SMOOTH",
"110 564 OFFCURVE",
"204 676 OFFCURVE",
"375 676 CURVE SMOOTH",
"501 676 OFFCURVE",
"592 607 OFFCURVE",
"616 492 CURVE",
"681 500 LINE",
"654 646 OFFCURVE",
"535 738 OFFCURVE",
"375 738 CURVE SMOOTH",
"173 738 OFFCURVE",
"41 603 OFFCURVE",
"41 364 CURVE SMOOTH",
"41 140 OFFCURVE",
"157 -10 OFFCURVE",
"367 -10 CURVE SMOOTH"
);
}
);
width = 760;
},
{
anchors = (
{
name = bottom;
position = "{391, 0}";
},
{
name = top;
position = "{391, 729}";
}
);
background = {
paths = (
{
closed = 1;
nodes = (
"45 135 OFFCURVE",
"174 -10 OFFCURVE",
"371 -10 CURVE SMOOTH",
"482 -10 OFFCURVE",
"576 40 OFFCURVE",
"619 138 CURVE",
"631 0 LINE",
"717 0 LINE",
"717 381 LINE",
"405 381 LINE",
"405 295 LINE",
"604 295 LINE",
"600 169 OFFCURVE",
"510 83 OFFCURVE",
"379 83 CURVE SMOOTH",
"245 83 OFFCURVE",
"155 189 OFFCURVE",
"155 361 CURVE SMOOTH",
"155 529 OFFCURVE",
"241 642 OFFCURVE",
"392 642 CURVE SMOOTH",
"504 642 OFFCURVE",
"583 582 OFFCURVE",
"603 480 CURVE",
"708 494 LINE",
"686 642 OFFCURVE",
"562 738 OFFCURVE",
"395 738 CURVE SMOOTH",
"183 738 OFFCURVE",
"45 587 OFFCURVE",
"45 358 CURVE SMOOTH"
);
}
);
};
layerId = "47995495-C855-4C5A-BA32-118EA0334940";
paths = (
{
closed = 1;
nodes = (
"477 -10 OFFCURVE",
"583 44 OFFCURVE",
"619 138 CURVE",
"631 0 LINE",
"717 0 LINE",
"717 381 LINE",
"405 381 LINE",
"405 295 LINE",
"604 295 LINE",
"599 170 OFFCURVE",
"509 86 OFFCURVE",
"381 86 CURVE SMOOTH",
"233 86 OFFCURVE",
"155 190 OFFCURVE",
"155 365 CURVE SMOOTH",
"155 539 OFFCURVE",
"233 643 OFFCURVE",
"388 643 CURVE SMOOTH",
"498 643 OFFCURVE",
"582 592 OFFCURVE",
"602 480 CURVE",
"708 494 LINE",
"685 645 OFFCURVE",
"571 739 OFFCURVE",
"389 739 CURVE SMOOTH",
"171 739 OFFCURVE",
"45 598 OFFCURVE",
"45 365 CURVE SMOOTH",
"45 133 OFFCURVE",
"163 -10 OFFCURVE",
"366 -10 CURVE SMOOTH"
);
}
);
width = 769;
},
{
anchors = (
{
name = bottom;
position = "{410, 0}";
},
{
name = top;
position = "{403, 729}";
}
);
background = {
paths = (
{
closed = 1;
nodes = (
"468 -9 OFFCURVE",
"561 36 OFFCURVE",
"591 98 CURVE",
"603 0 LINE",
"758 0 LINE",
"758 401 LINE",
"405 401 LINE",
"405 261 LINE",
"547 261 LINE",
"545 187 OFFCURVE",
"477 143 OFFCURVE",
"402 143 CURVE SMOOTH",
"304 143 OFFCURVE",
"238 204 OFFCURVE",
"238 360 CURVE SMOOTH",
"238 491 OFFCURVE",
"285 579 OFFCURVE",
"407 579 CURVE SMOOTH",
"486 579 OFFCURVE",
"544 529 OFFCURVE",
"553 455 CURVE",
"747 481 LINE",
"721 651 OFFCURVE",
"588 738 OFFCURVE",
"405 738 CURVE SMOOTH",
"182 738 OFFCURVE",
"34 601 OFFCURVE",
"34 362 CURVE SMOOTH",
"34 128 OFFCURVE",
"152 -9 OFFCURVE",
"362 -9 CURVE SMOOTH"
);
}
);
};
layerId = "E2C2D751-4CF7-4DAD-9523-B06BE55028F5";
paths = (
{
closed = 1;
nodes = (
"469 -9 OFFCURVE",
"560 37 OFFCURVE",
"590 100 CURVE",
"602 0 LINE",
"753 0 LINE",
"753 400 LINE",
"402 400 LINE",
"402 253 LINE",
"547 253 LINE",
"540 182 OFFCURVE",
"472 142 OFFCURVE",
"398 142 CURVE SMOOTH",
"297 142 OFFCURVE",
"230 204 OFFCURVE",
"230 360 CURVE SMOOTH",
"230 494 OFFCURVE",
"279 580 OFFCURVE",
"405 580 CURVE SMOOTH",
"486 580 OFFCURVE",
"544 529 OFFCURVE",
"553 455 CURVE",
"745 481 LINE",
"719 651 OFFCURVE",
"588 738 OFFCURVE",
"404 738 CURVE SMOOTH",
"181 738 OFFCURVE",
"34 601 OFFCURVE",
"34 362 CURVE SMOOTH",
"34 130 OFFCURVE",
"152 -9 OFFCURVE",
"362 -9 CURVE SMOOTH"
);
}
);
width = 801;
}
);
leftKerningGroup = KO_C;
leftMetricsKey = "=O";
rightKerningGroup = KO_G;
unicode = 0047;
},
{
glyphname = H;
lastChange = "2025-01-02 18:15:28 +0000";
layers = (
{
anchors = (
{
name = bottom;
position = "{384, 0}";
},
{
name = center;
position = "{384, 603}";
},
{
name = top;
position = "{384, 729}";
},
{
name = topleft;
position = "{24, 729}";
}
);
layerId = "F114AD5B-DC62-4E73-AD12-1938E40AC8EF";
paths = (
{
closed = 1;
nodes = (
"151 0 LINE",
"151 353 LINE",
"618 353 LINE",
"618 0 LINE",
"682 0 LINE",
"682 729 LINE",
"618 729 LINE",
"618 412 LINE",
"151 412 LINE",
"151 729 LINE",
"86 729 LINE",
"86 0 LINE"
);
}
);
width = 768;
},
{
anchors = (
{
name = bottom;
position = "{405, 0}";
},
{
name = center;
position = "{405, 604}";
},
{
name = top;
position = "{405, 729}";
},
{
name = topleft;
position = "{45, 729}";
}
);
layerId = "47995495-C855-4C5A-BA32-118EA0334940";
paths = (
{
closed = 1;
nodes = (
"204 0 LINE",
"204 337 LINE",
"606 337 LINE",
"606 0 LINE",
"709 0 LINE",
"709 729 LINE",
"606 729 LINE",
"606 428 LINE",
"204 428 LINE",
"204 729 LINE",
"100 729 LINE",
"100 0 LINE"
);
}
);
width = 810;
},
{
anchors = (
{
name = bottom;
position = "{380, 0}";
},
{
name = center;
position = "{380, 607}";
},
{
name = top;
position = "{380, 729}";
},
{
name = topleft;
position = "{20, 729}";
}
);
layerId = "E2C2D751-4CF7-4DAD-9523-B06BE55028F5";
paths = (
{
closed = 1;
nodes = (
"253 0 LINE",
"253 303 LINE",
"507 303 LINE",
"507 0 LINE",
"700 0 LINE",
"700 729 LINE",
"507 729 LINE",
"507 458 LINE",
"253 458 LINE",
"253 729 LINE",
"60 729 LINE",
"60 0 LINE"
);
}
);
width = 760;
}
);
leftKerningGroup = KO_H;
rightKerningGroup = KO_H;
unicode = 0048;
userData = {
KernOnName = H;
};
},
{
glyphname = I;
layers = (
{
anchors = (
{
name = bottom;
position = "{119, 0}";
},
{
name = ogonek;
position = "{151, 0}";
},
{
name = top;
position = "{119, 729}";
},
{
name = topleft;
position = "{24, 729}";
}
);
layerId = "F114AD5B-DC62-4E73-AD12-1938E40AC8EF";
paths = (
{
closed = 1;
nodes = (
"151 729 LINE",
"86 729 LINE",
"86 0 LINE",
"151 0 LINE"
);
}
);
width = 237;
},
{
anchors = (
{
name = bottom;
position = "{152, 0}";
},
{
name = ogonek;
position = "{204, 0}";
},
{
name = top;
position = "{152, 729}";
},
{
name = topleft;
position = "{45, 729}";
}
);
layerId = "47995495-C855-4C5A-BA32-118EA0334940";
paths = (
{
closed = 1;
nodes = (
"204 729 LINE",
"100 729 LINE",
"100 0 LINE",
"204 0 LINE"
);
}
);
width = 304;
},
{
anchors = (
{
name = bottom;
position = "{157, 0}";
},
{
name = ogonek;
position = "{253, 0}";
},
{
name = top;
position = "{157, 729}";
},
{
name = topleft;
position = "{20, 729}";
}
);
layerId = "E2C2D751-4CF7-4DAD-9523-B06BE55028F5";
paths = (
{
closed = 1;
nodes = (
"253 729 LINE",
"60 729 LINE",
"60 0 LINE",
"253 0 LINE"
);
}
);
width = 313;
}
);
leftKerningGroup = KO_H;
leftMetricsKey = "=H";
rightKerningGroup = KO_H;
rightMetricsKey = "=|";
unicode = 0049;
},
{
glyphname = J;
layers = (
{
anchors = (
{
name = bottom;
position = "{312, 0}";
},
{
name = top;
position = "{514, 729}";
}
);
layerId = "F114AD5B-DC62-4E73-AD12-1938E40AC8EF";
paths = (
{
closed = 1;
nodes = (
"472 -10 OFFCURVE",
"546 75 OFFCURVE",
"546 217 CURVE SMOOTH",
"546 729 LINE",
"481 729 LINE",
"481 224 LINE SMOOTH",
"481 94 OFFCURVE",
"414 53 OFFCURVE",
"312 53 CURVE SMOOTH",
"191 53 OFFCURVE",
"143 115 OFFCURVE",
"143 224 CURVE SMOOTH",
"143 347 LINE",
"78 347 LINE",
"78 217 LINE SMOOTH",
"78 56 OFFCURVE",
"172 -10 OFFCURVE",
"312 -10 CURVE SMOOTH"
);
}
);
width = 624;
},
{
anchors = (
{
name = bottom;
position = "{300, 0}";
},
{
name = top;
position = "{496, 729}";
}
);
layerId = "47995495-C855-4C5A-BA32-118EA0334940";
paths = (
{
closed = 1;
nodes = (
"465 -10 OFFCURVE",
"548 76 OFFCURVE",
"548 232 CURVE SMOOTH",
"548 729 LINE",
"443 729 LINE",
"443 232 LINE SMOOTH",
"443 125 OFFCURVE",
"388 86 OFFCURVE",
"300 86 CURVE SMOOTH",
"201 86 OFFCURVE",
"158 139 OFFCURVE",
"158 232 CURVE SMOOTH",
"158 347 LINE",
"53 347 LINE",
"53 232 LINE SMOOTH",
"53 66 OFFCURVE",
"146 -10 OFFCURVE",
"300 -10 CURVE SMOOTH"
);
}
);
width = 641;
},
{
anchors = (
{
name = bottom;
position = "{308, 0}";
},
{
name = top;
position = "{488, 729}";
}
);
layerId = "E2C2D751-4CF7-4DAD-9523-B06BE55028F5";
paths = (
{
closed = 1;
nodes = (
"484 -10 OFFCURVE",
"584 78 OFFCURVE",
"584 263 CURVE SMOOTH",
"584 729 LINE",
"392 729 LINE",
"392 248 LINE SMOOTH",
"392 185 OFFCURVE",
"362 152 OFFCURVE",
"308 152 CURVE SMOOTH",
"254 152 OFFCURVE",
"223 187 OFFCURVE",
"223 248 CURVE SMOOTH",
"223 345 LINE",
"31 345 LINE",
"31 263 LINE SMOOTH",
"31 87 OFFCURVE",
"119 -10 OFFCURVE",
"306 -10 CURVE SMOOTH"
);
}
);
width = 635;
}
);
leftKerningGroup = KO_J;
rightKerningGroup = KO_J;
rightMetricsKey = "=U";
unicode = 004A;
userData = {
KernOnName = J;
};
},
{
glyphname = K;
lastChange = "2025-01-02 18:50:13 +0000";
layers = (
{
anchors = (
{
name = bottom;
position = "{333, 0}";
},
{
name = top;
position = "{333, 729}";
}
);
layerId = "F114AD5B-DC62-4E73-AD12-1938E40AC8EF";
paths = (
{
closed = 1;
nodes = (
"151 0 LINE",
"151 229 LINE",
"310 392 LINE",
"579 0 LINE",
"657 0 LINE",
"357 436 LINE",
"647 729 LINE",
"568 729 LINE",
"258 414 LINE SMOOTH",
"223 379 OFFCURVE",
"186 343 OFFCURVE",
"151 306 CURVE",
"151 729 LINE",
"86 729 LINE",
"86 0 LINE"
);
}
);
width = 640;
},
{
anchors = (
{
name = bottom;
position = "{368, 0}";
},
{
name = top;
position = "{368, 729}";
}
);
layerId = "47995495-C855-4C5A-BA32-118EA0334940";
paths = (
{
closed = 1;
nodes = (
"204 0 LINE",
"204 216 LINE",
"335 352 LINE",
"585 0 LINE",
"708 0 LINE",
"409 426 LINE",
"695 729 LINE",
"568 729 LINE",
"331 473 LINE SMOOTH",
"290 429 OFFCURVE",
"243 381 OFFCURVE",
"204 335 CURVE",
"204 729 LINE",
"100 729 LINE",
"100 0 LINE"
);
}
);
width = 736;
},
{
anchors = (
{
name = bottom;
position = "{376, 0}";
},
{
name = top;
position = "{376, 729}";
}
);
background = {
paths = (
{
closed = 1;
nodes = (
"253 0 LINE",
"253 192 LINE",
"344 304 LINE",
"525 0 LINE",
"752 0 LINE",
"481 436 LINE",
"732 729 LINE",
"495 729 LINE",
"253 428 LINE",
"253 729 LINE",
"60 729 LINE",
"60 0 LINE"
);
}
);
};
layerId = "E2C2D751-4CF7-4DAD-9523-B06BE55028F5";
paths = (
{
closed = 1;
nodes = (
"253 0 LINE",
"253 192 LINE",
"344 304 LINE",
"525 0 LINE",
"752 0 LINE",
"481 436 LINE",
"732 729 LINE",
"495 729 LINE",
"321 513 LINE SMOOTH",
"299 486 OFFCURVE",
"278 459 OFFCURVE",
"253 423 CURVE",
"253 729 LINE",
"60 729 LINE",
"60 0 LINE"
);
}
);
width = 775;
}
);
leftKerningGroup = KO_H;
leftMetricsKey = "=H";
rightKerningGroup = KO_K;
unicode = 004B;
},
{
glyphname = L;
layers = (
{
anchors = (
{
name = bottom;
position = "{308, 0}";
},
{
name = center;
position = "{190, 365}";
},
{
name = top;
position = "{119, 729}";
},
{
name = topright;
position = "{268, 729}";
}
);
background = {
paths = (
{
closed = 1;
nodes = (
"530 0 LINE",
"530 60 LINE",
"91 60 LINE",
"91 729 LINE",
"26 729 LINE",
"26 0 LINE"
);
}
);
};
layerId = "F114AD5B-DC62-4E73-AD12-1938E40AC8EF";
paths = (
{
closed = 1;
nodes = (
"530 0 LINE",
"530 60 LINE",
"151 60 LINE",
"151 729 LINE",
"86 729 LINE",
"86 0 LINE"
);
}
);
width = 526;
},
{
anchors = (
{
name = bottom;
position = "{334, 0}";
},
{
name = center;
position = "{199, 365}";
},
{
name = top;
position = "{100, 729}";
},
{
name = topright;
position = "{296, 729}";
}
);
background = {
paths = (
{
closed = 1;
nodes = (
"567 0 LINE",
"567 92 LINE",
"164 92 LINE",
"164 729 LINE",
"60 729 LINE",
"60 0 LINE"
);
}
);
};
layerId = "47995495-C855-4C5A-BA32-118EA0334940";
paths = (
{
closed = 1;
nodes = (
"567 0 LINE",
"567 92 LINE",
"204 92 LINE",
"204 729 LINE",
"100 729 LINE",
"100 0 LINE"
);
}
);
width = 600;
},
{
anchors = (
{
name = bottom;
position = "{287, 0}";
},
{
name = center;
position = "{181, 383}";
},
{
name = top;
position = "{157, 729}";
},
{
name = topright;
position = "{344, 729}";
}
);
layerId = "E2C2D751-4CF7-4DAD-9523-B06BE55028F5";
paths = (
{
closed = 1;
nodes = (
"573 0 LINE",
"573 155 LINE",
"253 155 LINE",
"253 729 LINE",
"60 729 LINE",
"60 0 LINE"
);
}
);
width = 588;
}
);
leftKerningGroup = KO_H;
leftMetricsKey = "=H";
rightKerningGroup = KO_L;
unicode = 004C;
userData = {
KernOnName = L;
};
},
{
glyphname = M;
lastChange = "2025-01-02 18:24:40 +0000";
layers = (
{
anchors = (
{
name = bottom;
position = "{446, 0}";
},
{
name = top;
position = "{446, 729}";
}
);
background = {
paths = (
{
closed = 1;
nodes = (
"449 -10 LINE",
"738 668 LINE",
"741 668 LINE",
"741 628 OFFCURVE",
"741 589 OFFCURVE",
"741 549 CURVE SMOOTH",
"741 0 LINE",
"806 0 LINE",
"806 729 LINE",
"695 729 LINE",
"449 150 LINE",
"445 150 LINE",
"199 729 LINE",
"88 729 LINE",
"88 0 LINE",
"153 0 LINE",
"153 549 LINE SMOOTH",
"153 588 OFFCURVE",
"153 628 OFFCURVE",
"153 667 CURVE",
"157 667 LINE",
"445 -10 LINE"
);
}
);
};
layerId = "F114AD5B-DC62-4E73-AD12-1938E40AC8EF";
paths = (
{
closed = 1;
nodes = (
"151 0 LINE",
"151 557 LINE SMOOTH",
"151 598 OFFCURVE",
"151 639 OFFCURVE",
"152 680 CURVE",
"172 629 OFFCURVE",
"193 579 OFFCURVE",
"213 528 CURVE SMOOTH",
"421 0 LINE",
"472 0 LINE",
"681 528 LINE SMOOTH",
"701 579 OFFCURVE",
"721 629 OFFCURVE",
"741 680 CURVE",
"741 639 OFFCURVE",
"741 598 OFFCURVE",
"741 557 CURVE SMOOTH",
"741 0 LINE",
"806 0 LINE",
"806 729 LINE",
"695 729 LINE",
"549 355 LINE SMOOTH",
"516 270 OFFCURVE",
"482 189 OFFCURVE",
"447 98 CURVE",
"413 188 OFFCURVE",
"380 270 OFFCURVE",
"347 355 CURVE SMOOTH",
"202 729 LINE",
"86 729 LINE",
"86 0 LINE"
);
}
);
width = 892;
},
{
anchors = (
{
name = bottom;
position = "{475, 0}";
},
{
name = top;
position = "{475, 729}";
}
);
background = {
paths = (
{
closed = 1;
nodes = (
"478 -10 LINE",
"753 638 LINE",
"757 638 LINE",
"755 564 OFFCURVE",
"752 472 OFFCURVE",
"752 407 CURVE SMOOTH",
"752 0 LINE",
"846 0 LINE",
"846 729 LINE",
"697 729 LINE",
"477 209 LINE",
"474 209 LINE",
"257 729 LINE",
"104 729 LINE",
"104 0 LINE",
"196 0 LINE",
"196 407 LINE SMOOTH",
"196 499 OFFCURVE",
"194 593 OFFCURVE",
"192 641 CURVE",
"196 641 LINE",
"472 -10 LINE"
);
}
);
};
layerId = "47995495-C855-4C5A-BA32-118EA0334940";
paths = (
{
closed = 1;
nodes = (
"201 0 LINE",
"201 498 LINE SMOOTH",
"201 550 OFFCURVE",
"201 602 OFFCURVE",
"202 640 CURVE",
"222 582 OFFCURVE",
"242 523 OFFCURVE",
"263 465 CURVE SMOOTH",
"435 0 LINE",
"514 0 LINE",
"687 465 LINE SMOOTH",
"709 525 OFFCURVE",
"737 612 OFFCURVE",
"747 640 CURVE",
"747 591 OFFCURVE",
"746 532 OFFCURVE",
"746 498 CURVE SMOOTH",
"746 0 LINE",
"850 0 LINE",
"850 729 LINE",
"679 729 LINE",
"566 424 LINE SMOOTH",
"537 346 OFFCURVE",
"504 255 OFFCURVE",
"476 173 CURVE",
"445 261 OFFCURVE",
"416 344 OFFCURVE",
"387 424 CURVE SMOOTH",
"275 729 LINE",
"100 729 LINE",
"100 0 LINE"
);
}
);
width = 951;
},
{
anchors = (
{
name = bottom;
position = "{469, 0}";
},
{
name = top;
position = "{469, 729}";
}
);
background = {
paths = (
{
closed = 1;
nodes = (
"244 0 LINE",
"244 380 LINE SMOOTH",
"244 456 OFFCURVE",
"242 527 OFFCURVE",
"242 562 CURVE",
"395 0 LINE",
"538 0 LINE",
"692 562 LINE",
"690 497 OFFCURVE",
"689 423 OFFCURVE",
"689 380 CURVE SMOOTH",
"689 0 LINE",
"877 0 LINE",
"877 729 LINE",
"571 729 LINE",
"469 322 LINE",
"367 729 LINE",
"60 729 LINE",
"60 0 LINE"
);
}
);
};
layerId = "E2C2D751-4CF7-4DAD-9523-B06BE55028F5";
paths = (
{
closed = 1;
nodes = (
"244 0 LINE",
"244 380 LINE SMOOTH",
"244 436 OFFCURVE",
"244 492 OFFCURVE",
"241 561 CURVE",
"255 493 OFFCURVE",
"268 438 OFFCURVE",
"282 384 CURVE",
"395 0 LINE",
"538 0 LINE",
"651 383 LINE",
"665 438 OFFCURVE",
"678 492 OFFCURVE",
"692 560 CURVE",
"689 492 OFFCURVE",
"689 436 OFFCURVE",
"689 380 CURVE SMOOTH",
"689 0 LINE",
"877 0 LINE",
"877 729 LINE",
"571 729 LINE",
"504 460 LINE SMOOTH",
"491 401 OFFCURVE",
"479 341 OFFCURVE",
"469 267 CURVE",
"459 341 OFFCURVE",
"447 401 OFFCURVE",
"434 460 CURVE SMOOTH",
"367 729 LINE",
"60 729 LINE",
"60 0 LINE"
);
}
);
width = 937;
}
);
leftKerningGroup = KO_H;
leftMetricsKey = H;
rightKerningGroup = KO_H;
rightMetricsKey = H;
unicode = 004D;
},
{
glyphname = N;
lastChange = "2025-01-02 18:34:47 +0000";
layers = (
{
anchors = (
{
name = bottom;
position = "{397, 0}";
},
{
name = top;
position = "{397, 729}";
}
);
layerId = "F114AD5B-DC62-4E73-AD12-1938E40AC8EF";
paths = (
{
closed = 1;
nodes = (
"151 0 LINE",
"151 655 LINE",
"152 655 LINE",
"616 0 LINE",
"708 0 LINE",
"708 729 LINE",
"643 729 LINE",
"643 74 LINE",
"642 74 LINE",
"178 729 LINE",
"86 729 LINE",
"86 0 LINE"
);
}
);
width = 794;
},
{
anchors = (
{
name = bottom;
position = "{415, 0}";
},
{
name = top;
position = "{415, 729}";
}
);
layerId = "47995495-C855-4C5A-BA32-118EA0334940";
paths = (
{
closed = 1;
nodes = (
"204 0 LINE",
"204 604 LINE",
"202 604 LINE",
"590 0 LINE",
"730 0 LINE",
"730 729 LINE",
"627 729 LINE",
"627 115 LINE",
"628 115 LINE",
"240 729 LINE",
"100 729 LINE",
"100 0 LINE"
);
}
);
width = 831;
},
{
anchors = (
{
name = bottom;
position = "{397, 0}";
},
{
name = top;
position = "{397, 729}";
}
);
associatedMasterId = "F114AD5B-DC62-4E73-AD12-1938E40AC8EF";
layerId = "CE33E34D-F715-4392-9A8F-714A5815244B";
name = "[600]";
paths = (
{
closed = 1;
nodes = (
"151 0 LINE",
"151 456 LINE SMOOTH",
"151 522 OFFCURVE",
"151 589 OFFCURVE",
"151 655 CURVE",
"197 590 OFFCURVE",
"243 526 OFFCURVE",
"289 461 CURVE SMOOTH",
"614 0 LINE",
"708 0 LINE",
"708 729 LINE",
"643 729 LINE",
"643 276 LINE SMOOTH",
"643 207 OFFCURVE",
"643 138 OFFCURVE",
"643 69 CURVE",
"595 137 OFFCURVE",
"548 204 OFFCURVE",
"500 272 CURVE SMOOTH",
"178 729 LINE",
"86 729 LINE",
"86 0 LINE"
);
}
);
width = 794;
},
{
anchors = (
{
name = bottom;
position = "{415, 0}";
},
{
name = top;
position = "{415, 729}";
}
);
associatedMasterId = "47995495-C855-4C5A-BA32-118EA0334940";
background = {
paths = (
{
closed = 1;
nodes = (
"194 0 LINE",
"194 392 LINE SMOOTH",
"194 466 OFFCURVE",
"194 539 OFFCURVE",
"194 613 CURVE",
"275 492 OFFCURVE",
"350 371 OFFCURVE",
"430 250 CURVE SMOOTH",
"595 0 LINE",
"728 0 LINE",
"728 729 LINE",
"634 729 LINE",
"634 286 LINE SMOOTH",
"634 227 OFFCURVE",
"634 169 OFFCURVE",
"634 110 CURVE",
"557 226 OFFCURVE",
"484 341 OFFCURVE",
"408 457 CURVE SMOOTH",
"229 729 LINE",
"100 729 LINE",
"100 0 LINE"
);
}
);
};
layerId = "56B80B9F-DCF6-4B70-93FD-B33494FE0344";
name = "[600]";
paths = (
{
closed = 1;
nodes = (
"201 0 LINE",
"201 392 LINE SMOOTH",
"201 463 OFFCURVE",
"201 533 OFFCURVE",
"199 603 CURVE",
"238 540 OFFCURVE",
"279 476 OFFCURVE",
"321 413 CURVE SMOOTH",
"595 0 LINE",
"728 0 LINE",
"728 729 LINE",
"627 729 LINE",
"627 286 LINE SMOOTH",
"627 231 OFFCURVE",
"627 174 OFFCURVE",
"629 119 CURVE",
"594 177 OFFCURVE",
"556 234 OFFCURVE",
"518 292 CURVE SMOOTH",
"229 729 LINE",
"100 729 LINE",
"100 0 LINE"
);
}
);
width = 829;
},
{
anchors = (
{
name = bottom;
position = "{378, 0}";
},
{
name = top;
position = "{378, 729}";
}
);
layerId = "E2C2D751-4CF7-4DAD-9523-B06BE55028F5";
paths = (
{
closed = 1;
nodes = (
"250 0 LINE",
"250 439 LINE",
"242 439 LINE",
"473 0 LINE",
"710 0 LINE",
"710 729 LINE",
"522 729 LINE",
"522 254 LINE",
"527 254 LINE",
"287 729 LINE",
"60 729 LINE",
"60 0 LINE"
);
}
);
width = 770;
},
{
anchors = (
{
name = bottom;
position = "{385, 0}";
},
{
name = top;
position = "{385, 729}";
}
);
associatedMasterId = "E2C2D751-4CF7-4DAD-9523-B06BE55028F5";
layerId = "B9376E62-9BE2-4C88-B52A-EAE2884E986F";
name = "[600]";
paths = (
{
closed = 1;
nodes = (
"250 0 LINE",
"250 285 LINE SMOOTH",
"250 350 OFFCURVE",
"248 415 OFFCURVE",
"245 482 CURVE",
"276 398 OFFCURVE",
"311 315 OFFCURVE",
"370 205 CURVE SMOOTH",
"480 0 LINE",
"717 0 LINE",
"717 729 LINE",
"529 729 LINE",
"529 397 LINE SMOOTH",
"529 340 OFFCURVE",
"531 285 OFFCURVE",
"536 230 CURVE",
"508 307 OFFCURVE",
"474 387 OFFCURVE",
"421 490 CURVE SMOOTH",
"297 729 LINE",
"60 729 LINE",
"60 0 LINE"
);
}
);
width = 777;
}
);
leftKerningGroup = KO_H;
leftMetricsKey = H;
rightKerningGroup = KO_H;
rightMetricsKey = H;
unicode = 004E;
userData = {
KernOnName = N;
};
},
{
glyphname = Eng;
layers = (
{
anchors = (
{
name = bottom;
position = "{397, 0}";
},
{
name = top;
position = "{397, 697}";
}
);
layerId = "F114AD5B-DC62-4E73-AD12-1938E40AC8EF";
paths = (
{
closed = 1;
nodes = (
"151 0 LINE",
"151 655 LINE",
"152 655 LINE",
"616 0 LINE",
"644 0 LINE",
"644 -33 LINE SMOOTH",
"644 -75 OFFCURVE",
"633 -111 OFFCURVE",
"569 -111 CURVE SMOOTH",
"554 -111 OFFCURVE",
"542 -110 OFFCURVE",
"528 -107 CURVE",
"528 -159 LINE",
"542 -163 OFFCURVE",
"564 -165 OFFCURVE",
"581 -165 CURVE SMOOTH",
"657 -165 OFFCURVE",
"708 -128 OFFCURVE",
"708 -50 CURVE SMOOTH",
"708 729 LINE",
"643 729 LINE",
"643 74 LINE",
"642 74 LINE",
"178 729 LINE",
"86 729 LINE",
"86 0 LINE"
);
}
);
width = 794;
},
{
anchors = (
{
name = bottom;
position = "{415, 0}";
},
{
name = top;
position = "{415, 707}";
}
);
layerId = "47995495-C855-4C5A-BA32-118EA0334940";
paths = (
{
closed = 1;
nodes = (
"204 0 LINE",
"204 610 LINE",
"196 610 LINE",
"590 0 LINE",
"624 0 LINE",
"624 -28 LINE SMOOTH",
"624 -73 OFFCURVE",
"606 -99 OFFCURVE",
"552 -99 CURVE SMOOTH",
"538 -99 OFFCURVE",
"527 -98 OFFCURVE",
"514 -95 CURVE",
"514 -175 LINE",
"532 -180 OFFCURVE",
"552 -182 OFFCURVE",
"575 -182 CURVE SMOOTH",
"668 -182 OFFCURVE",
"730 -140 OFFCURVE",
"730 -41 CURVE SMOOTH",
"730 729 LINE",
"627 729 LINE",
"627 106 LINE",
"636 106 LINE",
"240 729 LINE",
"100 729 LINE",
"100 0 LINE"
);
}
);
width = 831;
},
{
anchors = (
{
name = bottom;
position = "{385, 0}";
},
{
name = top;
position = "{385, 727}";
}
);
layerId = "E2C2D751-4CF7-4DAD-9523-B06BE55028F5";
paths = (
{
closed = 1;
nodes = (
"250 0 LINE",
"250 460 LINE",
"230 460 LINE",
"473 0 LINE",
"508 0 LINE",
"508 -19 LINE SMOOTH",
"508 -54 OFFCURVE",
"487 -75 OFFCURVE",
"444 -75 CURVE SMOOTH",
"433 -75 OFFCURVE",
"423 -74 OFFCURVE",
"415 -73 CURVE",
"415 -208 LINE",
"444 -216 OFFCURVE",
"463 -218 OFFCURVE",
"494 -218 CURVE SMOOTH",
"623 -218 OFFCURVE",
"710 -163 OFFCURVE",
"710 -22 CURVE SMOOTH",
"710 729 LINE",
"522 729 LINE",
"522 229 LINE",
"543 229 LINE",
"287 729 LINE",
"60 729 LINE",
"60 0 LINE"
);
}
);
width = 770;
}
);
leftKerningGroup = KO_H;
leftMetricsKey = "=N";
rightKerningGroup = KO_H;
rightMetricsKey = "=N";
unicode = 014A;
},
{
glyphname = Nhookleft;
layers = (
{
anchors = (
{
name = bottom;
position = "{390, 0}";
},
{
name = top;
position = "{390, 697}";
}
);
layerId = "F114AD5B-DC62-4E73-AD12-1938E40AC8EF";
paths = (
{
closed = 1;
nodes = (
"93 -165 OFFCURVE",
"144 -128 OFFCURVE",
"144 -50 CURVE SMOOTH",
"144 655 LINE",
"145 655 LINE",
"609 0 LINE",
"701 0 LINE",
"701 729 LINE",
"636 729 LINE",
"636 74 LINE",
"635 74 LINE",
"171 729 LINE",
"79 729 LINE",
"79 -33 LINE SMOOTH",
"79 -75 OFFCURVE",
"68 -111 OFFCURVE",
"5 -111 CURVE SMOOTH",
"-10 -111 OFFCURVE",
"-22 -110 OFFCURVE",
"-36 -107 CURVE",
"-36 -159 LINE",
"-22 -163 OFFCURVE",
"0 -165 OFFCURVE",
"17 -165 CURVE SMOOTH"
);
}
);
width = 787;
},
{
anchors = (
{
name = bottom;
position = "{402, 0}";
},
{
name = top;
position = "{402, 707}";
}
);
layerId = "47995495-C855-4C5A-BA32-118EA0334940";
paths = (
{
closed = 1;
nodes = (
"125 -182 OFFCURVE",
"185 -140 OFFCURVE",
"185 -41 CURVE SMOOTH",
"185 617 LINE",
"175 617 LINE",
"571 0 LINE",
"711 0 LINE",
"711 729 LINE",
"608 729 LINE",
"608 96 LINE",
"622 96 LINE",
"221 729 LINE",
"81 729 LINE",
"81 -28 LINE SMOOTH",
"81 -68 OFFCURVE",
"67 -99 OFFCURVE",
"11 -99 CURVE SMOOTH",
"-2 -99 OFFCURVE",
"-15 -98 OFFCURVE",
"-27 -95 CURVE",
"-27 -175 LINE",
"-8 -180 OFFCURVE",
"9 -182 OFFCURVE",
"35 -182 CURVE SMOOTH"
);
}
);
width = 812;
},
{
anchors = (
{
name = bottom;
position = "{388, 0}";
},
{
name = top;
position = "{388, 727}";
}
);
layerId = "E2C2D751-4CF7-4DAD-9523-B06BE55028F5";
paths = (
{
closed = 1;
nodes = (
"153 -218 OFFCURVE",
"231 -163 OFFCURVE",
"231 -22 CURVE SMOOTH",
"231 460 LINE",
"218 460 LINE",
"454 0 LINE",
"691 0 LINE",
"691 729 LINE",
"503 729 LINE",
"503 221 LINE",
"520 221 LINE",
"268 729 LINE",
"41 729 LINE",
"41 -19 LINE SMOOTH",
"41 -54 OFFCURVE",
"20 -75 OFFCURVE",
"-22 -75 CURVE SMOOTH",
"-33 -75 OFFCURVE",
"-43 -74 OFFCURVE",
"-51 -73 CURVE",
"-51 -208 LINE",
"-22 -216 OFFCURVE",
"-3 -218 OFFCURVE",
"28 -218 CURVE SMOOTH"
);
}
);
width = 751;
}
);
leftMetricsKey = j;
rightKerningGroup = KO_H;
rightMetricsKey = N;
unicode = 019D;
},
{
glyphname = O;
lastChange = "2025-02-20 16:13:12 +0000";
layers = (
{
anchors = (
{
name = bottom;
position = "{373, 0}";
},
{
name = center;
position = "{373, 365}";
},
{
name = ogonek;
position = "{678, 10}";
},
{
name = top;
position = "{373, 729}";
},
{
name = topleft;
position = "{11, 729}";
},
{
name = topright;
position = "{488, 729}";
}
);
layerId = "F114AD5B-DC62-4E73-AD12-1938E40AC8EF";
paths = (
{
closed = 1;
nodes = (
"571 -10 OFFCURVE",
"704 125 OFFCURVE",
"704 365 CURVE SMOOTH",
"704 589 OFFCURVE",
"584 738 OFFCURVE",
"372 738 CURVE SMOOTH",
"173 738 OFFCURVE",
"41 603 OFFCURVE",
"41 364 CURVE SMOOTH",
"41 140 OFFCURVE",
"160 -10 OFFCURVE",
"372 -10 CURVE SMOOTH"
);
},
{
closed = 1;
nodes = (
"204 52 OFFCURVE",
"110 164 OFFCURVE",
"110 364 CURVE SMOOTH",
"110 564 OFFCURVE",
"204 676 OFFCURVE",
"372 676 CURVE SMOOTH",
"540 676 OFFCURVE",
"635 563 OFFCURVE",
"635 363 CURVE SMOOTH",
"635 164 OFFCURVE",
"540 52 OFFCURVE",
"372 52 CURVE SMOOTH"
);
}
);
width = 745;
},
{
anchors = (
{
name = bottom;
position = "{382, 0}";
},
{
name = center;
position = "{382, 365}";
},
{
name = ogonek;
position = "{689, 10}";
},
{
name = top;
position = "{382, 729}";
},
{
name = topleft;
position = "{18, 729}";
},
{
name = topright;
position = "{511, 729}";
}
);
layerId = "47995495-C855-4C5A-BA32-118EA0334940";
paths = (
{
closed = 1;
nodes = (
"592 -10 OFFCURVE",
"719 130 OFFCURVE",
"719 365 CURVE SMOOTH",
"719 599 OFFCURVE",
"592 739 OFFCURVE",
"381 739 CURVE SMOOTH",
"171 739 OFFCURVE",
"45 598 OFFCURVE",
"45 365 CURVE SMOOTH",
"45 131 OFFCURVE",
"171 -10 OFFCURVE",
"381 -10 CURVE SMOOTH"
);
},
{
closed = 1;
nodes = (
"233 86 OFFCURVE",
"155 190 OFFCURVE",
"155 365 CURVE SMOOTH",
"155 539 OFFCURVE",
"233 643 OFFCURVE",
"381 643 CURVE SMOOTH",
"524 643 OFFCURVE",
"608 548 OFFCURVE",
"608 365 CURVE SMOOTH",
"608 181 OFFCURVE",
"524 86 OFFCURVE",
"381 86 CURVE SMOOTH"
);
}
);
width = 764;
},
{
anchors = (
{
name = bottom;
position = "{383, 0}";
},
{
name = center;
position = "{383, 365}";
},
{
name = ogonek;
position = "{693, 10}";
},
{
name = top;
position = "{383, 729}";
},
{
name = topleft;
position = "{14, 729}";
},
{
name = topright;
position = "{551, 729}";
}
);
background = {
paths = (
{
closed = 1;
nodes = (
"592 -8 OFFCURVE",
"732 113 OFFCURVE",
"732 365 CURVE SMOOTH",
"732 617 OFFCURVE",
"592 738 OFFCURVE",
"383 738 CURVE SMOOTH",
"147 738 OFFCURVE",
"35 590 OFFCURVE",
"35 365 CURVE SMOOTH",
"35 140 OFFCURVE",
"147 -8 OFFCURVE",
"383 -8 CURVE SMOOTH"
);
},
{
closed = 1;
nodes = (
"297 155 OFFCURVE",
"239 216 OFFCURVE",
"239 365 CURVE SMOOTH",
"239 514 OFFCURVE",
"297 575 OFFCURVE",
"383 575 CURVE SMOOTH",
"488 575 OFFCURVE",
"529 491 OFFCURVE",
"529 365 CURVE SMOOTH",
"529 239 OFFCURVE",
"488 155 OFFCURVE",
"383 155 CURVE SMOOTH"
);
}
);
};
layerId = "E2C2D751-4CF7-4DAD-9523-B06BE55028F5";
paths = (
{
closed = 1;
nodes = (
"591 -8 OFFCURVE",
"730 115 OFFCURVE",
"730 365 CURVE SMOOTH",
"730 615 OFFCURVE",
"591 738 OFFCURVE",
"382 738 CURVE SMOOTH",
"173 738 OFFCURVE",
"34 615 OFFCURVE",
"34 365 CURVE SMOOTH",
"34 115 OFFCURVE",
"173 -8 OFFCURVE",
"382 -8 CURVE SMOOTH"
);
},
{
closed = 1;
nodes = (
"274 150 OFFCURVE",
"229 234 OFFCURVE",
"229 365 CURVE SMOOTH",
"229 496 OFFCURVE",
"274 580 OFFCURVE",
"382 580 CURVE SMOOTH",
"490 580 OFFCURVE",
"535 496 OFFCURVE",
"535 365 CURVE SMOOTH",
"535 234 OFFCURVE",
"490 150 OFFCURVE",
"382 150 CURVE SMOOTH"
);
}
);
width = 764;
}
);
leftKerningGroup = KO_O;
rightKerningGroup = KO_O;
rightMetricsKey = "=|";
unicode = 004F;
userData = {
KernOnName = O;
};
},
{
glyphname = OE;
lastChange = "2025-01-03 18:58:51 +0000";
layers = (
{
layerId = "F114AD5B-DC62-4E73-AD12-1938E40AC8EF";
paths = (
{
closed = 1;
nodes = (
"41 147 OFFCURVE",
"193 0 OFFCURVE",
"416 0 CURVE SMOOTH",
"943 0 LINE",
"943 65 LINE",
"529 65 LINE",
"529 336 LINE",
"839 336 LINE",
"839 395 LINE",
"529 395 LINE",
"529 666 LINE",
"943 666 LINE",
"943 729 LINE",
"417 729 LINE SMOOTH",
"192 729 OFFCURVE",
"41 581 OFFCURVE",
"41 365 CURVE SMOOTH"
);
},
{
closed = 1;
nodes = (
"110 543 OFFCURVE",
"231 666 OFFCURVE",
"416 666 CURVE SMOOTH",
"466 666 LINE",
"466 65 LINE",
"416 65 LINE SMOOTH",
"231 65 OFFCURVE",
"110 187 OFFCURVE",
"110 365 CURVE SMOOTH"
);
}
);
width = 971;
},
{
layerId = "47995495-C855-4C5A-BA32-118EA0334940";
paths = (
{
closed = 1;
nodes = (
"45 148 OFFCURVE",
"196 0 OFFCURVE",
"419 0 CURVE SMOOTH",
"950 0 LINE",
"950 98 LINE",
"569 98 LINE",
"569 319 LINE",
"848 319 LINE",
"848 410 LINE",
"569 410 LINE",
"569 633 LINE",
"950 633 LINE",
"950 729 LINE",
"420 729 LINE SMOOTH",
"195 729 OFFCURVE",
"45 581 OFFCURVE",
"45 365 CURVE SMOOTH"
);
},
{
closed = 1;
nodes = (
"159 522 OFFCURVE",
"262 632 OFFCURVE",
"419 632 CURVE SMOOTH",
"462 632 LINE",
"462 98 LINE",
"419 98 LINE SMOOTH",
"262 98 OFFCURVE",
"159 207 OFFCURVE",
"159 365 CURVE SMOOTH"
);
}
);
width = 1009;
},
{
layerId = "E2C2D751-4CF7-4DAD-9523-B06BE55028F5";
paths = (
{
closed = 1;
nodes = (
"34 150 OFFCURVE",
"184 1 OFFCURVE",
"407 1 CURVE SMOOTH",
"944 1 LINE",
"944 165 LINE",
"636 165 LINE",
"636 286 LINE",
"848 286 LINE",
"848 439 LINE",
"636 439 LINE",
"636 565 LINE",
"944 565 LINE",
"944 728 LINE",
"406 728 LINE SMOOTH",
"183 728 OFFCURVE",
"34 580 OFFCURVE",
"34 365 CURVE SMOOTH"
);
},
{
closed = 1;
nodes = (
"248 481 OFFCURVE",
"311 563 OFFCURVE",
"407 563 CURVE SMOOTH",
"434 563 LINE",
"434 165 LINE",
"407 165 LINE SMOOTH",
"311 165 OFFCURVE",
"248 248 OFFCURVE",
"248 365 CURVE SMOOTH"
);
}
);
width = 979;
}
);
leftMetricsKey = "=|D";
rightMetricsKey = "=E";
unicode = 0152;
},
{
glyphname = P;
layers = (
{
anchors = (
{
name = bottom;
position = "{337, 0}";
},
{
name = top;
position = "{337, 729}";
}
);
layerId = "F114AD5B-DC62-4E73-AD12-1938E40AC8EF";
paths = (
{
closed = 1;
nodes = (
"86 729 LINE",
"86 0 LINE",
"151 0 LINE",
"151 318 LINE",
"414 317 LINE SMOOTH",
"565 316 OFFCURVE",
"650 398 OFFCURVE",
"650 523 CURVE SMOOTH",
"650 655 OFFCURVE",
"556 729 OFFCURVE",
"414 729 CURVE SMOOTH"
);
},
{
closed = 1;
nodes = (
"151 377 LINE",
"151 666 LINE",
"402 666 LINE SMOOTH",
"527 666 OFFCURVE",
"581 615 OFFCURVE",
"581 524 CURVE SMOOTH",
"581 424 OFFCURVE",
"520 377 OFFCURVE",
"402 377 CURVE SMOOTH"
);
}
);
width = 685;
},
{
anchors = (
{
name = bottom;
position = "{363, 0}";
},
{
name = top;
position = "{363, 729}";
}
);
guideLines = (
{
angle = 90;
position = "{580, 515}";
}
);
layerId = "47995495-C855-4C5A-BA32-118EA0334940";
paths = (
{
closed = 1;
nodes = (
"100 729 LINE",
"100 0 LINE",
"204 0 LINE",
"204 292 LINE",
"431 292 LINE SMOOTH",
"589 292 OFFCURVE",
"680 378 OFFCURVE",
"680 510 CURVE SMOOTH",
"680 642 OFFCURVE",
"590 729 OFFCURVE",
"432 729 CURVE SMOOTH"
);
},
{
closed = 1;
nodes = (
"204 385 LINE",
"204 635 LINE",
"440 635 LINE SMOOTH",
"519 635 OFFCURVE",
"571 594 OFFCURVE",
"571 510 CURVE SMOOTH",
"571 425 OFFCURVE",
"518 385 OFFCURVE",
"440 385 CURVE SMOOTH"
);
}
);
width = 711;
},
{
anchors = (
{
name = bottom;
position = "{350, 0}";
},
{
name = top;
position = "{350, 729}";
}
);
layerId = "E2C2D751-4CF7-4DAD-9523-B06BE55028F5";
paths = (
{
closed = 1;
nodes = (
"60 729 LINE",
"60 0 LINE",
"253 0 LINE",
"253 232 LINE",
"394 232 LINE SMOOTH",
"565 232 OFFCURVE",
"679 322 OFFCURVE",
"679 480 CURVE SMOOTH",
"679 638 OFFCURVE",
"569 729 OFFCURVE",
"404 729 CURVE SMOOTH"
);
},
{
closed = 1;
nodes = (
"253 381 LINE",
"253 574 LINE",
"386 574 LINE SMOOTH",
"450 574 OFFCURVE",
"484 536 OFFCURVE",
"484 478 CURVE SMOOTH",
"484 412 OFFCURVE",
"442 381 OFFCURVE",
"386 381 CURVE SMOOTH"
);
}
);
width = 710;
}
);
leftKerningGroup = KO_H;
leftMetricsKey = "=H";
rightKerningGroup = KO_P;
unicode = 0050;
},
{
glyphname = Thorn;
layers = (
{
anchors = (
{
name = bottom;
position = "{306, 0}";
},
{
name = top;
position = "{306, 729}";
}
);
layerId = "F114AD5B-DC62-4E73-AD12-1938E40AC8EF";
paths = (
{
closed = 1;
nodes = (
"149 0 LINE",
"149 149 LINE",
"346 149 LINE SMOOTH",
"505 149 OFFCURVE",
"611 226 OFFCURVE",
"611 370 CURVE SMOOTH",
"611 507 OFFCURVE",
"521 600 OFFCURVE",
"357 600 CURVE SMOOTH",
"149 600 LINE",
"149 750 LINE",
"86 750 LINE",
"86 0 LINE"
);
},
{
closed = 1;
nodes = (
"149 538 LINE",
"359 538 LINE SMOOTH",
"472 538 OFFCURVE",
"548 479 OFFCURVE",
"548 373 CURVE SMOOTH",
"548 274 OFFCURVE",
"479 209 OFFCURVE",
"359 209 CURVE SMOOTH",
"149 209 LINE"
);
}
);
width = 646;
},
{
anchors = (
{
name = bottom;
position = "{335, 0}";
},
{
name = top;
position = "{335, 729}";
}
);
layerId = "47995495-C855-4C5A-BA32-118EA0334940";
paths = (
{
closed = 1;
nodes = (
"203 0 LINE",
"203 140 LINE",
"378 140 LINE SMOOTH",
"539 140 OFFCURVE",
"648 218 OFFCURVE",
"648 373 CURVE SMOOTH",
"648 515 OFFCURVE",
"557 611 OFFCURVE",
"385 611 CURVE SMOOTH",
"203 611 LINE",
"203 750 LINE",
"100 750 LINE",
"100 0 LINE"
);
},
{
closed = 1;
nodes = (
"203 513 LINE",
"380 513 LINE SMOOTH",
"475 513 OFFCURVE",
"540 463 OFFCURVE",
"540 373 CURVE SMOOTH",
"540 289 OFFCURVE",
"483 234 OFFCURVE",
"380 234 CURVE SMOOTH",
"203 234 LINE"
);
}
);
width = 679;
},
{
anchors = (
{
name = bottom;
position = "{331, 0}";
},
{
name = top;
position = "{331, 729}";
}
);
layerId = "E2C2D751-4CF7-4DAD-9523-B06BE55028F5";
paths = (
{
closed = 1;
nodes = (
"253 0 LINE",
"253 120 LINE",
"379 120 LINE SMOOTH",
"546 120 OFFCURVE",
"660 203 OFFCURVE",
"660 378 CURVE SMOOTH",
"660 529 OFFCURVE",
"568 631 OFFCURVE",
"377 631 CURVE SMOOTH",
"253 631 LINE",
"253 750 LINE",
"60 750 LINE",
"60 0 LINE"
);
},
{
closed = 1;
nodes = (
"253 461 LINE",
"357 461 LINE SMOOTH",
"414 461 OFFCURVE",
"453 432 OFFCURVE",
"453 374 CURVE SMOOTH",
"453 320 OFFCURVE",
"422 284 OFFCURVE",
"357 284 CURVE SMOOTH",
"253 284 LINE"
);
}
);
width = 691;
}
);
leftKerningGroup = KO_H;
leftMetricsKey = "=H";
rightMetricsKey = "=P";
unicode = 00DE;
},
{
glyphname = R;
lastChange = "2025-02-20 16:10:14 +0000";
layers = (
{
anchors = (
{
name = bottom;
position = "{348, 0}";
},
{
name = top;
position = "{348, 729}";
}
);
layerId = "F114AD5B-DC62-4E73-AD12-1938E40AC8EF";
paths = (
{
closed = 1;
nodes = (
"151 0 LINE",
"151 340 LINE",
"437 340 LINE SMOOTH",
"521 340 OFFCURVE",
"563 308 OFFCURVE",
"563 214 CURVE SMOOTH",
"563 92 LINE SMOOTH",
"563 35 OFFCURVE",
"569 11 OFFCURVE",
"576 0 CURVE",
"649 0 LINE",
"649 9 LINE",
"641 14 OFFCURVE",
"628 28 OFFCURVE",
"628 69 CURVE SMOOTH",
"628 227 LINE SMOOTH",
"628 298 OFFCURVE",
"601 347 OFFCURVE",
"530 368 CURVE",
"530 370 LINE",
"599 397 OFFCURVE",
"644 461 OFFCURVE",
"644 539 CURVE SMOOTH",
"644 653 OFFCURVE",
"569 729 OFFCURVE",
"425 729 CURVE SMOOTH",
"86 729 LINE",
"86 0 LINE"
);
},
{
closed = 1;
nodes = (
"151 669 LINE",
"411 669 LINE SMOOTH",
"517 669 OFFCURVE",
"576 626 OFFCURVE",
"576 535 CURVE SMOOTH",
"576 447 OFFCURVE",
"523 398 OFFCURVE",
"411 398 CURVE SMOOTH",
"151 398 LINE"
);
}
);
width = 710;
},
{
anchors = (
{
name = bottom;
position = "{371, 0}";
},
{
name = top;
position = "{371, 729}";
}
);
layerId = "47995495-C855-4C5A-BA32-118EA0334940";
paths = (
{
closed = 1;
nodes = (
"204 0 LINE",
"204 314 LINE",
"449 314 LINE SMOOTH",
"523 314 OFFCURVE",
"561 280 OFFCURVE",
"561 205 CURVE SMOOTH",
"561 92 LINE SMOOTH",
"561 41 OFFCURVE",
"566 13 OFFCURVE",
"575 0 CURVE",
"689 0 LINE",
"689 13 LINE",
"679 18 OFFCURVE",
"665 33 OFFCURVE",
"665 76 CURVE SMOOTH",
"665 223 LINE SMOOTH",
"665 296 OFFCURVE",
"632 340 OFFCURVE",
"555 358 CURVE",
"561 358 LINE",
"633 384 OFFCURVE",
"679 450 OFFCURVE",
"679 534 CURVE SMOOTH",
"679 651 OFFCURVE",
"595 729 OFFCURVE",
"446 729 CURVE SMOOTH",
"100 729 LINE",
"100 0 LINE"
);
},
{
closed = 1;
nodes = (
"204 637 LINE",
"437 637 LINE SMOOTH",
"521 637 OFFCURVE",
"569 595 OFFCURVE",
"569 519 CURVE SMOOTH",
"569 443 OFFCURVE",
"521 399 OFFCURVE",
"436 399 CURVE SMOOTH",
"204 399 LINE"
);
}
);
width = 747;
},
{
anchors = (
{
name = bottom;
position = "{352, 0}";
},
{
name = top;
position = "{352, 729}";
}
);
background = {
paths = (
{
closed = 1;
nodes = (
"253 0 LINE",
"253 256 LINE",
"404 256 LINE SMOOTH",
"454 256 OFFCURVE",
"487 232 OFFCURVE",
"487 172 CURVE SMOOTH",
"487 90 LINE SMOOTH",
"487 46 OFFCURVE",
"492 18 OFFCURVE",
"500 0 CURVE",
"700 0 LINE",
"700 27 LINE",
"692 32 OFFCURVE",
"679 49 OFFCURVE",
"679 104 CURVE SMOOTH",
"679 203 LINE SMOOTH",
"679 279 OFFCURVE",
"645 333 OFFCURVE",
"547 342 CURVE",
"560 332 LINE",
"653 359 OFFCURVE",
"697 429 OFFCURVE",
"697 512 CURVE SMOOTH",
"697 642 OFFCURVE",
"607 729 OFFCURVE",
"446 729 CURVE SMOOTH",
"60 729 LINE",
"60 0 LINE"
);
},
{
closed = 1;
nodes = (
"253 574 LINE",
"407 574 LINE SMOOTH",
"458 574 OFFCURVE",
"496 546 OFFCURVE",
"496 488 CURVE SMOOTH",
"496 437 OFFCURVE",
"464 403 OFFCURVE",
"404 403 CURVE SMOOTH",
"253 403 LINE"
);
}
);
};
layerId = "E2C2D751-4CF7-4DAD-9523-B06BE55028F5";
paths = (
{
closed = 1;
nodes = (
"253 0 LINE",
"253 256 LINE",
"410 256 LINE SMOOTH",
"460 256 OFFCURVE",
"487 232 OFFCURVE",
"487 172 CURVE SMOOTH",
"487 42 LINE SMOOTH",
"487 15 OFFCURVE",
"492 9 OFFCURVE",
"500 0 CURVE",
"700 0 LINE",
"700 27 LINE",
"685 36 OFFCURVE",
"679 48 OFFCURVE",
"679 69 CURVE SMOOTH",
"679 203 LINE SMOOTH",
"679 279 OFFCURVE",
"654 324 OFFCURVE",
"547 347 CURVE",
"546 337 LINE",
"636 356 OFFCURVE",
"698 423 OFFCURVE",
"698 518 CURVE SMOOTH",
"698 662 OFFCURVE",
"589 729 OFFCURVE",
"439 729 CURVE SMOOTH",
"60 729 LINE",
"60 0 LINE"
);
},
{
closed = 1;
nodes = (
"253 574 LINE",
"397 574 LINE SMOOTH",
"462 574 OFFCURVE",
"498 546 OFFCURVE",
"498 488 CURVE SMOOTH",
"498 437 OFFCURVE",
"464 403 OFFCURVE",
"394 403 CURVE SMOOTH",
"253 403 LINE"
);
}
);
width = 737;
}
);
leftKerningGroup = KO_H;
leftMetricsKey = "=H";
rightKerningGroup = KO_R;
unicode = 0052;
userData = {
KernOnName = R;
};
},
{
glyphname = S;
layers = (
{
anchors = (
{
name = bottom;
position = "{326, 0}";
},
{
name = ogonek;
position = "{324, 0}";
},
{
name = top;
position = "{312, 729}";
}
);
layerId = "F114AD5B-DC62-4E73-AD12-1938E40AC8EF";
paths = (
{
closed = 1;
nodes = (
"480 -10 OFFCURVE",
"586 74 OFFCURVE",
"586 201 CURVE SMOOTH",
"586 358 OFFCURVE",
"444 384 OFFCURVE",
"337 406 CURVE SMOOTH",
"203 433 OFFCURVE",
"139 467 OFFCURVE",
"139 550 CURVE SMOOTH",
"139 627 OFFCURVE",
"202 679 OFFCURVE",
"313 679 CURVE SMOOTH",
"439 679 OFFCURVE",
"503 613 OFFCURVE",
"511 514 CURVE",
"576 520 LINE",
"570 651 OFFCURVE",
"475 739 OFFCURVE",
"312 739 CURVE SMOOTH",
"167 739 OFFCURVE",
"71 663 OFFCURVE",
"71 550 CURVE SMOOTH",
"71 450 OFFCURVE",
"124 387 OFFCURVE",
"314 347 CURVE SMOOTH",
"422 324 OFFCURVE",
"516 303 OFFCURVE",
"516 199 CURVE SMOOTH",
"516 110 OFFCURVE",
"446 50 OFFCURVE",
"321 50 CURVE SMOOTH",
"188 50 OFFCURVE",
"113 122 OFFCURVE",
"108 237 CURVE",
"43 231 LINE",
"43 86 OFFCURVE",
"154 -10 OFFCURVE",
"321 -10 CURVE SMOOTH"
);
}
);
width = 629;
},
{
anchors = (
{
name = bottom;
position = "{340, 0}";
},
{
name = ogonek;
position = "{347, 0}";
},
{
name = top;
position = "{325, 729}";
}
);
background = {
paths = (
{
closed = 1;
nodes = (
"596 521 LINE",
"590 653 OFFCURVE",
"492 739 OFFCURVE",
"325 739 CURVE SMOOTH",
"172 739 OFFCURVE",
"71 657 OFFCURVE",
"71 538 CURVE SMOOTH",
"71 417 OFFCURVE",
"154 363 OFFCURVE",
"324 326 CURVE SMOOTH",
"417 306 OFFCURVE",
"497 288 OFFCURVE",
"497 200 CURVE SMOOTH",
"497 126 OFFCURVE",
"437 78 OFFCURVE",
"333 78 CURVE SMOOTH",
"223 78 OFFCURVE",
"155 136 OFFCURVE",
"151 241 CURVE",
"48 229 LINE",
"51 86 OFFCURVE",
"156 -10 OFFCURVE",
"330 -10 CURVE SMOOTH",
"496 -10 OFFCURVE",
"608 75 OFFCURVE",
"608 206 CURVE SMOOTH",
"608 351 OFFCURVE",
"492 393 OFFCURVE",
"373 417 CURVE SMOOTH",
"252 442 OFFCURVE",
"180 466 OFFCURVE",
"180 545 CURVE SMOOTH",
"180 608 OFFCURVE",
"231 651 OFFCURVE",
"325 651 CURVE SMOOTH",
"425 651 OFFCURVE",
"487 600 OFFCURVE",
"492 509 CURVE"
);
}
);
};
layerId = "47995495-C855-4C5A-BA32-118EA0334940";
paths = (
{
closed = 1;
nodes = (
"496 -10 OFFCURVE",
"608 75 OFFCURVE",
"608 206 CURVE SMOOTH",
"608 351 OFFCURVE",
"492 393 OFFCURVE",
"373 417 CURVE SMOOTH",
"252 442 OFFCURVE",
"180 466 OFFCURVE",
"180 545 CURVE SMOOTH",
"180 608 OFFCURVE",
"231 651 OFFCURVE",
"325 651 CURVE SMOOTH",
"425 651 OFFCURVE",
"487 600 OFFCURVE",
"492 509 CURVE",
"596 521 LINE",
"581 655 OFFCURVE",
"492 739 OFFCURVE",
"325 739 CURVE SMOOTH",
"172 739 OFFCURVE",
"71 657 OFFCURVE",
"71 538 CURVE SMOOTH",
"71 417 OFFCURVE",
"154 363 OFFCURVE",
"324 326 CURVE SMOOTH",
"417 306 OFFCURVE",
"497 288 OFFCURVE",
"497 200 CURVE SMOOTH",
"497 126 OFFCURVE",
"437 78 OFFCURVE",
"333 78 CURVE SMOOTH",
"223 78 OFFCURVE",
"155 136 OFFCURVE",
"151 241 CURVE",
"48 229 LINE",
"51 86 OFFCURVE",
"156 -10 OFFCURVE",
"330 -10 CURVE SMOOTH"
);
}
);
width = 668;
},
{
anchors = (
{
name = bottom;
position = "{326, 0}";
},
{
name = ogonek;
position = "{359, 0}";
},
{
name = top;
position = "{336, 729}";
}
);
layerId = "E2C2D751-4CF7-4DAD-9523-B06BE55028F5";
paths = (
{
closed = 1;
nodes = (
"518 -10 OFFCURVE",
"634 75 OFFCURVE",
"634 212 CURVE SMOOTH",
"634 365 OFFCURVE",
"534 415 OFFCURVE",
"381 449 CURVE SMOOTH",
"295 470 OFFCURVE",
"252 484 OFFCURVE",
"252 533 CURVE SMOOTH",
"252 570 OFFCURVE",
"278 596 OFFCURVE",
"332 596 CURVE SMOOTH",
"394 596 OFFCURVE",
"432 560 OFFCURVE",
"433 498 CURVE",
"621 524 LINE",
"604 663 OFFCURVE",
"490 738 OFFCURVE",
"336 738 CURVE SMOOTH",
"160 738 OFFCURVE",
"53 647 OFFCURVE",
"53 514 CURVE SMOOTH",
"53 350 OFFCURVE",
"201 314 OFFCURVE",
"324 285 CURVE SMOOTH",
"399 266 OFFCURVE",
"429 250 OFFCURVE",
"429 203 CURVE SMOOTH",
"429 158 OFFCURVE",
"388 133 OFFCURVE",
"334 133 CURVE SMOOTH",
"271 133 OFFCURVE",
"221 165 OFFCURVE",
"220 250 CURVE",
"30 225 LINE",
"38 84 OFFCURVE",
"148 -10 OFFCURVE",
"326 -10 CURVE SMOOTH"
);
}
);
width = 665;
}
);
leftKerningGroup = KO_S;
rightKerningGroup = KO_S;
unicode = 0053;
},
{
glyphname = Germandbls;
layers = (
{
layerId = "F114AD5B-DC62-4E73-AD12-1938E40AC8EF";
paths = (
{
closed = 1;
nodes = (
"151 0 LINE",
"151 669 LINE",
"528 669 LINE",
"316 409 LINE",
"316 351 LINE",
"343 364 OFFCURVE",
"384 372 OFFCURVE",
"423 372 CURVE SMOOTH",
"528 372 OFFCURVE",
"598 315 OFFCURVE",
"598 213 CURVE SMOOTH",
"598 112 OFFCURVE",
"520 45 OFFCURVE",
"402 45 CURVE SMOOTH",
"359 45 OFFCURVE",
"316 53 OFFCURVE",
"291 66 CURVE",
"291 9 LINE",
"316 -3 OFFCURVE",
"361 -10 OFFCURVE",
"403 -10 CURVE SMOOTH",
"565 -10 OFFCURVE",
"664 87 OFFCURVE",
"664 215 CURVE SMOOTH",
"664 342 OFFCURVE",
"573 424 OFFCURVE",
"437 424 CURVE SMOOTH",
"412 424 OFFCURVE",
"383 421 OFFCURVE",
"359 412 CURVE",
"400 393 LINE",
"400 426 LINE",
"609 678 LINE",
"609 729 LINE",
"86 729 LINE",
"86 0 LINE"
);
}
);
width = 707;
},
{
background = {
paths = (
{
closed = 1;
nodes = (
"204 0 LINE",
"204 637 LINE",
"516 637 LINE",
"333 408 LINE",
"333 336 LINE",
"354 353 OFFCURVE",
"395 365 OFFCURVE",
"439 365 CURVE SMOOTH",
"543 365 OFFCURVE",
"593 307 OFFCURVE",
"593 227 CURVE SMOOTH",
"593 133 OFFCURVE",
"525 76 OFFCURVE",
"419 76 CURVE SMOOTH",
"381 76 OFFCURVE",
"343 83 OFFCURVE",
"322 96 CURVE",
"322 9 LINE",
"345 -3 OFFCURVE",
"391 -10 OFFCURVE",
"434 -10 CURVE SMOOTH",
"589 -10 OFFCURVE",
"698 85 OFFCURVE",
"698 223 CURVE SMOOTH",
"698 352 OFFCURVE",
"602 433 OFFCURVE",
"480 433 CURVE SMOOTH",
"455 433 OFFCURVE",
"427 429 OFFCURVE",
"409 420 CURVE",
"474 399 LINE",
"474 437 LINE",
"644 650 LINE",
"644 729 LINE",
"100 729 LINE",
"100 0 LINE"
);
}
);
};
layerId = "47995495-C855-4C5A-BA32-118EA0334940";
paths = (
{
closed = 1;
nodes = (
"204 0 LINE",
"204 637 LINE",
"545 637 LINE",
"333 408 LINE",
"333 336 LINE",
"354 353 OFFCURVE",
"395 365 OFFCURVE",
"439 365 CURVE SMOOTH",
"543 365 OFFCURVE",
"593 307 OFFCURVE",
"593 227 CURVE SMOOTH",
"593 133 OFFCURVE",
"525 76 OFFCURVE",
"419 76 CURVE SMOOTH",
"381 76 OFFCURVE",
"343 83 OFFCURVE",
"322 96 CURVE",
"322 9 LINE",
"345 -3 OFFCURVE",
"391 -10 OFFCURVE",
"434 -10 CURVE SMOOTH",
"589 -10 OFFCURVE",
"698 85 OFFCURVE",
"698 223 CURVE SMOOTH",
"698 352 OFFCURVE",
"602 433 OFFCURVE",
"480 433 CURVE SMOOTH",
"455 433 OFFCURVE",
"427 429 OFFCURVE",
"409 420 CURVE",
"474 399 LINE",
"474 437 LINE",
"654 630 LINE",
"654 729 LINE",
"100 729 LINE",
"100 0 LINE"
);
}
);
width = 758;
},
{
background = {
paths = (
{
closed = 1;
nodes = (
"253 0 LINE",
"253 574 LINE",
"458 574 LINE",
"351 404 LINE",
"351 321 LINE",
"364 331 OFFCURVE",
"390 337 OFFCURVE",
"416 337 CURVE SMOOTH",
"490 337 OFFCURVE",
"532 301 OFFCURVE",
"532 239 CURVE SMOOTH",
"532 175 OFFCURVE",
"493 135 OFFCURVE",
"410 135 CURVE SMOOTH",
"383 135 OFFCURVE",
"356 139 OFFCURVE",
"341 146 CURVE",
"341 7 LINE",
"363 -3 OFFCURVE",
"406 -10 OFFCURVE",
"456 -10 CURVE SMOOTH",
"615 -10 OFFCURVE",
"732 81 OFFCURVE",
"732 219 CURVE SMOOTH",
"732 345 OFFCURVE",
"650 426 OFFCURVE",
"527 426 CURVE SMOOTH",
"502 426 OFFCURVE",
"451 419 OFFCURVE",
"424 410 CURVE",
"564 387 LINE",
"564 426 LINE",
"672 594 LINE",
"672 729 LINE",
"60 729 LINE",
"60 0 LINE"
);
}
);
};
layerId = "E2C2D751-4CF7-4DAD-9523-B06BE55028F5";
paths = (
{
closed = 1;
nodes = (
"253 0 LINE",
"253 574 LINE",
"478 574 LINE",
"351 404 LINE",
"351 321 LINE",
"364 331 OFFCURVE",
"390 337 OFFCURVE",
"416 337 CURVE SMOOTH",
"490 337 OFFCURVE",
"532 301 OFFCURVE",
"532 239 CURVE SMOOTH",
"532 175 OFFCURVE",
"493 135 OFFCURVE",
"410 135 CURVE SMOOTH",
"383 135 OFFCURVE",
"356 139 OFFCURVE",
"341 146 CURVE",
"341 7 LINE",
"363 -3 OFFCURVE",
"406 -10 OFFCURVE",
"456 -10 CURVE SMOOTH",
"615 -10 OFFCURVE",
"732 81 OFFCURVE",
"732 219 CURVE SMOOTH",
"732 345 OFFCURVE",
"650 426 OFFCURVE",
"527 426 CURVE SMOOTH",
"502 426 OFFCURVE",
"451 419 OFFCURVE",
"424 410 CURVE",
"564 387 LINE",
"564 426 LINE",
"682 574 LINE",
"682 729 LINE",
"60 729 LINE",
"60 0 LINE"
);
}
);
width = 763;
}
);
leftKerningGroup = KO_H;
leftMetricsKey = "=H";
rightKerningGroup = KO_S;
rightMetricsKey = "=S";
unicode = 1E9E;
},
{
glyphname = Schwa;
lastChange = "2025-01-03 18:58:51 +0000";
layers = (
{
anchors = (
{
name = bottom;
position = "{395, 20}";
},
{
name = ogonek;
position = "{582, 10}";
},
{
name = top;
position = "{357, 513}";
}
);
layerId = "F114AD5B-DC62-4E73-AD12-1938E40AC8EF";
paths = (
{
closed = 1;
nodes = (
"200 739 OFFCURVE",
"69 657 OFFCURVE",
"41 534 CURVE",
"105 528 LINE",
"125 618 OFFCURVE",
"228 679 OFFCURVE",
"348 679 CURVE SMOOTH",
"506 679 OFFCURVE",
"605 581 OFFCURVE",
"605 374 CURVE",
"48 374 LINE",
"45 344 OFFCURVE",
"44 335 OFFCURVE",
"44 320 CURVE SMOOTH",
"44 129 OFFCURVE",
"148 -10 OFFCURVE",
"350 -10 CURVE SMOOTH",
"538 -10 OFFCURVE",
"671 111 OFFCURVE",
"671 363 CURVE SMOOTH",
"671 599 OFFCURVE",
"555 739 OFFCURVE",
"354 739 CURVE SMOOTH"
);
},
{
closed = 1;
nodes = (
"215 52 OFFCURVE",
"112 126 OFFCURVE",
"112 317 CURVE",
"605 317 LINE",
"600 148 OFFCURVE",
"504 52 OFFCURVE",
"350 52 CURVE SMOOTH"
);
}
);
width = 712;
},
{
anchors = (
{
name = bottom;
position = "{385, 9}";
},
{
name = ogonek;
position = "{591, 10}";
},
{
name = top;
position = "{367, 524}";
}
);
layerId = "47995495-C855-4C5A-BA32-118EA0334940";
paths = (
{
closed = 1;
nodes = (
"210 739 OFFCURVE",
"79 659 OFFCURVE",
"46 522 CURVE",
"151 509 LINE",
"170 589 OFFCURVE",
"254 643 OFFCURVE",
"361 643 CURVE SMOOTH",
"496 643 OFFCURVE",
"581 561 OFFCURVE",
"581 388 CURVE",
"50 388 LINE",
"46 363 OFFCURVE",
"45 346 OFFCURVE",
"45 329 CURVE SMOOTH",
"45 129 OFFCURVE",
"157 -10 OFFCURVE",
"363 -10 CURVE SMOOTH",
"561 -10 OFFCURVE",
"693 120 OFFCURVE",
"693 366 CURVE SMOOTH",
"693 601 OFFCURVE",
"573 739 OFFCURVE",
"367 739 CURVE SMOOTH"
);
},
{
closed = 1;
nodes = (
"254 85 OFFCURVE",
"162 142 OFFCURVE",
"160 301 CURVE",
"581 301 LINE",
"573 164 OFFCURVE",
"492 85 OFFCURVE",
"363 85 CURVE SMOOTH"
);
}
);
width = 738;
},
{
anchors = (
{
name = bottom;
position = "{348, -14}";
},
{
name = ogonek;
position = "{598, 10}";
},
{
name = top;
position = "{374, 547}";
}
);
layerId = "E2C2D751-4CF7-4DAD-9523-B06BE55028F5";
paths = (
{
closed = 1;
nodes = (
"208 739 OFFCURVE",
"82 653 OFFCURVE",
"43 498 CURVE",
"240 471 LINE",
"254 531 OFFCURVE",
"299 570 OFFCURVE",
"374 570 CURVE SMOOTH",
"460 570 OFFCURVE",
"514 521 OFFCURVE",
"514 416 CURVE",
"40 416 LINE",
"36 402 OFFCURVE",
"34 376 OFFCURVE",
"34 349 CURVE SMOOTH",
"34 127 OFFCURVE",
"164 -10 OFFCURVE",
"377 -10 CURVE SMOOTH",
"600 -10 OFFCURVE",
"730 139 OFFCURVE",
"730 371 CURVE SMOOTH",
"730 606 OFFCURVE",
"598 739 OFFCURVE",
"382 739 CURVE SMOOTH"
);
},
{
closed = 1;
nodes = (
"323 153 OFFCURVE",
"260 175 OFFCURVE",
"253 270 CURVE",
"511 270 LINE",
"498 197 OFFCURVE",
"451 153 OFFCURVE",
"377 153 CURVE SMOOTH"
);
}
);
width = 764;
}
);
leftMetricsKey = "=O";
rightKerningGroup = KO_O;
rightMetricsKey = "=O";
unicode = 018F;
},
{
glyphname = T;
layers = (
{
anchors = (
{
name = bottom;
position = "{298, 0}";
},
{
name = center;
position = "{298, 365}";
},
{
name = ogonek;
position = "{301, 0}";
},
{
name = top;
position = "{296, 729}";
}
);
layerId = "F114AD5B-DC62-4E73-AD12-1938E40AC8EF";
paths = (
{
closed = 1;
nodes = (
"265 669 LINE",
"265 0 LINE",
"330 0 LINE",
"330 669 LINE",
"598 669 LINE",
"598 729 LINE",
"-6 729 LINE",
"-6 669 LINE"
);
}
);
width = 592;
},
{
anchors = (
{
name = bottom;
position = "{327, 0}";
},
{
name = center;
position = "{327, 365}";
},
{
name = ogonek;
position = "{331, 0}";
},
{
name = top;
position = "{325, 729}";
}
);
layerId = "47995495-C855-4C5A-BA32-118EA0334940";
paths = (
{
closed = 1;
nodes = (
"274 637 LINE",
"274 0 LINE",
"379 0 LINE",
"379 637 LINE",
"630 637 LINE",
"630 729 LINE",
"20 729 LINE",
"20 637 LINE"
);
}
);
width = 650;
},
{
anchors = (
{
name = bottom;
position = "{341, 0}";
},
{
name = center;
position = "{341, 365}";
},
{
name = ogonek;
position = "{351, 0}";
},
{
name = top;
position = "{341, 729}";
}
);
layerId = "E2C2D751-4CF7-4DAD-9523-B06BE55028F5";
paths = (
{
closed = 1;
nodes = (
"244 574 LINE",
"244 0 LINE",
"437 0 LINE",
"437 574 LINE",
"652 574 LINE",
"652 729 LINE",
"29 729 LINE",
"29 574 LINE"
);
}
);
width = 681;
}
);
leftKerningGroup = KO_T;
rightKerningGroup = KO_T;
rightMetricsKey = "=|";
unicode = 0054;
userData = {
KernOnName = T;
};
},
{
glyphname = U;
layers = (
{
anchors = (
{
name = bottom;
position = "{372, 0}";
},
{
name = ogonek;
position = "{417, -6}";
},
{
name = top;
position = "{372, 729}";
},
{
name = topright;
position = "{622, 729}";
}
);
layerId = "F114AD5B-DC62-4E73-AD12-1938E40AC8EF";
paths = (
{
closed = 1;
nodes = (
"562 -10 OFFCURVE",
"666 97 OFFCURVE",
"666 257 CURVE SMOOTH",
"666 729 LINE",
"601 729 LINE",
"601 264 LINE SMOOTH",
"601 137 OFFCURVE",
"537 53 OFFCURVE",
"372 53 CURVE SMOOTH",
"235 53 OFFCURVE",
"143 112 OFFCURVE",
"143 264 CURVE SMOOTH",
"143 729 LINE",
"78 729 LINE",
"78 257 LINE SMOOTH",
"78 86 OFFCURVE",
"192 -10 OFFCURVE",
"372 -10 CURVE SMOOTH"
);
}
);
width = 744;
},
{
anchors = (
{
name = bottom;
position = "{398, 0}";
},
{
name = ogonek;
position = "{471, 0}";
},
{
name = top;
position = "{398, 729}";
},
{
name = topright;
position = "{644, 729}";
}
);
layerId = "47995495-C855-4C5A-BA32-118EA0334940";
paths = (
{
closed = 1;
nodes = (
"595 -10 OFFCURVE",
"701 98 OFFCURVE",
"701 260 CURVE SMOOTH",
"701 729 LINE",
"597 729 LINE",
"597 268 LINE SMOOTH",
"597 157 OFFCURVE",
"539 86 OFFCURVE",
"398 86 CURVE SMOOTH",
"278 86 OFFCURVE",
"198 137 OFFCURVE",
"198 268 CURVE SMOOTH",
"198 729 LINE",
"93 729 LINE",
"93 260 LINE SMOOTH",
"93 87 OFFCURVE",
"209 -10 OFFCURVE",
"396 -10 CURVE SMOOTH"
);
}
);
width = 794;
},
{
anchors = (
{
name = bottom;
position = "{378, 0}";
},
{
name = ogonek;
position = "{523, 10}";
},
{
name = top;
position = "{378, 729}";
},
{
name = topright;
position = "{615, 729}";
}
);
layerId = "E2C2D751-4CF7-4DAD-9523-B06BE55028F5";
paths = (
{
closed = 1;
nodes = (
"595 -10 OFFCURVE",
"704 100 OFFCURVE",
"704 264 CURVE SMOOTH",
"704 729 LINE",
"512 729 LINE",
"512 274 LINE SMOOTH",
"512 197 OFFCURVE",
"469 152 OFFCURVE",
"378 152 CURVE SMOOTH",
"297 152 OFFCURVE",
"243 187 OFFCURVE",
"243 274 CURVE SMOOTH",
"243 729 LINE",
"51 729 LINE",
"51 264 LINE SMOOTH",
"51 89 OFFCURVE",
"171 -10 OFFCURVE",
"376 -10 CURVE SMOOTH"
);
}
);
width = 755;
}
);
leftKerningGroup = KO_U;
rightKerningGroup = KO_U;
rightMetricsKey = "=|";
unicode = 0055;
userData = {
KernOnName = U;
};
},
{
glyphname = Udieresisacute;
layers = (
{
components = (
{
name = U;
}
);
layerId = "F114AD5B-DC62-4E73-AD12-1938E40AC8EF";
paths = (
{
closed = 1;
nodes = (
"475 1003 LINE",
"406 1003 LINE",
"347 918 LINE",
"397 918 LINE",
"475 1001 LINE"
);
},
{
closed = 1;
nodes = (
"307 777 LINE",
"307 891 LINE",
"244 891 LINE",
"244 777 LINE"
);
},
{
closed = 1;
nodes = (
"499 777 LINE",
"499 891 LINE",
"436 891 LINE",
"436 777 LINE"
);
}
);
width = 757;
},
{
components = (
{
alignment = -1;
name = U;
transform = "{1, 0, 0, 1, -10, 0}";
}
);
layerId = "47995495-C855-4C5A-BA32-118EA0334940";
paths = (
{
closed = 1;
nodes = (
"491 1012 LINE",
"394 1012 LINE",
"335 922 LINE",
"405 922 LINE",
"491 1009 LINE"
);
},
{
closed = 1;
nodes = (
"311 780 LINE",
"311 894 LINE",
"217 894 LINE",
"217 780 LINE"
);
},
{
closed = 1;
nodes = (
"517 780 LINE",
"517 894 LINE",
"424 894 LINE",
"424 780 LINE"
);
}
);
width = 772;
},
{
components = (
{
alignment = -1;
name = U;
transform = "{1, 0, 0, 1, -12, 0}";
}
);
layerId = "E2C2D751-4CF7-4DAD-9523-B06BE55028F5";
paths = (
{
closed = 1;
nodes = (
"544 1029 LINE",
"385 1029 LINE",
"326 930 LINE",
"440 930 LINE",
"544 1025 LINE"
);
},
{
closed = 1;
nodes = (
"336 785 LINE",
"336 899 LINE",
"174 899 LINE",
"174 785 LINE"
);
},
{
closed = 1;
nodes = (
"577 785 LINE",
"577 899 LINE",
"415 899 LINE",
"415 785 LINE"
);
}
);
width = 754;
}
);
rightKerningGroup = KO_B;
unicode = 01D7;
},
{
glyphname = Udieresiscaron;
layers = (
{
components = (
{
name = U;
}
);
layerId = "F114AD5B-DC62-4E73-AD12-1938E40AC8EF";
paths = (
{
closed = 1;
nodes = (
"235 998 LINE",
"350 918 LINE",
"392 918 LINE",
"507 998 LINE",
"507 1003 LINE",
"437 1003 LINE",
"371 954 LINE",
"305 1003 LINE",
"235 1003 LINE"
);
},
{
closed = 1;
nodes = (
"306 777 LINE",
"306 891 LINE",
"243 891 LINE",
"243 777 LINE"
);
},
{
closed = 1;
nodes = (
"498 777 LINE",
"498 891 LINE",
"435 891 LINE",
"435 777 LINE"
);
}
);
width = 757;
},
{
components = (
{
alignment = -1;
name = U;
transform = "{1, 0, 0, 1, -10, 0}";
}
);
layerId = "47995495-C855-4C5A-BA32-118EA0334940";
paths = (
{
closed = 1;
nodes = (
"211 1006 LINE",
"328 922 LINE",
"406 922 LINE",
"523 1006 LINE",
"523 1012 LINE",
"426 1012 LINE",
"367 966 LINE",
"308 1012 LINE",
"211 1012 LINE"
);
},
{
closed = 1;
nodes = (
"310 778 LINE",
"310 892 LINE",
"216 892 LINE",
"216 778 LINE"
);
},
{
closed = 1;
nodes = (
"517 778 LINE",
"517 892 LINE",
"424 892 LINE",
"424 778 LINE"
);
}
);
width = 772;
},
{
components = (
{
alignment = -1;
name = U;
transform = "{1, 0, 0, 1, -12, 0}";
}
);
layerId = "E2C2D751-4CF7-4DAD-9523-B06BE55028F5";
paths = (
{
closed = 1;
nodes = (
"176 1023 LINE",
"296 930 LINE",
"456 930 LINE",
"576 1023 LINE",
"576 1029 LINE",
"421 1029 LINE",
"376 991 LINE",
"331 1029 LINE",
"176 1029 LINE"
);
},
{
closed = 1;
nodes = (
"336 781 LINE",
"336 895 LINE",
"174 895 LINE",
"174 781 LINE"
);
},
{
closed = 1;
nodes = (
"577 781 LINE",
"577 895 LINE",
"415 895 LINE",
"415 781 LINE"
);
}
);
width = 754;
}
);
rightKerningGroup = KO_B;
unicode = 01D9;
},
{
glyphname = Udieresisgrave;
layers = (
{
components = (
{
name = U;
}
);
layerId = "F114AD5B-DC62-4E73-AD12-1938E40AC8EF";
paths = (
{
closed = 1;
nodes = (
"354 918 LINE",
"404 918 LINE",
"345 1003 LINE",
"276 1003 LINE",
"276 1001 LINE"
);
},
{
closed = 1;
nodes = (
"306 777 LINE",
"306 891 LINE",
"243 891 LINE",
"243 777 LINE"
);
},
{
closed = 1;
nodes = (
"498 777 LINE",
"498 891 LINE",
"435 891 LINE",
"435 777 LINE"
);
}
);
width = 757;
},
{
components = (
{
alignment = -1;
name = U;
transform = "{1, 0, 0, 1, -10, 0}";
}
);
layerId = "47995495-C855-4C5A-BA32-118EA0334940";
paths = (
{
closed = 1;
nodes = (
"338 922 LINE",
"408 922 LINE",
"349 1012 LINE",
"252 1012 LINE",
"252 1009 LINE"
);
},
{
closed = 1;
nodes = (
"310 778 LINE",
"310 892 LINE",
"216 892 LINE",
"216 778 LINE"
);
},
{
closed = 1;
nodes = (
"517 778 LINE",
"517 892 LINE",
"424 892 LINE",
"424 778 LINE"
);
}
);
width = 772;
},
{
components = (
{
alignment = -1;
name = U;
transform = "{1, 0, 0, 1, -12, 0}";
}
);
layerId = "E2C2D751-4CF7-4DAD-9523-B06BE55028F5";
paths = (
{
closed = 1;
nodes = (
"320 930 LINE",
"434 930 LINE",
"375 1029 LINE",
"216 1029 LINE",
"216 1025 LINE"
);
},
{
closed = 1;
nodes = (
"336 781 LINE",
"336 895 LINE",
"174 895 LINE",
"174 781 LINE"
);
},
{
closed = 1;
nodes = (
"577 781 LINE",
"577 895 LINE",
"415 895 LINE",
"415 781 LINE"
);
}
);
width = 754;
}
);
rightKerningGroup = KO_B;
unicode = 01DB;
},
{
glyphname = Udieresismacron;
layers = (
{
components = (
{
name = U;
}
);
layerId = "F114AD5B-DC62-4E73-AD12-1938E40AC8EF";
paths = (
{
closed = 1;
nodes = (
"492 948 LINE",
"492 993 LINE",
"260 993 LINE",
"260 948 LINE"
);
},
{
closed = 1;
nodes = (
"311 777 LINE",
"311 891 LINE",
"248 891 LINE",
"248 777 LINE"
);
},
{
closed = 1;
nodes = (
"503 777 LINE",
"503 891 LINE",
"440 891 LINE",
"440 777 LINE"
);
}
);
width = 744;
},
{
components = (
{
name = U;
}
);
layerId = "47995495-C855-4C5A-BA32-118EA0334940";
paths = (
{
closed = 1;
nodes = (
"544 943 LINE",
"544 1005 LINE",
"248 1005 LINE",
"248 943 LINE"
);
},
{
closed = 1;
nodes = (
"340 778 LINE",
"340 892 LINE",
"248 892 LINE",
"248 778 LINE"
);
},
{
closed = 1;
nodes = (
"544 778 LINE",
"544 892 LINE",
"452 892 LINE",
"452 778 LINE"
);
}
);
width = 795;
},
{
components = (
{
alignment = -1;
name = U;
transform = "{1, 0, 0, 1, -12, 0}";
}
);
layerId = "E2C2D751-4CF7-4DAD-9523-B06BE55028F5";
paths = (
{
closed = 1;
nodes = (
"539 932 LINE",
"539 1028 LINE",
"182 1028 LINE",
"182 932 LINE"
);
},
{
closed = 1;
nodes = (
"328 781 LINE",
"328 895 LINE",
"182 895 LINE",
"182 781 LINE"
);
},
{
closed = 1;
nodes = (
"539 781 LINE",
"539 895 LINE",
"393 895 LINE",
"393 781 LINE"
);
}
);
width = 754;
}
);
unicode = 01D5;
},
{
glyphname = V;
lastChange = "2025-01-02 18:51:06 +0000";
layers = (
{
anchors = (
{
name = bottom;
position = "{323, 0}";
},
{
name = top;
position = "{323, 729}";
}
);
layerId = "F114AD5B-DC62-4E73-AD12-1938E40AC8EF";
paths = (
{
closed = 1;
nodes = (
"363 0 LINE",
"659 729 LINE",
"590 729 LINE",
"411 274 LINE SMOOTH",
"384 206 OFFCURVE",
"356 139 OFFCURVE",
"326 57 CURVE",
"296 139 OFFCURVE",
"268 206 OFFCURVE",
"241 275 CURVE SMOOTH",
"62 729 LINE",
"-8 729 LINE",
"288 0 LINE"
);
}
);
width = 651;
},
{
anchors = (
{
name = bottom;
position = "{363, 0}";
},
{
name = top;
position = "{363, 729}";
}
);
background = {
paths = (
{
closed = 1;
nodes = (
"19 729 LINE",
"307 0 LINE",
"423 0 LINE",
"710 729 LINE",
"601 729 LINE",
"443 314 LINE SMOOTH",
"416 242 OFFCURVE",
"388 174 OFFCURVE",
"366 112 CURVE",
"364 112 LINE",
"341 175 OFFCURVE",
"290 311 OFFCURVE",
"288 315 CURVE SMOOTH",
"131 729 LINE"
);
}
);
};
layerId = "47995495-C855-4C5A-BA32-118EA0334940";
paths = (
{
closed = 1;
nodes = (
"423 0 LINE",
"710 729 LINE",
"601 729 LINE",
"443 314 LINE SMOOTH",
"415 242 OFFCURVE",
"388 173 OFFCURVE",
"365 101 CURVE",
"341 174 OFFCURVE",
"321 228 OFFCURVE",
"288 315 CURVE SMOOTH",
"131 729 LINE",
"19 729 LINE",
"307 0 LINE"
);
}
);
width = 729;
},
{
anchors = (
{
name = bottom;
position = "{397, 0}";
},
{
name = top;
position = "{397, 729}";
}
);
background = {
paths = (
{
closed = 1;
nodes = (
"24 729 LINE",
"293 0 LINE",
"501 0 LINE",
"769 729 LINE",
"571 729 LINE",
"461 394 LINE SMOOTH",
"433 312 OFFCURVE",
"406 243 OFFCURVE",
"398 207 CURVE",
"396 207 LINE",
"386 248 OFFCURVE",
"358 334 OFFCURVE",
"336 395 CURVE SMOOTH",
"229 729 LINE"
);
}
);
};
layerId = "E2C2D751-4CF7-4DAD-9523-B06BE55028F5";
paths = (
{
closed = 1;
nodes = (
"501 0 LINE",
"769 729 LINE",
"571 729 LINE",
"461 394 LINE SMOOTH",
"434 312 OFFCURVE",
"412 243 OFFCURVE",
"399 187 CURVE",
"386 243 OFFCURVE",
"362 313 OFFCURVE",
"336 395 CURVE SMOOTH",
"229 729 LINE",
"24 729 LINE",
"293 0 LINE"
);
}
);
width = 793;
}
);
leftKerningGroup = KO_V;
rightKerningGroup = KO_V;
rightMetricsKey = "=|";
unicode = 0056;
userData = {
KernOnName = V;
};
},
{
glyphname = W;
lastChange = "2025-01-03 09:31:45 +0000";
layers = (
{
anchors = (
{
name = bottom;
position = "{439, 0}";
},
{
name = top;
position = "{439, 729}";
}
);
layerId = "F114AD5B-DC62-4E73-AD12-1938E40AC8EF";
paths = (
{
closed = 1;
nodes = (
"262 0 LINE",
"391 461 LINE SMOOTH",
"409 524 OFFCURVE",
"426 594 OFFCURVE",
"440 654 CURVE",
"455 594 OFFCURVE",
"472 524 OFFCURVE",
"489 461 CURVE SMOOTH",
"615 0 LINE",
"680 0 LINE",
"881 729 LINE",
"815 729 LINE",
"684 238 LINE SMOOTH",
"674 199 OFFCURVE",
"658 129 OFFCURVE",
"648 84 CURVE",
"632 162 OFFCURVE",
"612 242 OFFCURVE",
"597 294 CURVE SMOOTH",
"475 729 LINE",
"405 729 LINE",
"284 294 LINE SMOOTH",
"269 239 OFFCURVE",
"248 164 OFFCURVE",
"231 84 CURVE",
"220 135 OFFCURVE",
"205 199 OFFCURVE",
"195 238 CURVE SMOOTH",
"65 729 LINE",
"0 729 LINE",
"193 0 LINE"
);
}
);
width = 881;
},
{
anchors = (
{
name = bottom;
position = "{465, 0}";
},
{
name = top;
position = "{465, 729}";
}
);
layerId = "47995495-C855-4C5A-BA32-118EA0334940";
paths = (
{
closed = 1;
nodes = (
"315 0 LINE",
"428 430 LINE SMOOTH",
"440 475 OFFCURVE",
"455 544 OFFCURVE",
"464 588 CURVE",
"473 547 OFFCURVE",
"486 489 OFFCURVE",
"501 430 CURVE SMOOTH",
"612 0 LINE",
"723 0 LINE",
"918 729 LINE",
"810 729 LINE",
"702 311 LINE SMOOTH",
"687 253 OFFCURVE",
"672 189 OFFCURVE",
"666 150 CURVE",
"655 207 OFFCURVE",
"631 307 OFFCURVE",
"612 379 CURVE SMOOTH",
"518 729 LINE",
"411 729 LINE",
"317 379 LINE SMOOTH",
"300 316 OFFCURVE",
"280 233 OFFCURVE",
"261 150 CURVE",
"250 201 OFFCURVE",
"238 263 OFFCURVE",
"226 310 CURVE SMOOTH",
"118 729 LINE",
"12 729 LINE",
"201 0 LINE"
);
}
);
width = 930;
},
{
anchors = (
{
name = bottom;
position = "{525, 0}";
},
{
name = top;
position = "{525, 729}";
}
);
background = {
paths = (
{
closed = 1;
nodes = (
"408 0 LINE",
"459 248 LINE SMOOTH",
"470 302 OFFCURVE",
"486 385 OFFCURVE",
"500 465 CURVE",
"513 385 OFFCURVE",
"528 302 OFFCURVE",
"540 248 CURVE SMOOTH",
"593 0 LINE",
"788 0 LINE",
"973 729 LINE",
"777 729 LINE",
"718 440 LINE SMOOTH",
"705 374 OFFCURVE",
"692 299 OFFCURVE",
"686 263 CURVE",
"675 321 OFFCURVE",
"658 409 OFFCURVE",
"636 507 CURVE SMOOTH",
"586 729 LINE",
"412 729 LINE",
"363 507 LINE SMOOTH",
"346 429 OFFCURVE",
"327 340 OFFCURVE",
"313 263 CURVE",
"305 311 OFFCURVE",
"293 381 OFFCURVE",
"281 440 CURVE SMOOTH",
"221 729 LINE",
"26 729 LINE",
"210 0 LINE"
);
}
);
};
layerId = "E2C2D751-4CF7-4DAD-9523-B06BE55028F5";
paths = (
{
closed = 1;
nodes = (
"424 0 LINE",
"480 248 LINE SMOOTH",
"492 302 OFFCURVE",
"510 382 OFFCURVE",
"525 470 CURVE",
"539 386 OFFCURVE",
"555 304 OFFCURVE",
"569 248 CURVE SMOOTH",
"627 0 LINE",
"826 0 LINE",
"1023 729 LINE",
"825 729 LINE",
"760 442 LINE SMOOTH",
"744 376 OFFCURVE",
"731 311 OFFCURVE",
"723 243 CURVE",
"711 326 OFFCURVE",
"690 411 OFFCURVE",
"666 509 CURVE SMOOTH",
"613 729 LINE",
"435 729 LINE",
"382 506 LINE SMOOTH",
"363 425 OFFCURVE",
"343 338 OFFCURVE",
"326 239 CURVE",
"317 309 OFFCURVE",
"303 376 OFFCURVE",
"289 441 CURVE SMOOTH",
"223 729 LINE",
"26 729 LINE",
"221 0 LINE"
);
}
);
width = 1049;
}
);
leftKerningGroup = KO_W;
rightKerningGroup = KO_W;
rightMetricsKey = "=|";
unicode = 0057;
userData = {
KernOnName = W;
};
},
{
glyphname = X;
lastChange = "2025-01-02 18:48:30 +0000";
layers = (
{
anchors = (
{
name = bottom;
position = "{292, 0}";
},
{
name = top;
position = "{292, 699}";
}
);
layerId = "F114AD5B-DC62-4E73-AD12-1938E40AC8EF";
paths = (
{
closed = 1;
nodes = (
"58 0 LINE",
"292 337 LINE",
"517 0 LINE",
"589 0 LINE",
"331 382 LINE",
"572 729 LINE",
"500 729 LINE",
"293 427 LINE",
"94 729 LINE",
"22 729 LINE",
"256 382 LINE",
"-14 0 LINE"
);
}
);
width = 575;
},
{
anchors = (
{
name = bottom;
position = "{337, 0}";
},
{
name = top;
position = "{337, 708}";
}
);
background = {
paths = (
{
closed = 1;
nodes = (
"135 0 LINE",
"211 110 LINE SMOOTH",
"252 169 OFFCURVE",
"300 242 OFFCURVE",
"334 294 CURVE",
"336 294 LINE",
"376 230 OFFCURVE",
"407 183 OFFCURVE",
"456 110 CURVE SMOOTH",
"531 0 LINE",
"649 0 LINE",
"402 367 LINE",
"647 729 LINE",
"530 729 LINE",
"460 623 LINE SMOOTH",
"422 566 OFFCURVE",
"385 510 OFFCURVE",
"340 439 CURVE",
"338 439 LINE",
"290 516 OFFCURVE",
"227 612 OFFCURVE",
"220 623 CURVE SMOOTH",
"150 729 LINE",
"32 729 LINE",
"271 370 LINE",
"18 0 LINE"
);
}
);
};
layerId = "47995495-C855-4C5A-BA32-118EA0334940";
paths = (
{
closed = 1;
nodes = (
"124 0 LINE",
"336 314 LINE",
"541 0 LINE",
"660 0 LINE",
"399 384 LINE",
"637 729 LINE",
"519 729 LINE",
"337 450 LINE",
"158 729 LINE",
"42 729 LINE",
"277 381 LINE",
"8 0 LINE"
);
}
);
width = 668;
},
{
anchors = (
{
name = bottom;
position = "{396, 0}";
},
{
name = top;
position = "{396, 729}";
}
);
layerId = "E2C2D751-4CF7-4DAD-9523-B06BE55028F5";
paths = (
{
closed = 1;
nodes = (
"235 0 LINE",
"394 257 LINE",
"553 0 LINE",
"774 0 LINE",
"517 382 LINE",
"745 729 LINE",
"529 729 LINE",
"399 505 LINE",
"267 729 LINE",
"47 729 LINE",
"275 380 LINE",
"17 0 LINE"
);
}
);
width = 791;
}
);
leftKerningGroup = KO_X;
rightKerningGroup = KO_X;
rightMetricsKey = "=|";
unicode = 0058;
},
{
glyphname = Y;
lastChange = "2025-01-02 18:47:49 +0000";
layers = (
{
anchors = (
{
name = bottom;
position = "{308, 0}";
},
{
name = top;
position = "{308, 729}";
},
{
name = topleft;
position = "{-7, 729}";
}
);
layerId = "F114AD5B-DC62-4E73-AD12-1938E40AC8EF";
paths = (
{
closed = 1;
nodes = (
"340 0 LINE",
"340 321 LINE",
"627 729 LINE",
"553 729 LINE",
"493 644 LINE SMOOTH",
"431 557 OFFCURVE",
"371 468 OFFCURVE",
"308 376 CURVE",
"245 468 OFFCURVE",
"185 557 OFFCURVE",
"123 644 CURVE SMOOTH",
"64 729 LINE",
"-12 729 LINE",
"275 321 LINE",
"275 0 LINE"
);
}
);
width = 615;
},
{
anchors = (
{
name = bottom;
position = "{343, 0}";
},
{
name = top;
position = "{344, 708}";
},
{
name = topleft;
position = "{17, 729}";
}
);
layerId = "47995495-C855-4C5A-BA32-118EA0334940";
paths = (
{
closed = 1;
nodes = (
"394 0 LINE",
"394 300 LINE",
"672 729 LINE",
"554 729 LINE",
"495 635 LINE SMOOTH",
"445 555 OFFCURVE",
"398 480 OFFCURVE",
"343 388 CURVE",
"288 480 OFFCURVE",
"258 527 OFFCURVE",
"191 635 CURVE SMOOTH",
"133 729 LINE",
"12 729 LINE",
"290 300 LINE",
"290 0 LINE"
);
}
);
width = 684;
},
{
anchors = (
{
name = bottom;
position = "{376, 0}";
},
{
name = top;
position = "{379, 729}";
},
{
name = topleft;
position = "{27, 729}";
}
);
layerId = "E2C2D751-4CF7-4DAD-9523-B06BE55028F5";
paths = (
{
closed = 1;
nodes = (
"472 0 LINE",
"472 259 LINE",
"729 729 LINE",
"513 729 LINE",
"459 616 LINE SMOOTH",
"433 561 OFFCURVE",
"406 508 OFFCURVE",
"378 432 CURVE",
"350 507 OFFCURVE",
"320 568 OFFCURVE",
"298 615 CURVE SMOOTH",
"244 729 LINE",
"22 729 LINE",
"279 259 LINE",
"279 0 LINE"
);
}
);
width = 751;
}
);
leftKerningGroup = KO_Y;
rightKerningGroup = KO_Y;
rightMetricsKey = "=|";
unicode = 0059;
userData = {
KernOnName = Y;
};
},
{
glyphname = Z;
layers = (
{
anchors = (
{
name = bottom;
position = "{325, 0}";
},
{
name = center;
position = "{325, 365}";
},
{
name = top;
position = "{325, 729}";
}
);
layerId = "F114AD5B-DC62-4E73-AD12-1938E40AC8EF";
paths = (
{
closed = 1;
nodes = (
"633 0 LINE",
"633 64 LINE",
"110 64 LINE",
"110 66 LINE",
"617 677 LINE",
"617 729 LINE",
"31 729 LINE",
"31 666 LINE",
"523 666 LINE",
"523 662 LINE",
"16 52 LINE",
"16 0 LINE"
);
}
);
width = 649;
},
{
anchors = (
{
name = bottom;
position = "{356, 0}";
},
{
name = center;
position = "{356, 365}";
},
{
name = top;
position = "{356, 708}";
}
);
layerId = "47995495-C855-4C5A-BA32-118EA0334940";
paths = (
{
closed = 1;
nodes = (
"664 0 LINE",
"664 95 LINE",
"191 95 LINE",
"191 98 LINE",
"649 645 LINE",
"649 729 LINE",
"62 729 LINE",
"62 635 LINE",
"503 635 LINE",
"503 631 LINE",
"48 85 LINE",
"48 0 LINE"
);
}
);
width = 713;
},
{
anchors = (
{
name = bottom;
position = "{345, 0}";
},
{
name = center;
position = "{345, 365}";
},
{
name = top;
position = "{345, 729}";
}
);
layerId = "E2C2D751-4CF7-4DAD-9523-B06BE55028F5";
paths = (
{
closed = 1;
nodes = (
"653 0 LINE",
"653 155 LINE",
"291 155 LINE",
"291 160 LINE",
"639 581 LINE",
"639 729 LINE",
"52 729 LINE",
"52 574 LINE",
"378 574 LINE",
"378 570 LINE",
"39 150 LINE",
"39 0 LINE"
);
}
);
width = 691;
}
);
leftKerningGroup = KO_Z;
rightKerningGroup = KO_Z;
unicode = 005A;
},
{
color = 3;
glyphname = Q.SS01;
lastChange = "2025-01-03 18:58:51 +0000";
layers = (
{
layerId = "F114AD5B-DC62-4E73-AD12-1938E40AC8EF";
paths = (
{
closed = 1;
nodes = (
"692 -76 LINE",
"631 -52 LINE SMOOTH",
"553 -22 OFFCURVE",
"482 1 OFFCURVE",
"450 8 CURVE",
"450 4 LINE",
"606 32 OFFCURVE",
"704 155 OFFCURVE",
"704 365 CURVE SMOOTH",
"704 589 OFFCURVE",
"584 738 OFFCURVE",
"372 738 CURVE SMOOTH",
"173 738 OFFCURVE",
"41 603 OFFCURVE",
"41 364 CURVE SMOOTH",
"41 140 OFFCURVE",
"160 -10 OFFCURVE",
"372 -10 CURVE",
"668 -137 LINE"
);
},
{
closed = 1;
nodes = (
"204 53 OFFCURVE",
"110 165 OFFCURVE",
"110 365 CURVE SMOOTH",
"110 565 OFFCURVE",
"204 677 OFFCURVE",
"372 677 CURVE SMOOTH",
"540 677 OFFCURVE",
"635 564 OFFCURVE",
"635 364 CURVE SMOOTH",
"635 165 OFFCURVE",
"540 53 OFFCURVE",
"372 53 CURVE SMOOTH"
);
}
);
width = 745;
},
{
layerId = "47995495-C855-4C5A-BA32-118EA0334940";
paths = (
{
closed = 1;
nodes = (
"712 -42 LINE",
"670 -24 LINE SMOOTH",
"600 5 OFFCURVE",
"532 19 OFFCURVE",
"482 23 CURVE",
"482 18 LINE",
"631 47 OFFCURVE",
"719 178 OFFCURVE",
"719 365 CURVE SMOOTH",
"719 598 OFFCURVE",
"592 738 OFFCURVE",
"381 738 CURVE SMOOTH",
"171 738 OFFCURVE",
"45 599 OFFCURVE",
"45 364 CURVE SMOOTH",
"45 131 OFFCURVE",
"171 -10 OFFCURVE",
"381 -10 CURVE",
"675 -135 LINE"
);
},
{
closed = 1;
nodes = (
"233 86 OFFCURVE",
"155 190 OFFCURVE",
"155 365 CURVE SMOOTH",
"155 548 OFFCURVE",
"239 643 OFFCURVE",
"381 643 CURVE SMOOTH",
"529 643 OFFCURVE",
"608 540 OFFCURVE",
"608 364 CURVE SMOOTH",
"608 181 OFFCURVE",
"524 86 OFFCURVE",
"381 86 CURVE SMOOTH"
);
}
);
width = 736;
},
{
layerId = "E2C2D751-4CF7-4DAD-9523-B06BE55028F5";
paths = (
{
closed = 1;
nodes = (
"747 11 LINE",
"712 25 LINE SMOOTH",
"638 52 OFFCURVE",
"581 63 OFFCURVE",
"532 65 CURVE",
"532 43 LINE",
"661 82 OFFCURVE",
"731 218 OFFCURVE",
"731 365 CURVE SMOOTH",
"731 617 OFFCURVE",
"591 738 OFFCURVE",
"382 738 CURVE SMOOTH",
"146 738 OFFCURVE",
"34 590 OFFCURVE",
"34 365 CURVE SMOOTH",
"34 112 OFFCURVE",
"173 -10 OFFCURVE",
"382 -10 CURVE",
"686 -139 LINE"
);
},
{
closed = 1;
nodes = (
"278 154 OFFCURVE",
"238 238 OFFCURVE",
"238 365 CURVE SMOOTH",
"238 514 OFFCURVE",
"296 575 OFFCURVE",
"382 575 CURVE SMOOTH",
"487 575 OFFCURVE",
"528 491 OFFCURVE",
"528 365 CURVE SMOOTH",
"528 214 OFFCURVE",
"470 154 OFFCURVE",
"382 154 CURVE SMOOTH"
);
}
);
width = 780;
}
);
leftMetricsKey = "=O";
},
{
glyphname = Adieresis.case;
lastChange = "2025-02-20 16:13:46 +0000";
layers = (
{
components = (
{
name = A;
}
);
layerId = "F114AD5B-DC62-4E73-AD12-1938E40AC8EF";
paths = (
{
closed = 1;
nodes = (
"169 595 LINE",
"169 729 LINE",
"106 729 LINE",
"106 595 LINE"
);
},
{
closed = 1;
nodes = (
"609 595 LINE",
"609 729 LINE",
"546 729 LINE",
"546 595 LINE"
);
}
);
width = 713;
},
{
components = (
{
name = A;
}
);
layerId = "47995495-C855-4C5A-BA32-118EA0334940";
paths = (
{
closed = 1;
nodes = (
"175 586 LINE",
"175 729 LINE",
"81 729 LINE",
"81 586 LINE"
);
},
{
closed = 1;
nodes = (
"649 586 LINE",
"649 729 LINE",
"556 729 LINE",
"556 586 LINE"
);
}
);
width = 729;
},
{
components = (
{
alignment = -1;
name = A;
transform = "{1, 0, 0, 1, -6, 0}";
}
);
layerId = "E2C2D751-4CF7-4DAD-9523-B06BE55028F5";
paths = (
{
closed = 1;
nodes = (
"203 567 LINE",
"203 729 LINE",
"41 729 LINE",
"41 567 LINE"
);
},
{
closed = 1;
nodes = (
"784 567 LINE",
"784 729 LINE",
"622 729 LINE",
"622 567 LINE"
);
}
);
width = 812;
}
);
},
{
glyphname = Amacron.case;
layers = (
{
anchors = (
{
name = _top;
position = "{358, 699}";
}
);
components = (
{
alignment = -1;
name = A;
}
);
layerId = "F114AD5B-DC62-4E73-AD12-1938E40AC8EF";
paths = (
{
closed = 1;
nodes = (
"654 669 LINE",
"654 729 LINE",
"62 729 LINE",
"62 669 LINE"
);
}
);
width = 717;
},
{
anchors = (
{
name = _top;
position = "{376, 708}";
}
);
components = (
{
alignment = -1;
name = A;
}
);
layerId = "47995495-C855-4C5A-BA32-118EA0334940";
paths = (
{
closed = 1;
nodes = (
"655 637 LINE",
"655 729 LINE",
"95 729 LINE",
"95 637 LINE"
);
}
);
width = 746;
},
{
anchors = (
{
name = _top;
position = "{404, 727}";
}
);
components = (
{
alignment = -1;
name = A;
transform = "{1, 0, 0, 1, 9, 0}";
}
);
layerId = "E2C2D751-4CF7-4DAD-9523-B06BE55028F5";
paths = (
{
closed = 1;
nodes = (
"734 572 LINE",
"734 729 LINE",
"73 729 LINE",
"73 572 LINE"
);
}
);
width = 815;
}
);
},
{
color = 3;
glyphname = R.salt;
lastChange = "2025-02-20 15:48:55 +0000";
layers = (
{
anchors = (
{
name = bottom;
position = "{348, 0}";
},
{
name = top;
position = "{348, 699}";
}
);
layerId = "F114AD5B-DC62-4E73-AD12-1938E40AC8EF";
paths = (
{
closed = 1;
nodes = (
"151 0 LINE",
"151 340 LINE",
"437 340 LINE SMOOTH",
"521 340 OFFCURVE",
"563 308 OFFCURVE",
"563 214 CURVE SMOOTH",
"563 0 LINE",
"628 0 LINE",
"628 227 LINE SMOOTH",
"628 300 OFFCURVE",
"599 351 OFFCURVE",
"521 372 CURVE",
"521 367 LINE",
"595 392 OFFCURVE",
"644 458 OFFCURVE",
"644 539 CURVE SMOOTH",
"644 653 OFFCURVE",
"569 729 OFFCURVE",
"425 729 CURVE SMOOTH",
"86 729 LINE",
"86 0 LINE"
);
},
{
closed = 1;
nodes = (
"151 669 LINE",
"411 669 LINE SMOOTH",
"517 669 OFFCURVE",
"576 626 OFFCURVE",
"576 535 CURVE SMOOTH",
"576 447 OFFCURVE",
"523 398 OFFCURVE",
"411 398 CURVE SMOOTH",
"151 398 LINE"
);
}
);
width = 710;
},
{
anchors = (
{
name = bottom;
position = "{371, 0}";
},
{
name = top;
position = "{371, 708}";
}
);
layerId = "47995495-C855-4C5A-BA32-118EA0334940";
paths = (
{
closed = 1;
nodes = (
"204 0 LINE",
"204 314 LINE",
"456 314 LINE SMOOTH",
"515 314 OFFCURVE",
"561 300 OFFCURVE",
"561 205 CURVE SMOOTH",
"561 0 LINE",
"665 0 LINE",
"665 214 LINE SMOOTH",
"665 300 OFFCURVE",
"629 347 OFFCURVE",
"550 358 CURVE",
"550 354 LINE",
"628 377 OFFCURVE",
"679 445 OFFCURVE",
"679 534 CURVE SMOOTH",
"679 651 OFFCURVE",
"595 729 OFFCURVE",
"445 729 CURVE SMOOTH",
"100 729 LINE",
"100 0 LINE"
);
},
{
closed = 1;
nodes = (
"204 637 LINE",
"437 637 LINE SMOOTH",
"521 637 OFFCURVE",
"569 595 OFFCURVE",
"569 519 CURVE SMOOTH",
"569 443 OFFCURVE",
"521 399 OFFCURVE",
"436 399 CURVE SMOOTH",
"204 399 LINE"
);
}
);
width = 734;
},
{
anchors = (
{
name = bottom;
position = "{370, 0}";
},
{
name = top;
position = "{352, 727}";
}
);
background = {
paths = (
{
closed = 1;
nodes = (
"253 0 LINE",
"253 260 LINE",
"412 260 LINE SMOOTH",
"461 260 OFFCURVE",
"487 239 OFFCURVE",
"487 183 CURVE SMOOTH",
"487 0 LINE",
"679 0 LINE",
"679 208 LINE SMOOTH",
"679 270 OFFCURVE",
"652 329 OFFCURVE",
"554 334 CURVE",
"554 331 LINE",
"647 353 OFFCURVE",
"697 428 OFFCURVE",
"697 514 CURVE SMOOTH",
"697 645 OFFCURVE",
"606 729 OFFCURVE",
"431 729 CURVE SMOOTH",
"60 729 LINE",
"60 0 LINE"
);
},
{
closed = 1;
nodes = (
"253 574 LINE",
"407 574 LINE SMOOTH",
"458 574 OFFCURVE",
"496 547 OFFCURVE",
"496 491 CURVE SMOOTH",
"496 440 OFFCURVE",
"464 407 OFFCURVE",
"404 407 CURVE SMOOTH",
"253 407 LINE"
);
}
);
};
layerId = "E2C2D751-4CF7-4DAD-9523-B06BE55028F5";
paths = (
{
closed = 1;
nodes = (
"253 0 LINE",
"253 260 LINE",
"405 260 LINE SMOOTH",
"464 260 OFFCURVE",
"490 239 OFFCURVE",
"490 173 CURVE SMOOTH",
"490 0 LINE",
"682 0 LINE",
"682 206 LINE SMOOTH",
"682 280 OFFCURVE",
"661 324 OFFCURVE",
"557 346 CURVE",
"558 340 LINE",
"643 359 OFFCURVE",
"697 429 OFFCURVE",
"697 522 CURVE SMOOTH",
"697 656 OFFCURVE",
"594 729 OFFCURVE",
"440 729 CURVE SMOOTH",
"60 729 LINE",
"60 0 LINE"
);
},
{
closed = 1;
nodes = (
"253 574 LINE",
"407 574 LINE SMOOTH",
"458 574 OFFCURVE",
"496 547 OFFCURVE",
"496 491 CURVE SMOOTH",
"496 440 OFFCURVE",
"464 407 OFFCURVE",
"404 407 CURVE SMOOTH",
"253 407 LINE"
);
}
);
width = 731;
}
);
leftMetricsKey = "=H";
rightKerningGroup = KO_U;
userData = {
KernOnName = R.salt;
};
},
{
glyphname = R.ss01;
lastChange = "2025-01-02 19:25:04 +0000";
layers = (
{
anchors = (
{
name = bottom;
position = "{337, 0}";
},
{
name = top;
position = "{297, 729}";
}
);
background = {
paths = (
{
closed = 1;
nodes = (
"151 0 LINE",
"151 344 LINE",
"402 344 LINE",
"570 0 LINE",
"643 0 LINE",
"463 373 LINE",
"437 345 LINE",
"564 355 OFFCURVE",
"644 423 OFFCURVE",
"644 538 CURVE SMOOTH",
"644 660 OFFCURVE",
"556 729 OFFCURVE",
"425 729 CURVE SMOOTH",
"86 729 LINE",
"86 0 LINE"
);
},
{
closed = 1;
nodes = (
"151 668 LINE",
"411 668 LINE SMOOTH",
"510 668 OFFCURVE",
"576 629 OFFCURVE",
"576 535 CURVE SMOOTH",
"576 451 OFFCURVE",
"523 398 OFFCURVE",
"411 398 CURVE SMOOTH",
"151 398 LINE"
);
}
);
};
layerId = "F114AD5B-DC62-4E73-AD12-1938E40AC8EF";
paths = (
{
closed = 1;
nodes = (
"151 0 LINE",
"151 667 LINE",
"417 667 LINE SMOOTH",
"514 667 OFFCURVE",
"576 625 OFFCURVE",
"576 537 CURVE SMOOTH",
"576 452 OFFCURVE",
"523 400 OFFCURVE",
"411 400 CURVE SMOOTH",
"137 400 LINE",
"137 344 LINE",
"402 344 LINE",
"570 0 LINE",
"643 0 LINE",
"473 352 LINE",
"577 367 OFFCURVE",
"643 434 OFFCURVE",
"643 537 CURVE SMOOTH",
"643 660 OFFCURVE",
"557 729 OFFCURVE",
"417 729 CURVE SMOOTH",
"86 729 LINE",
"86 0 LINE"
);
}
);
width = 704;
},
{
anchors = (
{
name = bottom;
position = "{372, 0}";
},
{
name = top;
position = "{325, 729}";
}
);
background = {
paths = (
{
closed = 1;
nodes = (
"205 0 LINE",
"205 636 LINE",
"428 636 LINE SMOOTH",
"522 636 OFFCURVE",
"568 589 OFFCURVE",
"568 518 CURVE SMOOTH",
"568 439 OFFCURVE",
"513 400 OFFCURVE",
"428 400 CURVE SMOOTH",
"189 400 LINE",
"189 312 LINE",
"418 312 LINE",
"570 0 LINE",
"690 0 LINE",
"526 328 LINE",
"623 356 OFFCURVE",
"682 426 OFFCURVE",
"682 524 CURVE SMOOTH",
"682 651 OFFCURVE",
"590 729 OFFCURVE",
"439 729 CURVE SMOOTH",
"100 729 LINE",
"100 0 LINE"
);
}
);
};
layerId = "47995495-C855-4C5A-BA32-118EA0334940";
paths = (
{
closed = 1;
nodes = (
"205 0 LINE",
"205 636 LINE",
"428 636 LINE SMOOTH",
"522 636 OFFCURVE",
"568 589 OFFCURVE",
"568 518 CURVE SMOOTH",
"568 439 OFFCURVE",
"513 400 OFFCURVE",
"428 400 CURVE SMOOTH",
"189 400 LINE",
"189 312 LINE",
"418 312 LINE",
"570 0 LINE",
"690 0 LINE",
"526 328 LINE",
"623 353 OFFCURVE",
"682 422 OFFCURVE",
"682 519 CURVE SMOOTH",
"682 652 OFFCURVE",
"590 729 OFFCURVE",
"439 729 CURVE SMOOTH",
"100 729 LINE",
"100 0 LINE"
);
}
);
width = 748;
},
{
anchors = (
{
name = bottom;
position = "{380, 0}";
},
{
name = top;
position = "{316, 729}";
}
);
background = {
paths = (
{
closed = 1;
nodes = (
"253 0 LINE",
"253 255 LINE",
"357 255 LINE",
"476 0 LINE",
"711 0 LINE",
"517 369 LINE",
"456 272 LINE",
"599 281 OFFCURVE",
"693 366 OFFCURVE",
"693 501 CURVE SMOOTH",
"693 638 OFFCURVE",
"606 729 OFFCURVE",
"420 729 CURVE SMOOTH",
"60 729 LINE",
"60 0 LINE"
);
},
{
closed = 1;
nodes = (
"253 569 LINE",
"392 569 LINE SMOOTH",
"447 569 OFFCURVE",
"483 544 OFFCURVE",
"483 486 CURVE SMOOTH",
"483 435 OFFCURVE",
"458 403 OFFCURVE",
"392 403 CURVE SMOOTH",
"253 403 LINE"
);
}
);
};
layerId = "E2C2D751-4CF7-4DAD-9523-B06BE55028F5";
paths = (
{
closed = 1;
nodes = (
"253 0 LINE",
"253 569 LINE",
"392 569 LINE SMOOTH",
"447 569 OFFCURVE",
"483 538 OFFCURVE",
"483 486 CURVE SMOOTH",
"483 436 OFFCURVE",
"450 403 OFFCURVE",
"392 403 CURVE SMOOTH",
"237 403 LINE",
"237 255 LINE",
"357 255 LINE",
"476 0 LINE",
"711 0 LINE",
"554 300 LINE",
"639 330 OFFCURVE",
"693 402 OFFCURVE",
"693 498 CURVE SMOOTH",
"693 637 OFFCURVE",
"596 729 OFFCURVE",
"416 729 CURVE SMOOTH",
"60 729 LINE",
"60 0 LINE"
);
}
);
width = 748;
}
);
leftKerningGroup = KO_H;
leftMetricsKey = "=R";
rightKerningGroup = KO_R.ss01;
rightMetricsKey = "=R";
},
{
color = 1;
glyphname = R.ss03;
lastChange = "2025-01-03 18:46:14 +0000";
layers = (
{
anchors = (
{
name = bottom;
position = "{390, 0}";
},
{
name = top;
position = "{364, 729}";
}
);
background = {
paths = (
{
closed = 1;
nodes = (
"16 664 LINE",
"336 664 LINE",
"336 177 LINE SMOOTH",
"336 110 OFFCURVE",
"289 65 OFFCURVE",
"207 65 CURVE SMOOTH",
"103 65 LINE SMOOTH",
"59 65 OFFCURVE",
"37 65 OFFCURVE",
"16 65 CURVE",
"16 0 LINE",
"41 0 OFFCURVE",
"69 0 OFFCURVE",
"93 0 CURVE SMOOTH",
"225 0 LINE SMOOTH",
"303 0 OFFCURVE",
"361 45 OFFCURVE",
"369 112 CURVE",
"393 29 OFFCURVE",
"466 -16 OFFCURVE",
"548 -16 CURVE SMOOTH",
"672 -16 OFFCURVE",
"745 68 OFFCURVE",
"745 203 CURVE SMOOTH",
"745 729 LINE",
"16 729 LINE"
);
},
{
closed = 1;
nodes = (
"685 664 LINE",
"685 227 LINE SMOOTH",
"685 122 OFFCURVE",
"645 52 OFFCURVE",
"541 52 CURVE SMOOTH",
"453 52 OFFCURVE",
"394 101 OFFCURVE",
"394 227 CURVE SMOOTH",
"394 664 LINE"
);
}
);
};
layerId = "F114AD5B-DC62-4E73-AD12-1938E40AC8EF";
paths = (
{
closed = 1;
nodes = (
"667 -10 OFFCURVE",
"745 67 OFFCURVE",
"745 203 CURVE SMOOTH",
"745 729 LINE",
"16 729 LINE",
"16 669 LINE",
"333 669 LINE",
"333 172 LINE SMOOTH",
"333 105 OFFCURVE",
"288 60 OFFCURVE",
"206 60 CURVE SMOOTH",
"16 60 LINE",
"16 0 LINE",
"225 0 LINE SMOOTH",
"303 0 OFFCURVE",
"361 45 OFFCURVE",
"369 112 CURVE",
"393 29 OFFCURVE",
"464 -10 OFFCURVE",
"546 -10 CURVE SMOOTH"
);
},
{
closed = 1;
nodes = (
"453 52 OFFCURVE",
"398 101 OFFCURVE",
"398 227 CURVE SMOOTH",
"398 669 LINE",
"681 669 LINE",
"681 219 LINE SMOOTH",
"681 122 OFFCURVE",
"645 52 OFFCURVE",
"541 52 CURVE SMOOTH"
);
}
);
width = 823;
},
{
anchors = (
{
name = bottom;
position = "{429, 0}";
},
{
name = top;
position = "{419, 729}";
}
);
background = {
paths = (
{
closed = 1;
nodes = (
"701 -15 OFFCURVE",
"778 71 OFFCURVE",
"778 210 CURVE SMOOTH",
"778 729 LINE",
"49 729 LINE",
"49 621 LINE",
"347 621 LINE",
"347 217 LINE SMOOTH",
"347 153 OFFCURVE",
"304 108 OFFCURVE",
"228 108 CURVE SMOOTH",
"136 108 LINE SMOOTH",
"92 108 OFFCURVE",
"69 108 OFFCURVE",
"49 108 CURVE",
"49 0 LINE",
"75 0 OFFCURVE",
"105 0 OFFCURVE",
"130 0 CURVE SMOOTH",
"250 0 LINE SMOOTH",
"328 0 OFFCURVE",
"386 46 OFFCURVE",
"397 115 CURVE",
"421 33 OFFCURVE",
"489 -15 OFFCURVE",
"577 -15 CURVE SMOOTH"
);
},
{
closed = 1;
nodes = (
"487 100 OFFCURVE",
"437 142 OFFCURVE",
"437 248 CURVE SMOOTH",
"437 621 LINE",
"683 621 LINE",
"683 247 LINE SMOOTH",
"683 159 OFFCURVE",
"648 100 OFFCURVE",
"561 100 CURVE SMOOTH"
);
}
);
};
layerId = "47995495-C855-4C5A-BA32-118EA0334940";
paths = (
{
closed = 1;
nodes = (
"695 -10 OFFCURVE",
"777 64 OFFCURVE",
"777 208 CURVE SMOOTH",
"777 729 LINE",
"48 729 LINE",
"48 637 LINE",
"343 637 LINE",
"343 206 LINE SMOOTH",
"343 136 OFFCURVE",
"301 96 OFFCURVE",
"226 96 CURVE SMOOTH",
"48 96 LINE",
"48 0 LINE",
"236 0 LINE SMOOTH",
"332 0 OFFCURVE",
"383 47 OFFCURVE",
"396 115 CURVE",
"418 34 OFFCURVE",
"487 -10 OFFCURVE",
"573 -10 CURVE SMOOTH"
);
},
{
closed = 1;
nodes = (
"489 85 OFFCURVE",
"443 127 OFFCURVE",
"443 231 CURVE SMOOTH",
"443 637 LINE",
"678 637 LINE",
"678 225 LINE SMOOTH",
"678 142 OFFCURVE",
"646 85 OFFCURVE",
"562 85 CURVE SMOOTH"
);
}
);
width = 870;
},
{
anchors = (
{
name = bottom;
position = "{425, 0}";
},
{
name = top;
position = "{430, 729}";
}
);
background = {
paths = (
{
closed = 1;
nodes = (
"679 -9 OFFCURVE",
"768 58 OFFCURVE",
"768 217 CURVE SMOOTH",
"768 729 LINE",
"39 729 LINE",
"39 574 LINE",
"292 574 LINE",
"292 272 LINE SMOOTH",
"292 197 OFFCURVE",
"256 165 OFFCURVE",
"194 165 CURVE SMOOTH",
"39 165 LINE",
"39 0 LINE",
"187 0 LINE SMOOTH",
"322 0 OFFCURVE",
"355 56 OFFCURVE",
"377 121 CURVE",
"396 42 OFFCURVE",
"462 -9 OFFCURVE",
"555 -9 CURVE SMOOTH"
);
},
{
closed = 1;
nodes = (
"486 148 OFFCURVE",
"458 179 OFFCURVE",
"458 238 CURVE SMOOTH",
"458 574 LINE",
"602 574 LINE",
"602 238 LINE SMOOTH",
"602 181 OFFCURVE",
"579 148 OFFCURVE",
"532 148 CURVE SMOOTH"
);
}
);
};
layerId = "E2C2D751-4CF7-4DAD-9523-B06BE55028F5";
paths = (
{
closed = 1;
nodes = (
"673 -9 OFFCURVE",
"768 62 OFFCURVE",
"768 219 CURVE SMOOTH",
"768 729 LINE",
"39 729 LINE",
"39 560 LINE",
"279 560 LINE",
"279 276 LINE SMOOTH",
"279 201 OFFCURVE",
"244 169 OFFCURVE",
"183 169 CURVE SMOOTH",
"39 169 LINE",
"39 0 LINE",
"211 0 LINE SMOOTH",
"329 0 OFFCURVE",
"361 71 OFFCURVE",
"376 121 CURVE",
"395 42 OFFCURVE",
"466 -9 OFFCURVE",
"555 -9 CURVE SMOOTH"
);
},
{
closed = 1;
nodes = (
"481 152 OFFCURVE",
"454 182 OFFCURVE",
"454 238 CURVE SMOOTH",
"454 560 LINE",
"593 560 LINE",
"593 239 LINE SMOOTH",
"593 183 OFFCURVE",
"570 152 OFFCURVE",
"526 152 CURVE SMOOTH"
);
}
);
width = 819;
}
);
leftKerningGroup = KO_R.ss03;
leftMetricsKey = Z;
rightKerningGroup = KO_J;
rightMetricsKey = U;
},
{
color = 3;
glyphname = O.ss06;
lastChange = "2025-02-20 16:28:29 +0000";
layers = (
{
anchors = (
{
name = bottom;
position = "{418, 0}";
},
{
name = center;
position = "{418, 365}";
},
{
name = ogonek;
position = "{418, 10}";
},
{
name = top;
position = "{418, 699}";
},
{
name = topleft;
position = "{418, 729}";
},
{
name = topright;
position = "{418, 729}";
}
);
background = {
paths = (
{
closed = 1;
nodes = (
"373 340 OFFCURVE",
"395 319 OFFCURVE",
"419 320 CURVE SMOOTH",
"443 319 OFFCURVE",
"465 340 OFFCURVE",
"465 363 CURVE SMOOTH",
"465 388 OFFCURVE",
"444 409 OFFCURVE",
"419 409 CURVE SMOOTH",
"393 409 OFFCURVE",
"373 389 OFFCURVE",
"373 364 CURVE SMOOTH"
);
},
{
closed = 1;
nodes = (
"533 341 OFFCURVE",
"555 320 OFFCURVE",
"579 321 CURVE SMOOTH",
"603 320 OFFCURVE",
"625 341 OFFCURVE",
"625 364 CURVE SMOOTH",
"625 389 OFFCURVE",
"604 410 OFFCURVE",
"579 410 CURVE SMOOTH",
"553 410 OFFCURVE",
"533 390 OFFCURVE",
"533 365 CURVE SMOOTH"
);
},
{
closed = 1;
nodes = (
"694 341 OFFCURVE",
"716 320 OFFCURVE",
"740 321 CURVE SMOOTH",
"764 320 OFFCURVE",
"786 341 OFFCURVE",
"786 364 CURVE SMOOTH",
"786 389 OFFCURVE",
"765 410 OFFCURVE",
"740 410 CURVE SMOOTH",
"714 410 OFFCURVE",
"694 390 OFFCURVE",
"694 365 CURVE SMOOTH"
);
},
{
closed = 1;
nodes = (
"211 341 OFFCURVE",
"233 320 OFFCURVE",
"257 321 CURVE SMOOTH",
"281 320 OFFCURVE",
"303 341 OFFCURVE",
"303 364 CURVE SMOOTH",
"303 389 OFFCURVE",
"282 410 OFFCURVE",
"257 410 CURVE SMOOTH",
"231 410 OFFCURVE",
"211 390 OFFCURVE",
"211 365 CURVE SMOOTH"
);
},
{
closed = 1;
nodes = (
"50 341 OFFCURVE",
"72 320 OFFCURVE",
"96 321 CURVE SMOOTH",
"120 320 OFFCURVE",
"142 341 OFFCURVE",
"142 364 CURVE SMOOTH",
"142 389 OFFCURVE",
"121 410 OFFCURVE",
"96 410 CURVE SMOOTH",
"70 410 OFFCURVE",
"50 390 OFFCURVE",
"50 365 CURVE SMOOTH"
);
},
{
closed = 1;
nodes = (
"293 201 OFFCURVE",
"315 180 OFFCURVE",
"339 181 CURVE SMOOTH",
"363 180 OFFCURVE",
"385 201 OFFCURVE",
"385 224 CURVE SMOOTH",
"385 249 OFFCURVE",
"364 270 OFFCURVE",
"339 270 CURVE SMOOTH",
"313 270 OFFCURVE",
"293 250 OFFCURVE",
"293 225 CURVE SMOOTH"
);
},
{
closed = 1;
nodes = (
"453 202 OFFCURVE",
"475 181 OFFCURVE",
"499 182 CURVE SMOOTH",
"523 181 OFFCURVE",
"545 202 OFFCURVE",
"545 225 CURVE SMOOTH",
"545 250 OFFCURVE",
"524 271 OFFCURVE",
"499 271 CURVE SMOOTH",
"473 271 OFFCURVE",
"453 251 OFFCURVE",
"453 226 CURVE SMOOTH"
);
},
{
closed = 1;
nodes = (
"652 180 OFFCURVE",
"674 159 OFFCURVE",
"698 160 CURVE SMOOTH",
"722 159 OFFCURVE",
"744 180 OFFCURVE",
"744 203 CURVE SMOOTH",
"744 228 OFFCURVE",
"723 249 OFFCURVE",
"698 249 CURVE SMOOTH",
"672 249 OFFCURVE",
"652 229 OFFCURVE",
"652 204 CURVE SMOOTH"
);
},
{
closed = 1;
nodes = (
"533 62 OFFCURVE",
"555 41 OFFCURVE",
"579 42 CURVE SMOOTH",
"603 41 OFFCURVE",
"625 62 OFFCURVE",
"625 85 CURVE SMOOTH",
"625 110 OFFCURVE",
"604 131 OFFCURVE",
"579 131 CURVE SMOOTH",
"553 131 OFFCURVE",
"533 111 OFFCURVE",
"533 86 CURVE SMOOTH"
);
},
{
closed = 1;
nodes = (
"372 20 OFFCURVE",
"394 -1 OFFCURVE",
"418 0 CURVE SMOOTH",
"442 -1 OFFCURVE",
"464 20 OFFCURVE",
"464 43 CURVE SMOOTH",
"464 68 OFFCURVE",
"443 89 OFFCURVE",
"418 89 CURVE SMOOTH",
"392 89 OFFCURVE",
"372 69 OFFCURVE",
"372 44 CURVE SMOOTH"
);
},
{
closed = 1;
nodes = (
"212 62 OFFCURVE",
"234 41 OFFCURVE",
"258 42 CURVE SMOOTH",
"282 41 OFFCURVE",
"304 62 OFFCURVE",
"304 85 CURVE SMOOTH",
"304 110 OFFCURVE",
"283 131 OFFCURVE",
"258 131 CURVE SMOOTH",
"232 131 OFFCURVE",
"212 111 OFFCURVE",
"212 86 CURVE SMOOTH"
);
},
{
closed = 1;
nodes = (
"93 180 OFFCURVE",
"115 159 OFFCURVE",
"139 160 CURVE SMOOTH",
"163 159 OFFCURVE",
"185 180 OFFCURVE",
"185 203 CURVE SMOOTH",
"185 228 OFFCURVE",
"164 249 OFFCURVE",
"139 249 CURVE SMOOTH",
"113 249 OFFCURVE",
"93 229 OFFCURVE",
"93 204 CURVE SMOOTH"
);
},
{
closed = 1;
nodes = (
"94 500 OFFCURVE",
"116 479 OFFCURVE",
"140 480 CURVE SMOOTH",
"164 479 OFFCURVE",
"186 500 OFFCURVE",
"186 523 CURVE SMOOTH",
"186 548 OFFCURVE",
"165 569 OFFCURVE",
"140 569 CURVE SMOOTH",
"114 569 OFFCURVE",
"94 549 OFFCURVE",
"94 524 CURVE SMOOTH"
);
},
{
closed = 1;
nodes = (
"291 480 OFFCURVE",
"313 459 OFFCURVE",
"337 460 CURVE SMOOTH",
"361 459 OFFCURVE",
"383 480 OFFCURVE",
"383 503 CURVE SMOOTH",
"383 528 OFFCURVE",
"362 549 OFFCURVE",
"337 549 CURVE SMOOTH",
"311 549 OFFCURVE",
"291 529 OFFCURVE",
"291 504 CURVE SMOOTH"
);
},
{
closed = 1;
nodes = (
"453 480 OFFCURVE",
"475 459 OFFCURVE",
"499 460 CURVE SMOOTH",
"523 459 OFFCURVE",
"545 480 OFFCURVE",
"545 503 CURVE SMOOTH",
"545 528 OFFCURVE",
"524 549 OFFCURVE",
"499 549 CURVE SMOOTH",
"473 549 OFFCURVE",
"453 529 OFFCURVE",
"453 504 CURVE SMOOTH"
);
},
{
closed = 1;
nodes = (
"652 499 OFFCURVE",
"674 478 OFFCURVE",
"698 479 CURVE SMOOTH",
"722 478 OFFCURVE",
"744 499 OFFCURVE",
"744 522 CURVE SMOOTH",
"744 547 OFFCURVE",
"723 568 OFFCURVE",
"698 568 CURVE SMOOTH",
"672 568 OFFCURVE",
"652 548 OFFCURVE",
"652 523 CURVE SMOOTH"
);
},
{
closed = 1;
nodes = (
"533 618 OFFCURVE",
"555 597 OFFCURVE",
"579 598 CURVE SMOOTH",
"603 597 OFFCURVE",
"625 618 OFFCURVE",
"625 641 CURVE SMOOTH",
"625 666 OFFCURVE",
"604 687 OFFCURVE",
"579 687 CURVE SMOOTH",
"553 687 OFFCURVE",
"533 667 OFFCURVE",
"533 642 CURVE SMOOTH"
);
},
{
closed = 1;
nodes = (
"372 660 OFFCURVE",
"394 639 OFFCURVE",
"418 640 CURVE SMOOTH",
"442 639 OFFCURVE",
"464 660 OFFCURVE",
"464 683 CURVE SMOOTH",
"464 708 OFFCURVE",
"443 729 OFFCURVE",
"418 729 CURVE SMOOTH",
"392 729 OFFCURVE",
"372 709 OFFCURVE",
"372 684 CURVE SMOOTH"
);
},
{
closed = 1;
nodes = (
"211 619 OFFCURVE",
"233 598 OFFCURVE",
"257 599 CURVE SMOOTH",
"281 598 OFFCURVE",
"303 619 OFFCURVE",
"303 642 CURVE SMOOTH",
"303 667 OFFCURVE",
"282 688 OFFCURVE",
"257 688 CURVE SMOOTH",
"231 688 OFFCURVE",
"211 668 OFFCURVE",
"211 643 CURVE SMOOTH"
);
}
);
};
layerId = "F114AD5B-DC62-4E73-AD12-1938E40AC8EF";
paths = (
{
closed = 1;
nodes = (
"380 344 OFFCURVE",
"399 326 OFFCURVE",
"419 327 CURVE SMOOTH",
"439 326 OFFCURVE",
"458 344 OFFCURVE",
"458 363 CURVE SMOOTH",
"458 384 OFFCURVE",
"440 402 OFFCURVE",
"419 402 CURVE SMOOTH",
"397 402 OFFCURVE",
"380 385 OFFCURVE",
"380 364 CURVE SMOOTH"
);
},
{
closed = 1;
nodes = (
"548 345 OFFCURVE",
"567 327 OFFCURVE",
"587 328 CURVE SMOOTH",
"607 327 OFFCURVE",
"626 345 OFFCURVE",
"626 364 CURVE SMOOTH",
"626 385 OFFCURVE",
"608 403 OFFCURVE",
"587 403 CURVE SMOOTH",
"565 403 OFFCURVE",
"548 386 OFFCURVE",
"548 365 CURVE SMOOTH"
);
},
{
closed = 1;
nodes = (
"717 345 OFFCURVE",
"736 327 OFFCURVE",
"756 328 CURVE SMOOTH",
"776 327 OFFCURVE",
"795 345 OFFCURVE",
"795 364 CURVE SMOOTH",
"795 385 OFFCURVE",
"777 403 OFFCURVE",
"756 403 CURVE SMOOTH",
"734 403 OFFCURVE",
"717 386 OFFCURVE",
"717 365 CURVE SMOOTH"
);
},
{
closed = 1;
nodes = (
"210 345 OFFCURVE",
"229 327 OFFCURVE",
"249 328 CURVE SMOOTH",
"269 327 OFFCURVE",
"288 345 OFFCURVE",
"288 364 CURVE SMOOTH",
"288 385 OFFCURVE",
"270 403 OFFCURVE",
"249 403 CURVE SMOOTH",
"227 403 OFFCURVE",
"210 386 OFFCURVE",
"210 365 CURVE SMOOTH"
);
},
{
closed = 1;
nodes = (
"41 345 OFFCURVE",
"60 327 OFFCURVE",
"80 328 CURVE SMOOTH",
"100 327 OFFCURVE",
"119 345 OFFCURVE",
"119 364 CURVE SMOOTH",
"119 385 OFFCURVE",
"101 403 OFFCURVE",
"80 403 CURVE SMOOTH",
"58 403 OFFCURVE",
"41 386 OFFCURVE",
"41 365 CURVE SMOOTH"
);
},
{
closed = 1;
nodes = (
"296 198 OFFCURVE",
"315 180 OFFCURVE",
"335 181 CURVE SMOOTH",
"355 180 OFFCURVE",
"374 198 OFFCURVE",
"374 217 CURVE SMOOTH",
"374 238 OFFCURVE",
"356 256 OFFCURVE",
"335 256 CURVE SMOOTH",
"313 256 OFFCURVE",
"296 239 OFFCURVE",
"296 218 CURVE SMOOTH"
);
},
{
closed = 1;
nodes = (
"464 199 OFFCURVE",
"483 181 OFFCURVE",
"503 182 CURVE SMOOTH",
"523 181 OFFCURVE",
"542 199 OFFCURVE",
"542 218 CURVE SMOOTH",
"542 239 OFFCURVE",
"524 257 OFFCURVE",
"503 257 CURVE SMOOTH",
"481 257 OFFCURVE",
"464 240 OFFCURVE",
"464 219 CURVE SMOOTH"
);
},
{
closed = 1;
nodes = (
"673 176 OFFCURVE",
"692 158 OFFCURVE",
"712 159 CURVE SMOOTH",
"732 158 OFFCURVE",
"751 176 OFFCURVE",
"751 195 CURVE SMOOTH",
"751 216 OFFCURVE",
"733 234 OFFCURVE",
"712 234 CURVE SMOOTH",
"690 234 OFFCURVE",
"673 217 OFFCURVE",
"673 196 CURVE SMOOTH"
);
},
{
closed = 1;
nodes = (
"548 52 OFFCURVE",
"567 34 OFFCURVE",
"587 35 CURVE SMOOTH",
"607 34 OFFCURVE",
"626 52 OFFCURVE",
"626 71 CURVE SMOOTH",
"626 92 OFFCURVE",
"608 110 OFFCURVE",
"587 110 CURVE SMOOTH",
"565 110 OFFCURVE",
"548 93 OFFCURVE",
"548 72 CURVE SMOOTH"
);
},
{
closed = 1;
nodes = (
"379 8 OFFCURVE",
"398 -10 OFFCURVE",
"418 -9 CURVE SMOOTH",
"438 -10 OFFCURVE",
"457 8 OFFCURVE",
"457 27 CURVE SMOOTH",
"457 48 OFFCURVE",
"439 66 OFFCURVE",
"418 66 CURVE SMOOTH",
"396 66 OFFCURVE",
"379 49 OFFCURVE",
"379 28 CURVE SMOOTH"
);
},
{
closed = 1;
nodes = (
"211 52 OFFCURVE",
"230 34 OFFCURVE",
"250 35 CURVE SMOOTH",
"270 34 OFFCURVE",
"289 52 OFFCURVE",
"289 71 CURVE SMOOTH",
"289 92 OFFCURVE",
"271 110 OFFCURVE",
"250 110 CURVE SMOOTH",
"228 110 OFFCURVE",
"211 93 OFFCURVE",
"211 72 CURVE SMOOTH"
);
},
{
closed = 1;
nodes = (
"86 176 OFFCURVE",
"105 158 OFFCURVE",
"125 159 CURVE SMOOTH",
"145 158 OFFCURVE",
"164 176 OFFCURVE",
"164 195 CURVE SMOOTH",
"164 216 OFFCURVE",
"146 234 OFFCURVE",
"125 234 CURVE SMOOTH",
"103 234 OFFCURVE",
"86 217 OFFCURVE",
"86 196 CURVE SMOOTH"
);
},
{
closed = 1;
nodes = (
"87 512 OFFCURVE",
"106 494 OFFCURVE",
"126 495 CURVE SMOOTH",
"146 494 OFFCURVE",
"165 512 OFFCURVE",
"165 531 CURVE SMOOTH",
"165 552 OFFCURVE",
"147 570 OFFCURVE",
"126 570 CURVE SMOOTH",
"104 570 OFFCURVE",
"87 553 OFFCURVE",
"87 532 CURVE SMOOTH"
);
},
{
closed = 1;
nodes = (
"294 491 OFFCURVE",
"313 473 OFFCURVE",
"333 474 CURVE SMOOTH",
"353 473 OFFCURVE",
"372 491 OFFCURVE",
"372 510 CURVE SMOOTH",
"372 531 OFFCURVE",
"354 549 OFFCURVE",
"333 549 CURVE SMOOTH",
"311 549 OFFCURVE",
"294 532 OFFCURVE",
"294 511 CURVE SMOOTH"
);
},
{
closed = 1;
nodes = (
"464 491 OFFCURVE",
"483 473 OFFCURVE",
"503 474 CURVE SMOOTH",
"523 473 OFFCURVE",
"542 491 OFFCURVE",
"542 510 CURVE SMOOTH",
"542 531 OFFCURVE",
"524 549 OFFCURVE",
"503 549 CURVE SMOOTH",
"481 549 OFFCURVE",
"464 532 OFFCURVE",
"464 511 CURVE SMOOTH"
);
},
{
closed = 1;
nodes = (
"673 511 OFFCURVE",
"692 493 OFFCURVE",
"712 494 CURVE SMOOTH",
"732 493 OFFCURVE",
"751 511 OFFCURVE",
"751 530 CURVE SMOOTH",
"751 551 OFFCURVE",
"733 569 OFFCURVE",
"712 569 CURVE SMOOTH",
"690 569 OFFCURVE",
"673 552 OFFCURVE",
"673 531 CURVE SMOOTH"
);
},
{
closed = 1;
nodes = (
"548 636 OFFCURVE",
"567 618 OFFCURVE",
"587 619 CURVE SMOOTH",
"607 618 OFFCURVE",
"626 636 OFFCURVE",
"626 655 CURVE SMOOTH",
"626 676 OFFCURVE",
"608 694 OFFCURVE",
"587 694 CURVE SMOOTH",
"565 694 OFFCURVE",
"548 677 OFFCURVE",
"548 656 CURVE SMOOTH"
);
},
{
closed = 1;
nodes = (
"379 680 OFFCURVE",
"398 662 OFFCURVE",
"418 663 CURVE SMOOTH",
"438 662 OFFCURVE",
"457 680 OFFCURVE",
"457 699 CURVE SMOOTH",
"457 720 OFFCURVE",
"439 738 OFFCURVE",
"418 738 CURVE SMOOTH",
"396 738 OFFCURVE",
"379 721 OFFCURVE",
"379 700 CURVE SMOOTH"
);
},
{
closed = 1;
nodes = (
"210 637 OFFCURVE",
"229 619 OFFCURVE",
"249 620 CURVE SMOOTH",
"269 619 OFFCURVE",
"288 637 OFFCURVE",
"288 656 CURVE SMOOTH",
"288 677 OFFCURVE",
"270 695 OFFCURVE",
"249 695 CURVE SMOOTH",
"227 695 OFFCURVE",
"210 678 OFFCURVE",
"210 657 CURVE SMOOTH"
);
}
);
width = 836;
},
{
anchors = (
{
name = bottom;
position = "{423, 0}";
},
{
name = center;
position = "{423, 365}";
},
{
name = ogonek;
position = "{423, 10}";
},
{
name = top;
position = "{423, 708}";
},
{
name = topleft;
position = "{423, 729}";
},
{
name = topright;
position = "{423, 729}";
}
);
layerId = "47995495-C855-4C5A-BA32-118EA0334940";
paths = (
{
closed = 1;
nodes = (
"375 338 OFFCURVE",
"398 317 OFFCURVE",
"424 317 CURVE SMOOTH",
"450 317 OFFCURVE",
"473 338 OFFCURVE",
"473 363 CURVE SMOOTH",
"473 390 OFFCURVE",
"451 412 OFFCURVE",
"424 412 CURVE SMOOTH",
"396 412 OFFCURVE",
"375 391 OFFCURVE",
"375 364 CURVE SMOOTH"
);
},
{
closed = 1;
nodes = (
"538 339 OFFCURVE",
"562 318 OFFCURVE",
"587 318 CURVE SMOOTH",
"613 318 OFFCURVE",
"637 339 OFFCURVE",
"637 364 CURVE SMOOTH",
"637 391 OFFCURVE",
"614 413 OFFCURVE",
"587 413 CURVE SMOOTH",
"560 413 OFFCURVE",
"538 392 OFFCURVE",
"538 365 CURVE SMOOTH"
);
},
{
closed = 1;
nodes = (
"703 339 OFFCURVE",
"726 318 OFFCURVE",
"752 318 CURVE SMOOTH",
"777 318 OFFCURVE",
"801 339 OFFCURVE",
"801 364 CURVE SMOOTH",
"801 391 OFFCURVE",
"778 413 OFFCURVE",
"752 413 CURVE SMOOTH",
"724 413 OFFCURVE",
"703 392 OFFCURVE",
"703 365 CURVE SMOOTH"
);
},
{
closed = 1;
nodes = (
"209 339 OFFCURVE",
"233 318 OFFCURVE",
"259 318 CURVE SMOOTH",
"284 318 OFFCURVE",
"308 339 OFFCURVE",
"308 364 CURVE SMOOTH",
"308 391 OFFCURVE",
"285 413 OFFCURVE",
"259 413 CURVE SMOOTH",
"231 413 OFFCURVE",
"209 392 OFFCURVE",
"209 365 CURVE SMOOTH"
);
},
{
closed = 1;
nodes = (
"45 339 OFFCURVE",
"69 318 OFFCURVE",
"94 318 CURVE SMOOTH",
"120 318 OFFCURVE",
"143 339 OFFCURVE",
"143 364 CURVE SMOOTH",
"143 391 OFFCURVE",
"121 413 OFFCURVE",
"94 413 CURVE SMOOTH",
"66 413 OFFCURVE",
"45 392 OFFCURVE",
"45 365 CURVE SMOOTH"
);
},
{
closed = 1;
nodes = (
"293 196 OFFCURVE",
"317 175 OFFCURVE",
"342 175 CURVE SMOOTH",
"368 175 OFFCURVE",
"391 196 OFFCURVE",
"391 221 CURVE SMOOTH",
"391 248 OFFCURVE",
"369 270 OFFCURVE",
"342 270 CURVE SMOOTH",
"315 270 OFFCURVE",
"293 249 OFFCURVE",
"293 222 CURVE SMOOTH"
);
},
{
closed = 1;
nodes = (
"457 197 OFFCURVE",
"480 176 OFFCURVE",
"506 176 CURVE SMOOTH",
"531 176 OFFCURVE",
"555 197 OFFCURVE",
"555 222 CURVE SMOOTH",
"555 249 OFFCURVE",
"532 271 OFFCURVE",
"506 271 CURVE SMOOTH",
"478 271 OFFCURVE",
"457 250 OFFCURVE",
"457 223 CURVE SMOOTH"
);
},
{
closed = 1;
nodes = (
"660 175 OFFCURVE",
"683 154 OFFCURVE",
"709 154 CURVE SMOOTH",
"735 154 OFFCURVE",
"758 175 OFFCURVE",
"758 200 CURVE SMOOTH",
"758 226 OFFCURVE",
"736 249 OFFCURVE",
"709 249 CURVE SMOOTH",
"681 249 OFFCURVE",
"660 227 OFFCURVE",
"660 201 CURVE SMOOTH"
);
},
{
closed = 1;
nodes = (
"538 54 OFFCURVE",
"562 33 OFFCURVE",
"587 33 CURVE SMOOTH",
"613 33 OFFCURVE",
"637 54 OFFCURVE",
"637 79 CURVE SMOOTH",
"637 106 OFFCURVE",
"614 128 OFFCURVE",
"587 128 CURVE SMOOTH",
"560 128 OFFCURVE",
"538 107 OFFCURVE",
"538 80 CURVE SMOOTH"
);
},
{
closed = 1;
nodes = (
"374 12 OFFCURVE",
"397 -10 OFFCURVE",
"423 -10 CURVE SMOOTH",
"449 -10 OFFCURVE",
"472 12 OFFCURVE",
"472 36 CURVE SMOOTH",
"472 63 OFFCURVE",
"450 85 OFFCURVE",
"423 85 CURVE SMOOTH",
"395 85 OFFCURVE",
"374 64 OFFCURVE",
"374 37 CURVE SMOOTH"
);
},
{
closed = 1;
nodes = (
"211 54 OFFCURVE",
"234 33 OFFCURVE",
"260 33 CURVE SMOOTH",
"285 33 OFFCURVE",
"309 54 OFFCURVE",
"309 79 CURVE SMOOTH",
"309 106 OFFCURVE",
"286 128 OFFCURVE",
"260 128 CURVE SMOOTH",
"232 128 OFFCURVE",
"211 107 OFFCURVE",
"211 80 CURVE SMOOTH"
);
},
{
closed = 1;
nodes = (
"89 175 OFFCURVE",
"112 154 OFFCURVE",
"138 154 CURVE SMOOTH",
"164 154 OFFCURVE",
"187 175 OFFCURVE",
"187 200 CURVE SMOOTH",
"187 226 OFFCURVE",
"165 249 OFFCURVE",
"138 249 CURVE SMOOTH",
"110 249 OFFCURVE",
"89 227 OFFCURVE",
"89 201 CURVE SMOOTH"
);
},
{
closed = 1;
nodes = (
"90 502 OFFCURVE",
"113 480 OFFCURVE",
"139 480 CURVE SMOOTH",
"165 480 OFFCURVE",
"188 502 OFFCURVE",
"188 526 CURVE SMOOTH",
"188 553 OFFCURVE",
"166 575 OFFCURVE",
"139 575 CURVE SMOOTH",
"111 575 OFFCURVE",
"90 554 OFFCURVE",
"90 527 CURVE SMOOTH"
);
},
{
closed = 1;
nodes = (
"291 481 OFFCURVE",
"315 460 OFFCURVE",
"340 460 CURVE SMOOTH",
"366 460 OFFCURVE",
"389 481 OFFCURVE",
"389 506 CURVE SMOOTH",
"389 533 OFFCURVE",
"367 555 OFFCURVE",
"340 555 CURVE SMOOTH",
"313 555 OFFCURVE",
"291 534 OFFCURVE",
"291 507 CURVE SMOOTH"
);
},
{
closed = 1;
nodes = (
"457 481 OFFCURVE",
"480 460 OFFCURVE",
"506 460 CURVE SMOOTH",
"531 460 OFFCURVE",
"555 481 OFFCURVE",
"555 506 CURVE SMOOTH",
"555 533 OFFCURVE",
"532 555 OFFCURVE",
"506 555 CURVE SMOOTH",
"478 555 OFFCURVE",
"457 534 OFFCURVE",
"457 507 CURVE SMOOTH"
);
},
{
closed = 1;
nodes = (
"660 501 OFFCURVE",
"683 479 OFFCURVE",
"709 479 CURVE SMOOTH",
"735 479 OFFCURVE",
"758 501 OFFCURVE",
"758 525 CURVE SMOOTH",
"758 552 OFFCURVE",
"736 574 OFFCURVE",
"709 574 CURVE SMOOTH",
"681 574 OFFCURVE",
"660 553 OFFCURVE",
"660 526 CURVE SMOOTH"
);
},
{
closed = 1;
nodes = (
"538 622 OFFCURVE",
"562 601 OFFCURVE",
"587 601 CURVE SMOOTH",
"613 601 OFFCURVE",
"637 622 OFFCURVE",
"637 647 CURVE SMOOTH",
"637 674 OFFCURVE",
"614 696 OFFCURVE",
"587 696 CURVE SMOOTH",
"560 696 OFFCURVE",
"538 675 OFFCURVE",
"538 648 CURVE SMOOTH"
);
},
{
closed = 1;
nodes = (
"374 665 OFFCURVE",
"397 644 OFFCURVE",
"423 644 CURVE SMOOTH",
"449 644 OFFCURVE",
"472 665 OFFCURVE",
"472 690 CURVE SMOOTH",
"472 716 OFFCURVE",
"450 739 OFFCURVE",
"423 739 CURVE SMOOTH",
"395 739 OFFCURVE",
"374 717 OFFCURVE",
"374 691 CURVE SMOOTH"
);
},
{
closed = 1;
nodes = (
"209 623 OFFCURVE",
"233 602 OFFCURVE",
"259 602 CURVE SMOOTH",
"284 602 OFFCURVE",
"308 623 OFFCURVE",
"308 648 CURVE SMOOTH",
"308 675 OFFCURVE",
"285 697 OFFCURVE",
"259 697 CURVE SMOOTH",
"231 697 OFFCURVE",
"209 676 OFFCURVE",
"209 649 CURVE SMOOTH"
);
}
);
width = 846;
},
{
anchors = (
{
name = bottom;
position = "{415, 0}";
},
{
name = center;
position = "{415, 365}";
},
{
name = ogonek;
position = "{415, 10}";
},
{
name = top;
position = "{415, 727}";
},
{
name = topleft;
position = "{415, 729}";
},
{
name = topright;
position = "{415, 729}";
}
);
background = {
paths = (
{
closed = 1;
nodes = (
"363 336 OFFCURVE",
"388 313 OFFCURVE",
"416 314 CURVE SMOOTH",
"443 313 OFFCURVE",
"469 336 OFFCURVE",
"469 363 CURVE SMOOTH",
"469 392 OFFCURVE",
"445 416 OFFCURVE",
"416 416 CURVE SMOOTH",
"386 416 OFFCURVE",
"363 393 OFFCURVE",
"363 364 CURVE SMOOTH"
);
},
{
closed = 1;
nodes = (
"523 337 OFFCURVE",
"548 314 OFFCURVE",
"576 315 CURVE SMOOTH",
"603 314 OFFCURVE",
"629 337 OFFCURVE",
"629 364 CURVE SMOOTH",
"629 393 OFFCURVE",
"605 417 OFFCURVE",
"576 417 CURVE SMOOTH",
"546 417 OFFCURVE",
"523 394 OFFCURVE",
"523 365 CURVE SMOOTH"
);
},
{
closed = 1;
nodes = (
"684 337 OFFCURVE",
"709 314 OFFCURVE",
"737 315 CURVE SMOOTH",
"764 314 OFFCURVE",
"790 337 OFFCURVE",
"790 364 CURVE SMOOTH",
"790 393 OFFCURVE",
"766 417 OFFCURVE",
"737 417 CURVE SMOOTH",
"707 417 OFFCURVE",
"684 394 OFFCURVE",
"684 365 CURVE SMOOTH"
);
},
{
closed = 1;
nodes = (
"201 337 OFFCURVE",
"226 314 OFFCURVE",
"254 315 CURVE SMOOTH",
"281 314 OFFCURVE",
"307 337 OFFCURVE",
"307 364 CURVE SMOOTH",
"307 393 OFFCURVE",
"283 417 OFFCURVE",
"254 417 CURVE SMOOTH",
"224 417 OFFCURVE",
"201 394 OFFCURVE",
"201 365 CURVE SMOOTH"
);
},
{
closed = 1;
nodes = (
"40 337 OFFCURVE",
"65 314 OFFCURVE",
"93 315 CURVE SMOOTH",
"120 314 OFFCURVE",
"146 337 OFFCURVE",
"146 364 CURVE SMOOTH",
"146 393 OFFCURVE",
"122 417 OFFCURVE",
"93 417 CURVE SMOOTH",
"63 417 OFFCURVE",
"40 394 OFFCURVE",
"40 365 CURVE SMOOTH"
);
},
{
closed = 1;
nodes = (
"283 197 OFFCURVE",
"308 174 OFFCURVE",
"336 175 CURVE SMOOTH",
"363 174 OFFCURVE",
"389 197 OFFCURVE",
"389 224 CURVE SMOOTH",
"389 253 OFFCURVE",
"365 277 OFFCURVE",
"336 277 CURVE SMOOTH",
"306 277 OFFCURVE",
"283 254 OFFCURVE",
"283 225 CURVE SMOOTH"
);
},
{
closed = 1;
nodes = (
"443 198 OFFCURVE",
"468 175 OFFCURVE",
"496 176 CURVE SMOOTH",
"523 175 OFFCURVE",
"549 198 OFFCURVE",
"549 225 CURVE SMOOTH",
"549 254 OFFCURVE",
"525 278 OFFCURVE",
"496 278 CURVE SMOOTH",
"466 278 OFFCURVE",
"443 255 OFFCURVE",
"443 226 CURVE SMOOTH"
);
},
{
closed = 1;
nodes = (
"642 176 OFFCURVE",
"667 153 OFFCURVE",
"695 154 CURVE SMOOTH",
"722 153 OFFCURVE",
"748 176 OFFCURVE",
"748 203 CURVE SMOOTH",
"748 232 OFFCURVE",
"724 256 OFFCURVE",
"695 256 CURVE SMOOTH",
"665 256 OFFCURVE",
"642 233 OFFCURVE",
"642 204 CURVE SMOOTH"
);
},
{
closed = 1;
nodes = (
"523 58 OFFCURVE",
"548 35 OFFCURVE",
"576 36 CURVE SMOOTH",
"603 35 OFFCURVE",
"629 58 OFFCURVE",
"629 85 CURVE SMOOTH",
"629 114 OFFCURVE",
"605 138 OFFCURVE",
"576 138 CURVE SMOOTH",
"546 138 OFFCURVE",
"523 115 OFFCURVE",
"523 86 CURVE SMOOTH"
);
},
{
closed = 1;
nodes = (
"362 16 OFFCURVE",
"387 -7 OFFCURVE",
"415 -7 CURVE SMOOTH",
"442 -7 OFFCURVE",
"468 16 OFFCURVE",
"468 43 CURVE SMOOTH",
"468 72 OFFCURVE",
"444 96 OFFCURVE",
"415 96 CURVE SMOOTH",
"385 96 OFFCURVE",
"362 73 OFFCURVE",
"362 44 CURVE SMOOTH"
);
},
{
closed = 1;
nodes = (
"202 58 OFFCURVE",
"227 35 OFFCURVE",
"255 36 CURVE SMOOTH",
"282 35 OFFCURVE",
"308 58 OFFCURVE",
"308 85 CURVE SMOOTH",
"308 114 OFFCURVE",
"284 138 OFFCURVE",
"255 138 CURVE SMOOTH",
"225 138 OFFCURVE",
"202 115 OFFCURVE",
"202 86 CURVE SMOOTH"
);
},
{
closed = 1;
nodes = (
"83 176 OFFCURVE",
"108 153 OFFCURVE",
"136 154 CURVE SMOOTH",
"163 153 OFFCURVE",
"189 176 OFFCURVE",
"189 203 CURVE SMOOTH",
"189 232 OFFCURVE",
"165 256 OFFCURVE",
"136 256 CURVE SMOOTH",
"106 256 OFFCURVE",
"83 233 OFFCURVE",
"83 204 CURVE SMOOTH"
);
},
{
closed = 1;
nodes = (
"84 496 OFFCURVE",
"109 473 OFFCURVE",
"137 474 CURVE SMOOTH",
"164 473 OFFCURVE",
"190 496 OFFCURVE",
"190 523 CURVE SMOOTH",
"190 552 OFFCURVE",
"166 576 OFFCURVE",
"137 576 CURVE SMOOTH",
"107 576 OFFCURVE",
"84 553 OFFCURVE",
"84 524 CURVE SMOOTH"
);
},
{
closed = 1;
nodes = (
"281 476 OFFCURVE",
"306 453 OFFCURVE",
"334 454 CURVE SMOOTH",
"361 453 OFFCURVE",
"387 476 OFFCURVE",
"387 503 CURVE SMOOTH",
"387 532 OFFCURVE",
"363 556 OFFCURVE",
"334 556 CURVE SMOOTH",
"304 556 OFFCURVE",
"281 533 OFFCURVE",
"281 504 CURVE SMOOTH"
);
},
{
closed = 1;
nodes = (
"443 476 OFFCURVE",
"468 453 OFFCURVE",
"496 454 CURVE SMOOTH",
"523 453 OFFCURVE",
"549 476 OFFCURVE",
"549 503 CURVE SMOOTH",
"549 532 OFFCURVE",
"525 556 OFFCURVE",
"496 556 CURVE SMOOTH",
"466 556 OFFCURVE",
"443 533 OFFCURVE",
"443 504 CURVE SMOOTH"
);
},
{
closed = 1;
nodes = (
"642 495 OFFCURVE",
"667 472 OFFCURVE",
"695 473 CURVE SMOOTH",
"722 472 OFFCURVE",
"748 495 OFFCURVE",
"748 522 CURVE SMOOTH",
"748 551 OFFCURVE",
"724 575 OFFCURVE",
"695 575 CURVE SMOOTH",
"665 575 OFFCURVE",
"642 552 OFFCURVE",
"642 523 CURVE SMOOTH"
);
},
{
closed = 1;
nodes = (
"523 614 OFFCURVE",
"548 591 OFFCURVE",
"576 592 CURVE SMOOTH",
"603 591 OFFCURVE",
"629 614 OFFCURVE",
"629 641 CURVE SMOOTH",
"629 670 OFFCURVE",
"605 694 OFFCURVE",
"576 694 CURVE SMOOTH",
"546 694 OFFCURVE",
"523 671 OFFCURVE",
"523 642 CURVE SMOOTH"
);
},
{
closed = 1;
nodes = (
"362 656 OFFCURVE",
"387 633 OFFCURVE",
"415 634 CURVE SMOOTH",
"442 633 OFFCURVE",
"468 656 OFFCURVE",
"468 683 CURVE SMOOTH",
"468 712 OFFCURVE",
"444 736 OFFCURVE",
"415 736 CURVE SMOOTH",
"385 736 OFFCURVE",
"362 713 OFFCURVE",
"362 684 CURVE SMOOTH"
);
},
{
closed = 1;
nodes = (
"201 615 OFFCURVE",
"226 592 OFFCURVE",
"254 593 CURVE SMOOTH",
"281 592 OFFCURVE",
"307 615 OFFCURVE",
"307 642 CURVE SMOOTH",
"307 671 OFFCURVE",
"283 695 OFFCURVE",
"254 695 CURVE SMOOTH",
"224 695 OFFCURVE",
"201 672 OFFCURVE",
"201 643 CURVE SMOOTH"
);
}
);
};
layerId = "E2C2D751-4CF7-4DAD-9523-B06BE55028F5";
paths = (
{
closed = 1;
nodes = (
"357 333 OFFCURVE",
"384 307 OFFCURVE",
"416 308 CURVE SMOOTH",
"447 307 OFFCURVE",
"475 333 OFFCURVE",
"475 363 CURVE SMOOTH",
"475 395 OFFCURVE",
"448 422 OFFCURVE",
"416 422 CURVE SMOOTH",
"383 422 OFFCURVE",
"357 397 OFFCURVE",
"357 364 CURVE SMOOTH"
);
},
{
closed = 1;
nodes = (
"517 334 OFFCURVE",
"544 308 OFFCURVE",
"576 309 CURVE SMOOTH",
"607 308 OFFCURVE",
"635 334 OFFCURVE",
"635 364 CURVE SMOOTH",
"635 396 OFFCURVE",
"608 423 OFFCURVE",
"576 423 CURVE SMOOTH",
"543 423 OFFCURVE",
"517 398 OFFCURVE",
"517 365 CURVE SMOOTH"
);
},
{
closed = 1;
nodes = (
"678 334 OFFCURVE",
"705 308 OFFCURVE",
"737 309 CURVE SMOOTH",
"768 308 OFFCURVE",
"796 334 OFFCURVE",
"796 364 CURVE SMOOTH",
"796 396 OFFCURVE",
"769 423 OFFCURVE",
"737 423 CURVE SMOOTH",
"704 423 OFFCURVE",
"678 398 OFFCURVE",
"678 365 CURVE SMOOTH"
);
},
{
closed = 1;
nodes = (
"195 334 OFFCURVE",
"222 308 OFFCURVE",
"254 309 CURVE SMOOTH",
"285 308 OFFCURVE",
"313 334 OFFCURVE",
"313 364 CURVE SMOOTH",
"313 396 OFFCURVE",
"286 423 OFFCURVE",
"254 423 CURVE SMOOTH",
"221 423 OFFCURVE",
"195 398 OFFCURVE",
"195 365 CURVE SMOOTH"
);
},
{
closed = 1;
nodes = (
"34 334 OFFCURVE",
"61 308 OFFCURVE",
"93 309 CURVE SMOOTH",
"124 308 OFFCURVE",
"152 334 OFFCURVE",
"152 364 CURVE SMOOTH",
"152 396 OFFCURVE",
"125 423 OFFCURVE",
"93 423 CURVE SMOOTH",
"60 423 OFFCURVE",
"34 398 OFFCURVE",
"34 365 CURVE SMOOTH"
);
},
{
closed = 1;
nodes = (
"277 194 OFFCURVE",
"304 168 OFFCURVE",
"336 169 CURVE SMOOTH",
"367 168 OFFCURVE",
"395 194 OFFCURVE",
"395 224 CURVE SMOOTH",
"395 256 OFFCURVE",
"368 283 OFFCURVE",
"336 283 CURVE SMOOTH",
"303 283 OFFCURVE",
"277 258 OFFCURVE",
"277 225 CURVE SMOOTH"
);
},
{
closed = 1;
nodes = (
"437 195 OFFCURVE",
"464 169 OFFCURVE",
"496 170 CURVE SMOOTH",
"527 169 OFFCURVE",
"555 195 OFFCURVE",
"555 225 CURVE SMOOTH",
"555 257 OFFCURVE",
"528 284 OFFCURVE",
"496 284 CURVE SMOOTH",
"463 284 OFFCURVE",
"437 259 OFFCURVE",
"437 226 CURVE SMOOTH"
);
},
{
closed = 1;
nodes = (
"636 173 OFFCURVE",
"663 147 OFFCURVE",
"695 148 CURVE SMOOTH",
"726 147 OFFCURVE",
"754 173 OFFCURVE",
"754 203 CURVE SMOOTH",
"754 235 OFFCURVE",
"727 262 OFFCURVE",
"695 262 CURVE SMOOTH",
"662 262 OFFCURVE",
"636 237 OFFCURVE",
"636 204 CURVE SMOOTH"
);
},
{
closed = 1;
nodes = (
"517 55 OFFCURVE",
"544 29 OFFCURVE",
"576 30 CURVE SMOOTH",
"607 29 OFFCURVE",
"635 55 OFFCURVE",
"635 85 CURVE SMOOTH",
"635 117 OFFCURVE",
"608 144 OFFCURVE",
"576 144 CURVE SMOOTH",
"543 144 OFFCURVE",
"517 119 OFFCURVE",
"517 86 CURVE SMOOTH"
);
},
{
closed = 1;
nodes = (
"356 13 OFFCURVE",
"384 -13 OFFCURVE",
"415 -13 CURVE SMOOTH",
"446 -13 OFFCURVE",
"474 13 OFFCURVE",
"474 43 CURVE SMOOTH",
"474 75 OFFCURVE",
"447 102 OFFCURVE",
"415 102 CURVE SMOOTH",
"382 102 OFFCURVE",
"356 77 OFFCURVE",
"356 44 CURVE SMOOTH"
);
},
{
closed = 1;
nodes = (
"196 55 OFFCURVE",
"223 29 OFFCURVE",
"255 30 CURVE SMOOTH",
"286 29 OFFCURVE",
"314 55 OFFCURVE",
"314 85 CURVE SMOOTH",
"314 117 OFFCURVE",
"287 144 OFFCURVE",
"255 144 CURVE SMOOTH",
"222 144 OFFCURVE",
"196 119 OFFCURVE",
"196 86 CURVE SMOOTH"
);
},
{
closed = 1;
nodes = (
"77 173 OFFCURVE",
"104 147 OFFCURVE",
"136 148 CURVE SMOOTH",
"167 147 OFFCURVE",
"195 173 OFFCURVE",
"195 203 CURVE SMOOTH",
"195 235 OFFCURVE",
"168 262 OFFCURVE",
"136 262 CURVE SMOOTH",
"103 262 OFFCURVE",
"77 237 OFFCURVE",
"77 204 CURVE SMOOTH"
);
},
{
closed = 1;
nodes = (
"78 493 OFFCURVE",
"105 467 OFFCURVE",
"137 468 CURVE SMOOTH",
"168 467 OFFCURVE",
"196 493 OFFCURVE",
"196 523 CURVE SMOOTH",
"196 555 OFFCURVE",
"169 582 OFFCURVE",
"137 582 CURVE SMOOTH",
"104 582 OFFCURVE",
"78 557 OFFCURVE",
"78 524 CURVE SMOOTH"
);
},
{
closed = 1;
nodes = (
"275 473 OFFCURVE",
"302 447 OFFCURVE",
"334 448 CURVE SMOOTH",
"365 447 OFFCURVE",
"393 473 OFFCURVE",
"393 503 CURVE SMOOTH",
"393 535 OFFCURVE",
"366 562 OFFCURVE",
"334 562 CURVE SMOOTH",
"301 562 OFFCURVE",
"275 537 OFFCURVE",
"275 504 CURVE SMOOTH"
);
},
{
closed = 1;
nodes = (
"437 473 OFFCURVE",
"464 447 OFFCURVE",
"496 448 CURVE SMOOTH",
"527 447 OFFCURVE",
"555 473 OFFCURVE",
"555 503 CURVE SMOOTH",
"555 535 OFFCURVE",
"528 562 OFFCURVE",
"496 562 CURVE SMOOTH",
"463 562 OFFCURVE",
"437 537 OFFCURVE",
"437 504 CURVE SMOOTH"
);
},
{
closed = 1;
nodes = (
"636 492 OFFCURVE",
"663 466 OFFCURVE",
"695 467 CURVE SMOOTH",
"726 466 OFFCURVE",
"754 492 OFFCURVE",
"754 522 CURVE SMOOTH",
"754 554 OFFCURVE",
"727 581 OFFCURVE",
"695 581 CURVE SMOOTH",
"662 581 OFFCURVE",
"636 556 OFFCURVE",
"636 523 CURVE SMOOTH"
);
},
{
closed = 1;
nodes = (
"517 611 OFFCURVE",
"544 585 OFFCURVE",
"576 586 CURVE SMOOTH",
"607 585 OFFCURVE",
"635 611 OFFCURVE",
"635 641 CURVE SMOOTH",
"635 673 OFFCURVE",
"608 700 OFFCURVE",
"576 700 CURVE SMOOTH",
"543 700 OFFCURVE",
"517 675 OFFCURVE",
"517 642 CURVE SMOOTH"
);
},
{
closed = 1;
nodes = (
"356 653 OFFCURVE",
"383 627 OFFCURVE",
"415 628 CURVE SMOOTH",
"446 627 OFFCURVE",
"474 653 OFFCURVE",
"474 683 CURVE SMOOTH",
"474 715 OFFCURVE",
"447 742 OFFCURVE",
"415 742 CURVE SMOOTH",
"382 742 OFFCURVE",
"356 717 OFFCURVE",
"356 684 CURVE SMOOTH"
);
},
{
closed = 1;
nodes = (
"195 612 OFFCURVE",
"222 586 OFFCURVE",
"254 587 CURVE SMOOTH",
"285 586 OFFCURVE",
"313 612 OFFCURVE",
"313 642 CURVE SMOOTH",
"313 674 OFFCURVE",
"286 701 OFFCURVE",
"254 701 CURVE SMOOTH",
"221 701 OFFCURVE",
"195 676 OFFCURVE",
"195 643 CURVE SMOOTH"
);
}
);
width = 830;
}
);
leftKerningGroup = KO_O.ss06;
leftMetricsKey = O;
rightKerningGroup = KO_O.ss06;
rightMetricsKey = O;
},
{
glyphname = a;
lastChange = "2025-02-20 10:11:55 +0000";
layers = (
{
anchors = (
{
name = bottom;
position = "{272, 0}";
},
{
name = ogonek;
position = "{505, 0}";
},
{
name = top;
position = "{287, 544}";
}
);
background = {
paths = (
{
closed = 1;
nodes = (
"316 -10 OFFCURVE",
"397 28 OFFCURVE",
"432 108 CURVE",
"426 108 LINE",
"426 83 LINE SMOOTH",
"426 30 OFFCURVE",
"450 -6 OFFCURVE",
"507 -6 CURVE SMOOTH",
"521 -6 OFFCURVE",
"537 -4 OFFCURVE",
"546 0 CURVE",
"546 50 LINE",
"542 50 LINE",
"535 48 OFFCURVE",
"530 47 OFFCURVE",
"521 47 CURVE SMOOTH",
"494 47 OFFCURVE",
"487 64 OFFCURVE",
"487 99 CURVE SMOOTH",
"487 413 LINE SMOOTH",
"487 505 OFFCURVE",
"423 567 OFFCURVE",
"287 567 CURVE SMOOTH",
"146 567 OFFCURVE",
"63 499 OFFCURVE",
"63 397 CURVE",
"125 392 LINE",
"125 463 OFFCURVE",
"176 511 OFFCURVE",
"285 511 CURVE SMOOTH",
"387 511 OFFCURVE",
"424 472 OFFCURVE",
"424 408 CURVE SMOOTH",
"424 370 OFFCURVE",
"411 346 OFFCURVE",
"350 335 CURVE SMOOTH",
"205 309 LINE SMOOTH",
"101 290 OFFCURVE",
"42 236 OFFCURVE",
"42 142 CURVE SMOOTH",
"42 51 OFFCURVE",
"112 -10 OFFCURVE",
"224 -10 CURVE SMOOTH"
);
},
{
closed = 1;
nodes = (
"150 45 OFFCURVE",
"108 87 OFFCURVE",
"108 149 CURVE SMOOTH",
"108 204 OFFCURVE",
"143 246 OFFCURVE",
"232 261 CURVE SMOOTH",
"327 277 LINE SMOOTH",
"379 286 OFFCURVE",
"410 296 OFFCURVE",
"425 307 CURVE",
"425 172 LINE",
"410 96 OFFCURVE",
"335 45 OFFCURVE",
"238 45 CURVE SMOOTH"
);
}
);
};
layerId = "F114AD5B-DC62-4E73-AD12-1938E40AC8EF";
paths = (
{
closed = 1;
nodes = (
"316 -10 OFFCURVE",
"404 30 OFFCURVE",
"436 108 CURVE",
"426 108 LINE",
"426 83 LINE SMOOTH",
"426 30 OFFCURVE",
"450 -6 OFFCURVE",
"507 -6 CURVE SMOOTH",
"521 -6 OFFCURVE",
"537 -4 OFFCURVE",
"546 0 CURVE",
"546 50 LINE",
"542 50 LINE",
"535 48 OFFCURVE",
"530 47 OFFCURVE",
"521 47 CURVE SMOOTH",
"494 47 OFFCURVE",
"487 64 OFFCURVE",
"487 99 CURVE SMOOTH",
"487 413 LINE SMOOTH",
"487 505 OFFCURVE",
"423 567 OFFCURVE",
"287 567 CURVE SMOOTH",
"146 567 OFFCURVE",
"63 499 OFFCURVE",
"63 397 CURVE",
"125 392 LINE",
"125 463 OFFCURVE",
"176 511 OFFCURVE",
"285 511 CURVE SMOOTH",
"387 511 OFFCURVE",
"424 472 OFFCURVE",
"424 408 CURVE SMOOTH",
"424 370 OFFCURVE",
"411 346 OFFCURVE",
"350 335 CURVE SMOOTH",
"205 309 LINE SMOOTH",
"101 290 OFFCURVE",
"42 236 OFFCURVE",
"42 142 CURVE SMOOTH",
"42 51 OFFCURVE",
"112 -10 OFFCURVE",
"224 -10 CURVE SMOOTH"
);
},
{
closed = 1;
nodes = (
"150 45 OFFCURVE",
"108 87 OFFCURVE",
"108 149 CURVE SMOOTH",
"108 204 OFFCURVE",
"143 246 OFFCURVE",
"232 261 CURVE SMOOTH",
"327 277 LINE SMOOTH",
"379 286 OFFCURVE",
"410 296 OFFCURVE",
"425 307 CURVE",
"425 172 LINE",
"410 96 OFFCURVE",
"335 45 OFFCURVE",
"238 45 CURVE SMOOTH"
);
}
);
width = 552;
},
{
anchors = (
{
name = bottom;
position = "{301, 0}";
},
{
name = ogonek;
position = "{554, 0}";
},
{
name = top;
position = "{298, 565}";
}
);
background = {
paths = (
{
closed = 1;
nodes = (
"330 -10 OFFCURVE",
"419 43 OFFCURVE",
"435 119 CURVE",
"427 139 LINE",
"427 77 LINE SMOOTH",
"427 19 OFFCURVE",
"466 -8 OFFCURVE",
"523 -8 CURVE SMOOTH",
"534 -8 OFFCURVE",
"560 -6 OFFCURVE",
"574 0 CURVE",
"574 73 LINE",
"568 73 LINE",
"566 72 OFFCURVE",
"562 71 OFFCURVE",
"551 71 CURVE SMOOTH",
"533 71 OFFCURVE",
"516 79 OFFCURVE",
"516 119 CURVE SMOOTH",
"516 405 LINE SMOOTH",
"516 519 OFFCURVE",
"438 575 OFFCURVE",
"298 575 CURVE SMOOTH",
"157 575 OFFCURVE",
"64 512 OFFCURVE",
"62 402 CURVE",
"159 392 LINE",
"158 463 OFFCURVE",
"215 495 OFFCURVE",
"298 495 CURVE SMOOTH",
"386 495 OFFCURVE",
"414 460 OFFCURVE",
"414 412 CURVE SMOOTH",
"414 375 OFFCURVE",
"400 355 OFFCURVE",
"341 344 CURVE SMOOTH",
"223 322 LINE SMOOTH",
"121 303 OFFCURVE",
"42 256 OFFCURVE",
"42 147 CURVE SMOOTH",
"42 54 OFFCURVE",
"109 -10 OFFCURVE",
"227 -10 CURVE SMOOTH"
);
},
{
closed = 1;
nodes = (
"193 72 OFFCURVE",
"147 98 OFFCURVE",
"147 155 CURVE SMOOTH",
"147 194 OFFCURVE",
"167 231 OFFCURVE",
"250 248 CURVE SMOOTH",
"333 265 LINE SMOOTH",
"377 274 OFFCURVE",
"403 280 OFFCURVE",
"415 289 CURVE",
"415 170 LINE",
"395 109 OFFCURVE",
"334 72 OFFCURVE",
"253 72 CURVE SMOOTH"
);
}
);
};
guideLines = (
{
angle = 190.8865;
position = "{334, 267}";
}
);
layerId = "47995495-C855-4C5A-BA32-118EA0334940";
paths = (
{
closed = 1;
nodes = (
"321 -10 OFFCURVE",
"405 34 OFFCURVE",
"435 99 CURVE",
"427 99 LINE",
"427 87 LINE SMOOTH",
"427 19 OFFCURVE",
"466 -8 OFFCURVE",
"523 -8 CURVE SMOOTH",
"534 -8 OFFCURVE",
"560 -6 OFFCURVE",
"574 0 CURVE",
"574 73 LINE",
"568 73 LINE",
"566 72 OFFCURVE",
"562 71 OFFCURVE",
"551 71 CURVE SMOOTH",
"533 71 OFFCURVE",
"516 79 OFFCURVE",
"516 119 CURVE SMOOTH",
"516 405 LINE SMOOTH",
"516 519 OFFCURVE",
"438 575 OFFCURVE",
"298 575 CURVE SMOOTH",
"157 575 OFFCURVE",
"64 512 OFFCURVE",
"62 402 CURVE",
"159 392 LINE",
"158 463 OFFCURVE",
"215 495 OFFCURVE",
"298 495 CURVE SMOOTH",
"386 495 OFFCURVE",
"414 460 OFFCURVE",
"414 412 CURVE SMOOTH",
"414 375 OFFCURVE",
"400 355 OFFCURVE",
"341 344 CURVE SMOOTH",
"223 322 LINE SMOOTH",
"121 303 OFFCURVE",
"42 256 OFFCURVE",
"42 147 CURVE SMOOTH",
"42 54 OFFCURVE",
"109 -10 OFFCURVE",
"227 -10 CURVE SMOOTH"
);
},
{
closed = 1;
nodes = (
"193 72 OFFCURVE",
"147 98 OFFCURVE",
"147 155 CURVE SMOOTH",
"147 194 OFFCURVE",
"167 231 OFFCURVE",
"250 248 CURVE SMOOTH",
"333 265 LINE SMOOTH",
"377 274 OFFCURVE",
"403 280 OFFCURVE",
"415 289 CURVE",
"415 170 LINE",
"395 109 OFFCURVE",
"334 72 OFFCURVE",
"253 72 CURVE SMOOTH"
);
}
);
width = 607;
},
{
anchors = (
{
name = bottom;
position = "{305, 0}";
},
{
name = ogonek;
position = "{514, 0}";
},
{
name = top;
position = "{305, 563}";
}
);
associatedMasterId = "47995495-C855-4C5A-BA32-118EA0334940";
background = {
paths = (
{
closed = 1;
nodes = (
"319.881 -10 OFFCURVE",
"399 29 OFFCURVE",
"427 83 CURVE",
"427 76 LINE SMOOTH",
"427 54 OFFCURVE",
"431 25 OFFCURVE",
"438 0 CURVE",
"533 0 LINE",
"533 12 LINE",
"524 17 OFFCURVE",
"516 72 OFFCURVE",
"516 120 CURVE SMOOTH",
"516 397 LINE SMOOTH",
"516 517 OFFCURVE",
"439 573 OFFCURVE",
"298 573 CURVE SMOOTH",
"140 573 OFFCURVE",
"64 502 OFFCURVE",
"62 397 CURVE",
"159 387 LINE",
"158 462 OFFCURVE",
"213 495 OFFCURVE",
"298 495 CURVE SMOOTH",
"387 495 OFFCURVE",
"414 458 OFFCURVE",
"414 407 CURVE SMOOTH",
"414 368 OFFCURVE",
"399 348 OFFCURVE",
"341 337 CURVE SMOOTH",
"216 314 LINE SMOOTH",
"128 297 OFFCURVE",
"42 259 OFFCURVE",
"42 143 CURVE SMOOTH",
"42 51 OFFCURVE",
"108.553 -10 OFFCURVE",
"226.869 -10 CURVE SMOOTH"
);
},
{
closed = 1;
nodes = (
"190 64 OFFCURVE",
"147 92 OFFCURVE",
"147 152 CURVE SMOOTH",
"147 197 OFFCURVE",
"171 233 OFFCURVE",
"251 248 CURVE SMOOTH",
"334 264 LINE SMOOTH",
"372 272 OFFCURVE",
"405 280 OFFCURVE",
"415 289 CURVE",
"415 156 LINE",
"396 99 OFFCURVE",
"324 64 OFFCURVE",
"253 64 CURVE SMOOTH"
);
}
);
};
layerId = "63943EC2-331D-4B51-9A5E-A986501536CA";
name = "[600]";
paths = (
{
closed = 1;
nodes = (
"318 -10 OFFCURVE",
"396 24 OFFCURVE",
"430 84 CURVE",
"426 84 LINE",
"427 72 LINE SMOOTH",
"429 47 OFFCURVE",
"433 18 OFFCURVE",
"438 0 CURVE",
"533 0 LINE",
"533 12 LINE",
"524 17 OFFCURVE",
"516 82 OFFCURVE",
"516 165 CURVE SMOOTH",
"516 397 LINE SMOOTH",
"516 517 OFFCURVE",
"439 573 OFFCURVE",
"298 573 CURVE SMOOTH",
"140 573 OFFCURVE",
"64 502 OFFCURVE",
"62 397 CURVE",
"159 387 LINE",
"158 462 OFFCURVE",
"213 495 OFFCURVE",
"298 495 CURVE SMOOTH",
"387 495 OFFCURVE",
"414 458 OFFCURVE",
"414 407 CURVE SMOOTH",
"414 368 OFFCURVE",
"399 348 OFFCURVE",
"341 337 CURVE SMOOTH",
"216 314 LINE SMOOTH",
"128 298 OFFCURVE",
"42 259 OFFCURVE",
"42 143 CURVE SMOOTH",
"42 51 OFFCURVE",
"109 -10 OFFCURVE",
"227 -10 CURVE SMOOTH"
);
},
{
closed = 1;
nodes = (
"190 64 OFFCURVE",
"147 92 OFFCURVE",
"147 152 CURVE SMOOTH",
"147 197 OFFCURVE",
"171 233 OFFCURVE",
"251 248 CURVE SMOOTH",
"334 264 LINE SMOOTH",
"372 271 OFFCURVE",
"405 280 OFFCURVE",
"415 289 CURVE",
"415 156 LINE",
"396 99 OFFCURVE",
"324 64 OFFCURVE",
"253 64 CURVE SMOOTH"
);
}
);
width = 589;
},
{
anchors = (
{
name = bottom;
position = "{281, 0}";
},
{
name = ogonek;
position = "{522, 0}";
},
{
name = top;
position = "{281, 557}";
}
);
associatedMasterId = "F114AD5B-DC62-4E73-AD12-1938E40AC8EF";
background = {
paths = (
{
closed = 1;
nodes = (
"537 51 LINE",
"530 49 OFFCURVE",
"526 48 OFFCURVE",
"519 48 CURVE SMOOTH",
"497 48 OFFCURVE",
"482 54 OFFCURVE",
"482 93 CURVE SMOOTH",
"482 424 LINE SMOOTH",
"482 504 OFFCURVE",
"416 567 OFFCURVE",
"275 567 CURVE SMOOTH",
"143 567 OFFCURVE",
"56 510 OFFCURVE",
"58 389 CURVE",
"120 384 LINE",
"118 471 OFFCURVE",
"169 512 OFFCURVE",
"279 512 CURVE SMOOTH",
"363 512 OFFCURVE",
"419 482 OFFCURVE",
"419 417 CURVE SMOOTH",
"419 377 OFFCURVE",
"411 350 OFFCURVE",
"358 341 CURVE SMOOTH",
"197 314 LINE SMOOTH",
"105 299 OFFCURVE",
"38 246 OFFCURVE",
"38 155 CURVE SMOOTH",
"38 54 OFFCURVE",
"111 -10 OFFCURVE",
"223 -10 CURVE SMOOTH",
"305 -10 OFFCURVE",
"381 24 OFFCURVE",
"421 97 CURVE",
"421 80 LINE SMOOTH",
"421 28 OFFCURVE",
"442 -6 OFFCURVE",
"501 -6 CURVE SMOOTH",
"517 -6 OFFCURVE",
"531 -3 OFFCURVE",
"541 0 CURVE",
"541 51 LINE"
);
},
{
closed = 1;
nodes = (
"103 219 OFFCURVE",
"147 253 OFFCURVE",
"227 265 CURVE SMOOTH",
"322 279 LINE SMOOTH",
"367 286 OFFCURVE",
"403 295 OFFCURVE",
"420 309 CURVE",
"420 211 LINE",
"413 112 OFFCURVE",
"345 46 OFFCURVE",
"233 46 CURVE SMOOTH",
"150 46 OFFCURVE",
"103 85 OFFCURVE",
"103 156 CURVE SMOOTH"
);
}
);
};
hints = (
{
horizontal = 1;
origin = "{0, 7}";
target = "{1, 13}";
type = TTStem;
options = 4;
},
{
horizontal = 1;
origin = "{0, 16}";
target = "{0, 23}";
type = TTStem;
options = 4;
},
{
horizontal = 1;
origin = "{1, 13}";
target = "{0, 36}";
type = TTStem;
options = 4;
}
);
layerId = "4290CB9E-415F-4167-A081-78A4428B9D3A";
name = "[600]";
paths = (
{
closed = 1;
nodes = (
"310 -10 OFFCURVE",
"389 28 OFFCURVE",
"427 110 CURVE",
"421 110 LINE",
"421 80 LINE SMOOTH",
"421 54 OFFCURVE",
"424 22 OFFCURVE",
"428 0 CURVE",
"491 0 LINE",
"491 5 LINE",
"483 52 OFFCURVE",
"482 96 OFFCURVE",
"482 124 CURVE SMOOTH",
"482 417 LINE SMOOTH",
"482 507 OFFCURVE",
"407 567 OFFCURVE",
"275 567 CURVE SMOOTH",
"143 567 OFFCURVE",
"56 496 OFFCURVE",
"58 389 CURVE",
"120 384 LINE",
"118 461 OFFCURVE",
"169 512 OFFCURVE",
"279 512 CURVE SMOOTH",
"363 512 OFFCURVE",
"419 478 OFFCURVE",
"419 415 CURVE SMOOTH",
"419 377 OFFCURVE",
"404 349 OFFCURVE",
"345 339 CURVE SMOOTH",
"197 314 LINE SMOOTH",
"105 298 OFFCURVE",
"38 246 OFFCURVE",
"38 155 CURVE SMOOTH",
"38 54 OFFCURVE",
"111 -10 OFFCURVE",
"223 -10 CURVE SMOOTH"
);
},
{
closed = 1;
nodes = (
"150 46 OFFCURVE",
"103 85 OFFCURVE",
"103 156 CURVE SMOOTH",
"103 219 OFFCURVE",
"147 253 OFFCURVE",
"227 265 CURVE SMOOTH",
"322 279 LINE SMOOTH",
"367 286 OFFCURVE",
"403 295 OFFCURVE",
"420 309 CURVE",
"420 211 LINE",
"413 112 OFFCURVE",
"345 46 OFFCURVE",
"233 46 CURVE SMOOTH"
);
}
);
width = 552;
},
{
anchors = (
{
name = bottom;
position = "{299, 0}";
},
{
name = ogonek;
position = "{554, 3}";
},
{
name = top;
position = "{306, 582}";
}
);
background = {
paths = (
{
closed = 1;
nodes = (
"593 142 LINE",
"589 140 OFFCURVE",
"583 139 OFFCURVE",
"577 139 CURVE SMOOTH",
"558 139 OFFCURVE",
"543 146 OFFCURVE",
"543 176 CURVE SMOOTH",
"543 399 LINE SMOOTH",
"543 515 OFFCURVE",
"469 592 OFFCURVE",
"286 592 CURVE SMOOTH",
"129 592 OFFCURVE",
"31 517 OFFCURVE",
"24 394 CURVE",
"197 373 LINE",
"197 428 OFFCURVE",
"224 455 OFFCURVE",
"281 455 CURVE SMOOTH",
"320 455 OFFCURVE",
"352 441 OFFCURVE",
"352 404 CURVE SMOOTH",
"352 378 OFFCURVE",
"334 360 OFFCURVE",
"296 354 CURVE SMOOTH",
"176 335 LINE SMOOTH",
"62 317 OFFCURVE",
"2 252 OFFCURVE",
"2 158 CURVE SMOOTH",
"2 56 OFFCURVE",
"79 -10 OFFCURVE",
"198 -10 CURVE SMOOTH",
"278 -10 OFFCURVE",
"340 20 OFFCURVE",
"377 79 CURVE",
"379 72 LINE SMOOTH",
"394 19 OFFCURVE",
"441 -7 OFFCURVE",
"509 -7 CURVE SMOOTH",
"541 -7 OFFCURVE",
"577 -2 OFFCURVE",
"599 10 CURVE",
"599 142 LINE"
);
},
{
closed = 1;
nodes = (
"194 201 OFFCURVE",
"210 222 OFFCURVE",
"244 228 CURVE SMOOTH",
"313 240 LINE SMOOTH",
"330 243 OFFCURVE",
"349 248 OFFCURVE",
"358 253 CURVE",
"358 201 LINE",
"353 151 OFFCURVE",
"317 122 OFFCURVE",
"261 122 CURVE SMOOTH",
"217 122 OFFCURVE",
"194 144 OFFCURVE",
"194 176 CURVE SMOOTH"
);
}
);
};
hints = (
{
horizontal = 1;
place = "{0, 114}";
type = TTStem;
options = 4;
},
{
horizontal = 1;
place = "{592, 135}";
type = TTStem;
options = 4;
},
{
horizontal = 1;
place = "{114, 124}";
type = TTStem;
options = 4;
}
);
layerId = "E2C2D751-4CF7-4DAD-9523-B06BE55028F5";
paths = (
{
closed = 1;
nodes = (
"305 -10 OFFCURVE",
"370 25 OFFCURVE",
"405 94 CURVE",
"394 93 LINE",
"396 80 LINE SMOOTH",
"404 27 OFFCURVE",
"448 -6 OFFCURVE",
"513 -6 CURVE SMOOTH",
"543 -6 OFFCURVE",
"579 -2 OFFCURVE",
"599 9 CURVE",
"599 142 LINE",
"595 142 LINE",
"591 140 OFFCURVE",
"588 139 OFFCURVE",
"582 139 CURVE SMOOTH",
"572 139 OFFCURVE",
"563 144 OFFCURVE",
"563 164 CURVE SMOOTH",
"563 399 LINE SMOOTH",
"563 515 OFFCURVE",
"489 592 OFFCURVE",
"306 592 CURVE SMOOTH",
"149 592 OFFCURVE",
"51 517 OFFCURVE",
"44 394 CURVE",
"217 373 LINE",
"217 428 OFFCURVE",
"244 455 OFFCURVE",
"301 455 CURVE SMOOTH",
"344 455 OFFCURVE",
"372 439 OFFCURVE",
"372 404 CURVE SMOOTH",
"372 378 OFFCURVE",
"354 360 OFFCURVE",
"316 354 CURVE SMOOTH",
"196 335 LINE SMOOTH",
"82 317 OFFCURVE",
"22 252 OFFCURVE",
"22 158 CURVE SMOOTH",
"22 56 OFFCURVE",
"99 -10 OFFCURVE",
"218 -10 CURVE SMOOTH"
);
},
{
closed = 1;
nodes = (
"237 122 OFFCURVE",
"214 144 OFFCURVE",
"214 176 CURVE SMOOTH",
"214 201 OFFCURVE",
"230 222 OFFCURVE",
"264 228 CURVE SMOOTH",
"333 240 LINE SMOOTH",
"350 243 OFFCURVE",
"369 248 OFFCURVE",
"378 253 CURVE",
"378 201 LINE",
"373 151 OFFCURVE",
"337 122 OFFCURVE",
"281 122 CURVE SMOOTH"
);
}
);
width = 611;
},
{
anchors = (
{
name = bottom;
position = "{314, 0}";
},
{
name = ogonek;
position = "{569, 3}";
},
{
name = top;
position = "{304, 582}";
}
);
associatedMasterId = "E2C2D751-4CF7-4DAD-9523-B06BE55028F5";
background = {
paths = (
{
closed = 1;
nodes = (
"289 -10 OFFCURVE",
"363 26 OFFCURVE",
"385 80 CURVE",
"379 80 LINE",
"380 69 LINE SMOOTH",
"382 49 OFFCURVE",
"386 21 OFFCURVE",
"390 0 CURVE",
"583 0 LINE",
"583 24 LINE",
"571 30 OFFCURVE",
"563 53 OFFCURVE",
"563 138 CURVE SMOOTH",
"563 400 LINE SMOOTH",
"563 529 OFFCURVE",
"461 592 OFFCURVE",
"308 592 CURVE SMOOTH",
"141 592 OFFCURVE",
"39 521 OFFCURVE",
"29 393 CURVE",
"202 372 LINE",
"202 429 OFFCURVE",
"235 458 OFFCURVE",
"299 457 CURVE SMOOTH",
"341 456 OFFCURVE",
"372 436 OFFCURVE",
"372 397 CURVE SMOOTH",
"372 370 OFFCURVE",
"354 349 OFFCURVE",
"315 342 CURVE SMOOTH",
"209 323 LINE SMOOTH",
"75 299 OFFCURVE",
"22 236 OFFCURVE",
"22 145 CURVE SMOOTH",
"22 52 OFFCURVE",
"95 -10 OFFCURVE",
"205 -10 CURVE SMOOTH"
);
},
{
closed = 1;
nodes = (
"235 114 OFFCURVE",
"214 135 OFFCURVE",
"214 169 CURVE SMOOTH",
"214 200 OFFCURVE",
"232 219 OFFCURVE",
"274 228 CURVE SMOOTH",
"333 240 LINE SMOOTH",
"350 243 OFFCURVE",
"369 249 OFFCURVE",
"378 254 CURVE",
"378 180 LINE",
"374 142 OFFCURVE",
"333 114 OFFCURVE",
"281 114 CURVE SMOOTH"
);
}
);
};
hints = (
{
horizontal = 1;
origin = "{0, 7}";
target = "{1, 13}";
type = TTStem;
options = 4;
},
{
horizontal = 1;
origin = "{0, 16}";
target = "{0, 23}";
type = TTStem;
options = 4;
},
{
horizontal = 1;
origin = "{1, 13}";
target = "{0, 36}";
type = TTStem;
options = 4;
}
);
layerId = "CAF07A5F-E200-417C-9AF1-FA0EA00C024F";
name = "[600]";
paths = (
{
closed = 1;
nodes = (
"293 -10 OFFCURVE",
"371 27 OFFCURVE",
"391 81 CURVE",
"380 80 LINE",
"380 74 LINE SMOOTH",
"380 49 OFFCURVE",
"384 21 OFFCURVE",
"389 0 CURVE",
"583 0 LINE",
"583 24 LINE",
"571 30 OFFCURVE",
"563 44 OFFCURVE",
"563 79 CURVE SMOOTH",
"563 400 LINE SMOOTH",
"563 530 OFFCURVE",
"460 592 OFFCURVE",
"308 592 CURVE SMOOTH",
"141 592 OFFCURVE",
"39 521 OFFCURVE",
"29 393 CURVE",
"202 372 LINE",
"202 429 OFFCURVE",
"235 458 OFFCURVE",
"299 457 CURVE SMOOTH",
"341 456 OFFCURVE",
"372 436 OFFCURVE",
"372 397 CURVE SMOOTH",
"372 370 OFFCURVE",
"354 349 OFFCURVE",
"315 342 CURVE SMOOTH",
"209 323 LINE SMOOTH",
"75 299 OFFCURVE",
"22 236 OFFCURVE",
"22 145 CURVE SMOOTH",
"22 52 OFFCURVE",
"95 -10 OFFCURVE",
"205 -10 CURVE SMOOTH"
);
},
{
closed = 1;
nodes = (
"235 114 OFFCURVE",
"214 135 OFFCURVE",
"214 169 CURVE SMOOTH",
"214 200 OFFCURVE",
"232 219 OFFCURVE",
"274 228 CURVE SMOOTH",
"333 240 LINE SMOOTH",
"350 243 OFFCURVE",
"369 249 OFFCURVE",
"378 254 CURVE",
"378 180 LINE",
"374 142 OFFCURVE",
"333 114 OFFCURVE",
"281 114 CURVE SMOOTH"
);
}
);
width = 600;
}
);
leftKerningGroup = KO_a;
rightKerningGroup = KO_a;
unicode = 0061;
userData = {
KernOnName = a;
};
},
{
glyphname = aringacute;
layers = (
{
anchors = (
{
name = _top;
position = "{291, 557}";
}
);
components = (
{
name = a;
}
);
layerId = "F114AD5B-DC62-4E73-AD12-1938E40AC8EF";
paths = (
{
closed = 1;
nodes = (
"387 862 LINE",
"318 862 LINE",
"259 777 LINE",
"309 777 LINE",
"387 860 LINE"
);
},
{
closed = 1;
nodes = (
"387 693 OFFCURVE",
"342 734 OFFCURVE",
"279 734 CURVE SMOOTH",
"216 734 OFFCURVE",
"171 693 OFFCURVE",
"171 636 CURVE SMOOTH",
"171 578 OFFCURVE",
"216 537 OFFCURVE",
"279 537 CURVE SMOOTH",
"342 537 OFFCURVE",
"387 578 OFFCURVE",
"387 636 CURVE SMOOTH"
);
},
{
closed = 1;
nodes = (
"339 602 OFFCURVE",
"316 578 OFFCURVE",
"280 578 CURVE SMOOTH",
"244 578 OFFCURVE",
"219 602 OFFCURVE",
"219 636 CURVE SMOOTH",
"219 669 OFFCURVE",
"244 693 OFFCURVE",
"280 693 CURVE SMOOTH",
"316 693 OFFCURVE",
"339 669 OFFCURVE",
"339 636 CURVE SMOOTH"
);
}
);
width = 552.50571;
},
{
anchors = (
{
name = _top;
position = "{299, 565}";
}
);
components = (
{
name = a;
}
);
layerId = "47995495-C855-4C5A-BA32-118EA0334940";
paths = (
{
closed = 1;
nodes = (
"420 870 LINE",
"323 870 LINE",
"264 779 LINE",
"334 779 LINE",
"420 867 LINE"
);
},
{
closed = 1;
nodes = (
"405 697 OFFCURVE",
"360 738 OFFCURVE",
"296 738 CURVE SMOOTH",
"232 738 OFFCURVE",
"187 697 OFFCURVE",
"187 639 CURVE SMOOTH",
"187 580 OFFCURVE",
"232 538 OFFCURVE",
"296 538 CURVE SMOOTH",
"360 538 OFFCURVE",
"405 579 OFFCURVE",
"405 639 CURVE SMOOTH"
);
},
{
closed = 1;
nodes = (
"348 609 OFFCURVE",
"328 588 OFFCURVE",
"296 588 CURVE SMOOTH",
"265 588 OFFCURVE",
"244 609 OFFCURVE",
"244 639 CURVE SMOOTH",
"244 667 OFFCURVE",
"265 688 OFFCURVE",
"296 688 CURVE SMOOTH",
"328 688 OFFCURVE",
"348 667 OFFCURVE",
"348 639 CURVE SMOOTH"
);
}
);
width = 607;
},
{
anchors = (
{
name = _top;
position = "{295.16, 557}";
}
);
associatedMasterId = "F114AD5B-DC62-4E73-AD12-1938E40AC8EF";
components = (
{
name = a;
transform = "{1, 0, 0, 1, 4.16, 0}";
}
);
layerId = "B867DFEC-681A-4B91-9A95-928B09A1D4D2";
name = "[600]";
paths = (
{
closed = 1;
nodes = (
"390.16 862 LINE",
"321.16 862 LINE",
"262.16 777 LINE",
"312.16 777 LINE",
"390.16 860 LINE"
);
},
{
closed = 1;
nodes = (
"390.16 693 OFFCURVE",
"345.16 734 OFFCURVE",
"282.16 734 CURVE SMOOTH",
"219.16 734 OFFCURVE",
"174.16 693 OFFCURVE",
"174.16 636 CURVE SMOOTH",
"174.16 578 OFFCURVE",
"219.16 537 OFFCURVE",
"282.16 537 CURVE SMOOTH",
"345.16 537 OFFCURVE",
"390.16 578 OFFCURVE",
"390.16 636 CURVE SMOOTH"
);
},
{
closed = 1;
nodes = (
"342.16 602 OFFCURVE",
"319.16 578 OFFCURVE",
"283.16 578 CURVE SMOOTH",
"247.16 578 OFFCURVE",
"222.16 602 OFFCURVE",
"222.16 636 CURVE SMOOTH",
"222.16 669 OFFCURVE",
"247.16 693 OFFCURVE",
"283.16 693 CURVE SMOOTH",
"319.16 693 OFFCURVE",
"342.16 669 OFFCURVE",
"342.16 636 CURVE SMOOTH"
);
}
);
width = 556.16;
},
{
anchors = (
{
name = _top;
position = "{299, 563}";
}
);
associatedMasterId = "47995495-C855-4C5A-BA32-118EA0334940";
components = (
{
alignment = -1;
name = a;
}
);
layerId = "75AB23F6-1F29-4AA5-B1DE-E00F3BA31A5B";
name = "[600]";
paths = (
{
closed = 1;
nodes = (
"418 868 LINE",
"328 868 LINE",
"269 779 LINE",
"334 779 LINE",
"418 865 LINE"
);
},
{
closed = 1;
nodes = (
"407 696 OFFCURVE",
"363 737 OFFCURVE",
"299 737 CURVE SMOOTH",
"235 737 OFFCURVE",
"190 696 OFFCURVE",
"190 638 CURVE SMOOTH",
"190 579 OFFCURVE",
"235 538 OFFCURVE",
"299 538 CURVE SMOOTH",
"363 538 OFFCURVE",
"407 579 OFFCURVE",
"407 638 CURVE SMOOTH"
);
},
{
closed = 1;
nodes = (
"353 607 OFFCURVE",
"332 585 OFFCURVE",
"299 585 CURVE SMOOTH",
"267 585 OFFCURVE",
"245 607 OFFCURVE",
"245 638 CURVE SMOOTH",
"245 668 OFFCURVE",
"267 689 OFFCURVE",
"299 689 CURVE SMOOTH",
"332 689 OFFCURVE",
"353 668 OFFCURVE",
"353 638 CURVE SMOOTH"
);
}
);
width = 589;
},
{
anchors = (
{
name = _top;
position = "{324, 582}";
}
);
components = (
{
alignment = -1;
name = a;
}
);
layerId = "E2C2D751-4CF7-4DAD-9523-B06BE55028F5";
paths = (
{
closed = 1;
nodes = (
"492 884 LINE",
"333 884 LINE",
"274 776 LINE",
"388 776 LINE",
"492 880 LINE"
);
},
{
closed = 1;
nodes = (
"435 704 OFFCURVE",
"391 745 OFFCURVE",
"324 745 CURVE SMOOTH",
"257 745 OFFCURVE",
"212 704 OFFCURVE",
"212 643 CURVE SMOOTH",
"212 581 OFFCURVE",
"257 540 OFFCURVE",
"324 540 CURVE SMOOTH",
"391 540 OFFCURVE",
"435 581 OFFCURVE",
"435 643 CURVE SMOOTH"
);
},
{
closed = 1;
nodes = (
"358 621 OFFCURVE",
"344 608 OFFCURVE",
"324 608 CURVE SMOOTH",
"304 608 OFFCURVE",
"290 621 OFFCURVE",
"290 643 CURVE SMOOTH",
"290 664 OFFCURVE",
"304 678 OFFCURVE",
"324 678 CURVE SMOOTH",
"344 678 OFFCURVE",
"358 664 OFFCURVE",
"358 643 CURVE SMOOTH"
);
}
);
width = 642;
}
);
leftKerningGroup = KO_a;
leftMetricsKey = "=a";
unicode = 01FB;
},
{
glyphname = ae;
layers = (
{
anchors = (
{
name = top;
position = "{473.16, 557}";
}
);
layerId = "F114AD5B-DC62-4E73-AD12-1938E40AC8EF";
paths = (
{
closed = 1;
nodes = (
"335 -10 OFFCURVE",
"424 52 OFFCURVE",
"449 137 CURVE",
"488 42 OFFCURVE",
"570 -10 OFFCURVE",
"678 -10 CURVE SMOOTH",
"796 -10 OFFCURVE",
"884 49 OFFCURVE",
"908 156 CURVE",
"846 169 LINE",
"829 97 OFFCURVE",
"773 50 OFFCURVE",
"679 50 CURVE SMOOTH",
"563 50 OFFCURVE",
"487 128 OFFCURVE",
"489 266 CURVE",
"910 266 LINE",
"918 447 OFFCURVE",
"831 567 OFFCURVE",
"671 567 CURVE SMOOTH",
"582 567 OFFCURVE",
"515 530 OFFCURVE",
"473 466 CURVE",
"449 530 OFFCURVE",
"378 566 OFFCURVE",
"285 566 CURVE SMOOTH",
"150 566 OFFCURVE",
"60 496 OFFCURVE",
"65 371 CURVE",
"124 365 LINE",
"117 462 OFFCURVE",
"179 514 OFFCURVE",
"285 514 CURVE SMOOTH",
"367 514 OFFCURVE",
"422 475 OFFCURVE",
"422 399 CURVE SMOOTH",
"422 354 OFFCURVE",
"391 325 OFFCURVE",
"345 320 CURVE SMOOTH",
"215 305 LINE SMOOTH",
"122 294 OFFCURVE",
"42 247 OFFCURVE",
"42 140 CURVE SMOOTH",
"42 50 OFFCURVE",
"112 -10 OFFCURVE",
"224 -10 CURVE SMOOTH"
);
},
{
closed = 1;
nodes = (
"154 46 OFFCURVE",
"107 82 OFFCURVE",
"107 147 CURVE SMOOTH",
"107 216 OFFCURVE",
"154 246 OFFCURVE",
"238 256 CURVE SMOOTH",
"359 271 LINE SMOOTH",
"390 275 OFFCURVE",
"415 283 OFFCURVE",
"422 293 CURVE",
"422 192 LINE",
"406 104 OFFCURVE",
"339 46 OFFCURVE",
"224 46 CURVE SMOOTH"
);
},
{
closed = 1;
nodes = (
"494 441 OFFCURVE",
"565 510 OFFCURVE",
"672 510 CURVE SMOOTH",
"776 510 OFFCURVE",
"845 433 OFFCURVE",
"845 318 CURVE",
"489 318 LINE"
);
}
);
width = 938;
},
{
anchors = (
{
name = top;
position = "{481, 565}";
}
);
layerId = "47995495-C855-4C5A-BA32-118EA0334940";
paths = (
{
closed = 1;
nodes = (
"334 -10 OFFCURVE",
"419 42 OFFCURVE",
"454 119 CURVE",
"498 36 OFFCURVE",
"580 -10 OFFCURVE",
"684 -10 CURVE SMOOTH",
"813 -10 OFFCURVE",
"901 54 OFFCURVE",
"928 153 CURVE",
"837 174 LINE",
"817 114 OFFCURVE",
"765 75 OFFCURVE",
"686 75 CURVE SMOOTH",
"588 75 OFFCURVE",
"522 136 OFFCURVE",
"522 257 CURVE",
"932 257 LINE",
"943 444 OFFCURVE",
"849 575 OFFCURVE",
"677 575 CURVE SMOOTH",
"593 575 OFFCURVE",
"526 543 OFFCURVE",
"481 487 CURVE",
"454 542 OFFCURVE",
"385 575 OFFCURVE",
"297 575 CURVE SMOOTH",
"156 575 OFFCURVE",
"63 508 OFFCURVE",
"65 379 CURVE",
"160 367 LINE",
"155 453 OFFCURVE",
"211 494 OFFCURVE",
"297 494 CURVE SMOOTH",
"366 494 OFFCURVE",
"414 462 OFFCURVE",
"414 398 CURVE SMOOTH",
"414 359 OFFCURVE",
"387 333 OFFCURVE",
"344 328 CURVE SMOOTH",
"215 313 LINE SMOOTH",
"115 301 OFFCURVE",
"42 246 OFFCURVE",
"42 146 CURVE SMOOTH",
"42 52 OFFCURVE",
"113 -10 OFFCURVE",
"229 -10 CURVE SMOOTH"
);
},
{
closed = 1;
nodes = (
"187 71 OFFCURVE",
"147 101 OFFCURVE",
"147 155 CURVE SMOOTH",
"147 213 OFFCURVE",
"190 236 OFFCURVE",
"255 244 CURVE SMOOTH",
"355 256 LINE SMOOTH",
"384 259 OFFCURVE",
"404 266 OFFCURVE",
"414 276 CURVE",
"414 192 LINE",
"401 120 OFFCURVE",
"344 71 OFFCURVE",
"247 71 CURVE SMOOTH"
);
},
{
closed = 1;
nodes = (
"526 437 OFFCURVE",
"589 494 OFFCURVE",
"675 494 CURVE SMOOTH",
"767 494 OFFCURVE",
"826 429 OFFCURVE",
"827 330 CURVE",
"522 330 LINE"
);
}
);
width = 969;
},
{
anchors = (
{
name = top;
position = "{480, 582}";
}
);
layerId = "E2C2D751-4CF7-4DAD-9523-B06BE55028F5";
paths = (
{
closed = 1;
nodes = (
"315 -10 OFFCURVE",
"391 25 OFFCURVE",
"437 96 CURVE",
"492 27 OFFCURVE",
"580 -10 OFFCURVE",
"681 -10 CURVE SMOOTH",
"816 -10 OFFCURVE",
"926 56 OFFCURVE",
"958 155 CURVE",
"796 196 LINE",
"780 154 OFFCURVE",
"742 126 OFFCURVE",
"686 126 CURVE SMOOTH",
"622 126 OFFCURVE",
"575 162 OFFCURVE",
"570 238 CURVE",
"959 238 LINE",
"982 458 OFFCURVE",
"867 592 OFFCURVE",
"677 592 CURVE SMOOTH",
"609 592 OFFCURVE",
"550 575 OFFCURVE",
"502 544 CURVE",
"462 573 OFFCURVE",
"392 592 OFFCURVE",
"312 592 CURVE SMOOTH",
"156 592 OFFCURVE",
"49 512 OFFCURVE",
"45 393 CURVE",
"217 373 LINE",
"217 428 OFFCURVE",
"244 455 OFFCURVE",
"301 455 CURVE SMOOTH",
"340 455 OFFCURVE",
"372 441 OFFCURVE",
"372 404 CURVE SMOOTH",
"372 378 OFFCURVE",
"354 360 OFFCURVE",
"316 354 CURVE SMOOTH",
"196 335 LINE SMOOTH",
"82 317 OFFCURVE",
"22 252 OFFCURVE",
"22 157 CURVE SMOOTH",
"22 56 OFFCURVE",
"96 -10 OFFCURVE",
"219 -10 CURVE SMOOTH"
);
},
{
closed = 1;
nodes = (
"235 119 OFFCURVE",
"214 140 OFFCURVE",
"214 174 CURVE SMOOTH",
"214 205 OFFCURVE",
"232 225 OFFCURVE",
"274 233 CURVE SMOOTH",
"333 245 LINE SMOOTH",
"350 248 OFFCURVE",
"369 254 OFFCURVE",
"378 259 CURVE",
"378 185 LINE",
"374 147 OFFCURVE",
"333 119 OFFCURVE",
"281 119 CURVE SMOOTH"
);
},
{
closed = 1;
nodes = (
"572 415 OFFCURVE",
"610 457 OFFCURVE",
"670 457 CURVE SMOOTH",
"725 457 OFFCURVE",
"766 417 OFFCURVE",
"767 353 CURVE",
"570 353 LINE"
);
}
);
width = 986;
}
);
leftKerningGroup = KO_a;
leftMetricsKey = "=a";
rightKerningGroup = KO_e;
rightMetricsKey = "=e";
unicode = 00E6;
},
{
glyphname = b;
layers = (
{
anchors = (
{
name = bottom;
position = "{310, 0}";
},
{
name = top;
position = "{310, 750}";
}
);
layerId = "F114AD5B-DC62-4E73-AD12-1938E40AC8EF";
paths = (
{
closed = 1;
nodes = (
"129 0 LINE",
"135 105 LINE",
"167 34 OFFCURVE",
"240 -10 OFFCURVE",
"332 -10 CURVE SMOOTH",
"480 -10 OFFCURVE",
"571 100 OFFCURVE",
"571 274 CURVE SMOOTH",
"571 453 OFFCURVE",
"477 567 OFFCURVE",
"330 567 CURVE SMOOTH",
"239 567 OFFCURVE",
"170 526 OFFCURVE",
"133 455 CURVE",
"133 790 LINE",
"71 790 LINE",
"71 0 LINE"
);
},
{
closed = 1;
nodes = (
"133 314 LINE SMOOTH",
"133 429 OFFCURVE",
"209 507 OFFCURVE",
"323 507 CURVE SMOOTH",
"440 507 OFFCURVE",
"506 423 OFFCURVE",
"506 273 CURVE SMOOTH",
"506 130 OFFCURVE",
"440 49 OFFCURVE",
"325 49 CURVE SMOOTH",
"214 49 OFFCURVE",
"133 124 OFFCURVE",
"133 227 CURVE SMOOTH"
);
}
);
width = 612;
},
{
anchors = (
{
name = bottom;
position = "{339, 0}";
},
{
name = top;
position = "{339, 750}";
}
);
layerId = "47995495-C855-4C5A-BA32-118EA0334940";
paths = (
{
closed = 1;
nodes = (
"178 0 LINE",
"185 96 LINE",
"217 30 OFFCURVE",
"288 -10 OFFCURVE",
"373 -10 CURVE SMOOTH",
"522 -10 OFFCURVE",
"615 102 OFFCURVE",
"615 279 CURVE SMOOTH",
"615 460 OFFCURVE",
"519 575 OFFCURVE",
"371 575 CURVE SMOOTH",
"290 575 OFFCURVE",
"224 542 OFFCURVE",
"186 474 CURVE",
"186 790 LINE",
"84 790 LINE",
"84 0 LINE"
);
},
{
closed = 1;
nodes = (
"186 310 LINE SMOOTH",
"186 418 OFFCURVE",
"250 487 OFFCURVE",
"350 487 CURVE SMOOTH",
"453 487 OFFCURVE",
"510 412 OFFCURVE",
"510 279 CURVE SMOOTH",
"510 151 OFFCURVE",
"452 78 OFFCURVE",
"351 78 CURVE SMOOTH",
"253 78 OFFCURVE",
"186 144 OFFCURVE",
"186 244 CURVE SMOOTH"
);
}
);
width = 659;
},
{
anchors = (
{
name = bottom;
position = "{339, 0}";
},
{
name = top;
position = "{339, 750}";
}
);
layerId = "E2C2D751-4CF7-4DAD-9523-B06BE55028F5";
paths = (
{
closed = 1;
nodes = (
"223 0 LINE",
"232 78 LINE",
"261 21 OFFCURVE",
"328 -10 OFFCURVE",
"401 -10 CURVE SMOOTH",
"551 -10 OFFCURVE",
"646 106 OFFCURVE",
"646 289 CURVE SMOOTH",
"646 474 OFFCURVE",
"549 592 OFFCURVE",
"396 592 CURVE SMOOTH",
"327 592 OFFCURVE",
"270 566 OFFCURVE",
"238 511 CURVE",
"238 790 LINE",
"47 790 LINE",
"47 0 LINE"
);
},
{
closed = 1;
nodes = (
"238 303 LINE SMOOTH",
"238 396 OFFCURVE",
"274 446 OFFCURVE",
"344 446 CURVE SMOOTH",
"415 446 OFFCURVE",
"452 391 OFFCURVE",
"452 291 CURVE SMOOTH",
"452 191 OFFCURVE",
"414 137 OFFCURVE",
"344 137 CURVE SMOOTH",
"274 137 OFFCURVE",
"238 185 OFFCURVE",
"238 277 CURVE SMOOTH"
);
}
);
width = 669;
}
);
leftKerningGroup = KO_i;
leftMetricsKey = "=h";
rightKerningGroup = KO_o;
rightMetricsKey = "=o";
unicode = 0062;
userData = {
KernOnName = b;
};
},
{
glyphname = c;
lastChange = "2025-01-02 18:40:04 +0000";
layers = (
{
anchors = (
{
name = bottom;
position = "{297, 0}";
},
{
name = top;
position = "{298, 557}";
}
);
layerId = "F114AD5B-DC62-4E73-AD12-1938E40AC8EF";
paths = (
{
closed = 1;
nodes = (
"419 -9 OFFCURVE",
"503 59 OFFCURVE",
"521 170 CURVE",
"457 176 LINE",
"443 97 OFFCURVE",
"384 51 OFFCURVE",
"295 51 CURVE SMOOTH",
"178 51 OFFCURVE",
"106 137 OFFCURVE",
"106 279 CURVE SMOOTH",
"106 421 OFFCURVE",
"178 507 OFFCURVE",
"295 507 CURVE SMOOTH",
"387 507 OFFCURVE",
"448 457 OFFCURVE",
"458 372 CURVE",
"523 378 LINE",
"508 495 OFFCURVE",
"422 567 OFFCURVE",
"298 567 CURVE SMOOTH",
"142 567 OFFCURVE",
"41 453 OFFCURVE",
"41 279 CURVE SMOOTH",
"41 105 OFFCURVE",
"142 -9 OFFCURVE",
"297 -9 CURVE SMOOTH"
);
}
);
width = 557;
},
{
anchors = (
{
name = bottom;
position = "{310, 0}";
},
{
name = top;
position = "{312, 565}";
}
);
layerId = "47995495-C855-4C5A-BA32-118EA0334940";
paths = (
{
closed = 1;
nodes = (
"443 -9 OFFCURVE",
"535 67 OFFCURVE",
"550 184 CURVE",
"450 196 LINE",
"440 122 OFFCURVE",
"387 80 OFFCURVE",
"309 80 CURVE SMOOTH",
"209 80 OFFCURVE",
"148 157 OFFCURVE",
"148 283 CURVE SMOOTH",
"148 410 OFFCURVE",
"210 486 OFFCURVE",
"309 486 CURVE SMOOTH",
"386 486 OFFCURVE",
"440 444 OFFCURVE",
"450 368 CURVE",
"550 380 LINE",
"535 499 OFFCURVE",
"443 575 OFFCURVE",
"312 575 CURVE SMOOTH",
"150 575 OFFCURVE",
"43 460 OFFCURVE",
"43 283 CURVE SMOOTH",
"43 107 OFFCURVE",
"148 -9 OFFCURVE",
"310 -9 CURVE SMOOTH"
);
}
);
width = 587;
},
{
anchors = (
{
name = bottom;
position = "{306, 0}";
},
{
name = top;
position = "{306, 582}";
}
);
layerId = "E2C2D751-4CF7-4DAD-9523-B06BE55028F5";
paths = (
{
closed = 1;
nodes = (
"481 -10 OFFCURVE",
"593 79 OFFCURVE",
"604 212 CURVE",
"424 237 LINE",
"421 173 OFFCURVE",
"381 138 OFFCURVE",
"323 138 CURVE SMOOTH",
"255 138 OFFCURVE",
"217 198 OFFCURVE",
"217 291 CURVE SMOOTH",
"217 389 OFFCURVE",
"259 445 OFFCURVE",
"323 445 CURVE SMOOTH",
"379 445 OFFCURVE",
"414 411 OFFCURVE",
"420 359 CURVE",
"597 384 LINE",
"585 509 OFFCURVE",
"476 592 OFFCURVE",
"325 592 CURVE SMOOTH",
"144 592 OFFCURVE",
"23 472 OFFCURVE",
"23 291 CURVE SMOOTH",
"23 111 OFFCURVE",
"141 -10 OFFCURVE",
"321 -10 CURVE SMOOTH"
);
}
);
width = 623;
}
);
leftKerningGroup = KO_e;
leftMetricsKey = o;
rightKerningGroup = KO_c;
unicode = 0063;
},
{
glyphname = d;
layers = (
{
anchors = (
{
name = bottom;
position = "{302, 0}";
},
{
name = center;
position = "{479, 666}";
},
{
name = top;
position = "{302, 750}";
},
{
name = topright;
position = "{597, 557}";
}
);
layerId = "F114AD5B-DC62-4E73-AD12-1938E40AC8EF";
paths = (
{
closed = 1;
nodes = (
"41 100 OFFCURVE",
"132 -10 OFFCURVE",
"280 -10 CURVE SMOOTH",
"372 -10 OFFCURVE",
"445 34 OFFCURVE",
"477 105 CURVE",
"483 0 LINE",
"541 0 LINE",
"541 790 LINE",
"479 790 LINE",
"479 455 LINE",
"443 525 OFFCURVE",
"372 567 OFFCURVE",
"282 567 CURVE SMOOTH",
"135 567 OFFCURVE",
"41 453 OFFCURVE",
"41 274 CURVE SMOOTH"
);
},
{
closed = 1;
nodes = (
"106 423 OFFCURVE",
"172 507 OFFCURVE",
"289 507 CURVE SMOOTH",
"403 507 OFFCURVE",
"479 429 OFFCURVE",
"479 314 CURVE SMOOTH",
"479 237 LINE SMOOTH",
"479 126 OFFCURVE",
"400 49 OFFCURVE",
"287 49 CURVE SMOOTH",
"172 49 OFFCURVE",
"106 130 OFFCURVE",
"106 273 CURVE SMOOTH"
);
}
);
width = 612;
},
{
anchors = (
{
name = bottom;
position = "{319, 0}";
},
{
name = center;
position = "{488, 658}";
},
{
name = top;
position = "{319, 750}";
},
{
name = topright;
position = "{622, 565}";
}
);
layerId = "47995495-C855-4C5A-BA32-118EA0334940";
paths = (
{
closed = 1;
nodes = (
"43 102 OFFCURVE",
"135 -10 OFFCURVE",
"284 -10 CURVE SMOOTH",
"370 -10 OFFCURVE",
"440 30 OFFCURVE",
"472 96 CURVE",
"479 0 LINE",
"574 0 LINE",
"574 790 LINE",
"472 790 LINE",
"472 474 LINE",
"436 539 OFFCURVE",
"372 575 OFFCURVE",
"287 575 CURVE SMOOTH",
"139 575 OFFCURVE",
"43 460 OFFCURVE",
"43 279 CURVE SMOOTH"
);
},
{
closed = 1;
nodes = (
"148 412 OFFCURVE",
"205 487 OFFCURVE",
"307 487 CURVE SMOOTH",
"408 487 OFFCURVE",
"472 418 OFFCURVE",
"472 310 CURVE SMOOTH",
"472 250 LINE SMOOTH",
"472 146 OFFCURVE",
"406 78 OFFCURVE",
"306 78 CURVE SMOOTH",
"205 78 OFFCURVE",
"148 150 OFFCURVE",
"148 279 CURVE SMOOTH"
);
}
);
width = 657;
},
{
anchors = (
{
name = bottom;
position = "{330, 0}";
},
{
name = center;
position = "{507, 678}";
},
{
name = top;
position = "{330, 750}";
},
{
name = topright;
position = "{652, 582}";
}
);
layerId = "E2C2D751-4CF7-4DAD-9523-B06BE55028F5";
paths = (
{
closed = 1;
nodes = (
"23 106 OFFCURVE",
"118 -10 OFFCURVE",
"268 -10 CURVE SMOOTH",
"341 -10 OFFCURVE",
"408 21 OFFCURVE",
"437 78 CURVE",
"446 0 LINE",
"622 0 LINE",
"622 790 LINE",
"431 790 LINE",
"431 511 LINE",
"399 567 OFFCURVE",
"344 592 OFFCURVE",
"273 592 CURVE SMOOTH",
"120 592 OFFCURVE",
"23 474 OFFCURVE",
"23 289 CURVE SMOOTH"
);
},
{
closed = 1;
nodes = (
"217 391 OFFCURVE",
"254 446 OFFCURVE",
"325 446 CURVE SMOOTH",
"395 446 OFFCURVE",
"431 396 OFFCURVE",
"431 303 CURVE SMOOTH",
"431 278 LINE SMOOTH",
"431 185 OFFCURVE",
"395 137 OFFCURVE",
"325 137 CURVE SMOOTH",
"255 137 OFFCURVE",
"217 191 OFFCURVE",
"217 291 CURVE SMOOTH"
);
}
);
width = 671;
}
);
leftKerningGroup = KO_d;
leftMetricsKey = "=o";
rightKerningGroup = KO_i;
unicode = 0064;
},
{
glyphname = eth;
layers = (
{
anchors = (
{
name = bottom;
position = "{297, 0}";
},
{
name = center;
position = "{297, 255}";
},
{
name = ogonek;
position = "{528, 10}";
},
{
name = top;
position = "{297, 511}";
},
{
name = topright;
position = "{565, 511}";
}
);
layerId = "F114AD5B-DC62-4E73-AD12-1938E40AC8EF";
paths = (
{
closed = 1;
nodes = (
"407 603 OFFCURVE",
"209 790 CURVE",
"129 790 LINE",
"129 785 LINE",
"250 666 OFFCURVE",
"331 589 OFFCURVE",
"399 508 CURVE",
"373 525 OFFCURVE",
"335 535 OFFCURVE",
"297 535 CURVE SMOOTH",
"140 535 OFFCURVE",
"41 431 OFFCURVE",
"41 267 CURVE SMOOTH",
"41 109 OFFCURVE",
"145 0 OFFCURVE",
"296 0 CURVE SMOOTH",
"452 0 OFFCURVE",
"551 105 OFFCURVE",
"551 272 CURVE SMOOTH",
"551 446 OFFCURVE"
);
},
{
closed = 1;
nodes = (
"106 404 OFFCURVE",
"177 482 OFFCURVE",
"297 482 CURVE SMOOTH",
"416 482 OFFCURVE",
"486 404 OFFCURVE",
"486 272 CURVE SMOOTH",
"486 138 OFFCURVE",
"416 59 OFFCURVE",
"296 59 CURVE SMOOTH",
"176 59 OFFCURVE",
"106 138 OFFCURVE",
"106 272 CURVE SMOOTH"
);
},
{
closed = 1;
nodes = (
"164 624 LINE",
"186 583 LINE",
"295 638 LINE",
"259 672 LINE"
);
},
{
closed = 1;
nodes = (
"447 714 LINE",
"425 755 LINE",
"293 689 LINE",
"328 655 LINE"
);
}
);
width = 592;
},
{
anchors = (
{
name = bottom;
position = "{312, 0}";
},
{
name = center;
position = "{312, 260}";
},
{
name = ogonek;
position = "{545, 10}";
},
{
name = top;
position = "{312, 520}";
},
{
name = topright;
position = "{582, 520}";
}
);
layerId = "47995495-C855-4C5A-BA32-118EA0334940";
paths = (
{
closed = 1;
nodes = (
"433 626 OFFCURVE",
"246 790 CURVE",
"145 790 LINE",
"145 784 LINE",
"249 680 OFFCURVE",
"342 574 OFFCURVE",
"389 512 CURVE",
"366 525 OFFCURVE",
"335 534 OFFCURVE",
"300 534 CURVE SMOOTH",
"143 534 OFFCURVE",
"43 427 OFFCURVE",
"43 263 CURVE SMOOTH",
"43 105 OFFCURVE",
"150 -3 OFFCURVE",
"308 -3 CURVE SMOOTH",
"470 -3 OFFCURVE",
"576 105 OFFCURVE",
"576 283 CURVE SMOOTH",
"576 443 OFFCURVE"
);
},
{
closed = 1;
nodes = (
"148 388 OFFCURVE",
"208 457 OFFCURVE",
"311 457 CURVE SMOOTH",
"413 457 OFFCURVE",
"472 387 OFFCURVE",
"472 272 CURVE SMOOTH",
"472 154 OFFCURVE",
"412 86 OFFCURVE",
"310 86 CURVE SMOOTH",
"208 86 OFFCURVE",
"148 154 OFFCURVE",
"148 272 CURVE SMOOTH"
);
},
{
closed = 1;
nodes = (
"171 629 LINE",
"197 575 LINE",
"309 626 LINE",
"272 672 LINE"
);
},
{
closed = 1;
nodes = (
"473 702 LINE",
"447 756 LINE",
"319 695 LINE",
"365 651 LINE"
);
}
);
width = 620;
},
{
anchors = (
{
name = bottom;
position = "{317, 0}";
},
{
name = center;
position = "{317, 269}";
},
{
name = ogonek;
position = "{555, 10}";
},
{
name = top;
position = "{317, 538}";
},
{
name = topright;
position = "{593, 538}";
}
);
layerId = "E2C2D751-4CF7-4DAD-9523-B06BE55028F5";
paths = (
{
closed = 1;
nodes = (
"484 639 OFFCURVE",
"302 790 CURVE",
"133 790 LINE",
"133 780 LINE",
"232 671 OFFCURVE",
"294 592 OFFCURVE",
"340 518 CURVE",
"323 526 OFFCURVE",
"302 530 OFFCURVE",
"278 530 CURVE SMOOTH",
"125 530 OFFCURVE",
"23 421 OFFCURVE",
"23 257 CURVE SMOOTH",
"23 98 OFFCURVE",
"136 -8 OFFCURVE",
"307 -8 CURVE SMOOTH",
"484 -8 OFFCURVE",
"605 107 OFFCURVE",
"605 286 CURVE SMOOTH",
"605 444 OFFCURVE"
);
},
{
closed = 1;
nodes = (
"216 357 OFFCURVE",
"251 405 OFFCURVE",
"316 405 CURVE SMOOTH",
"380 405 OFFCURVE",
"415 357 OFFCURVE",
"415 273 CURVE SMOOTH",
"415 186 OFFCURVE",
"379 138 OFFCURVE",
"315 138 CURVE SMOOTH",
"252 138 OFFCURVE",
"216 187 OFFCURVE",
"216 273 CURVE SMOOTH"
);
},
{
closed = 1;
nodes = (
"157 638 LINE",
"192 559 LINE",
"305 603 LINE",
"247 674 LINE"
);
},
{
closed = 1;
nodes = (
"502 679 LINE",
"467 758 LINE",
"357 713 LINE",
"427 647 LINE"
);
}
);
width = 628;
}
);
leftKerningGroup = KO_e;
leftMetricsKey = "=o";
rightKerningGroup = KO_o;
rightMetricsKey = "=o";
unicode = 00F0;
},
{
glyphname = dcaron;
layers = (
{
components = (
{
name = d;
}
);
layerId = "F114AD5B-DC62-4E73-AD12-1938E40AC8EF";
paths = (
{
closed = 1;
nodes = (
"640 558 LINE SMOOTH",
"701 558 OFFCURVE",
"735 586 OFFCURVE",
"735 640 CURVE SMOOTH",
"735 790 LINE",
"633 790 LINE",
"633 681 LINE",
"691 681 LINE",
"691 649 LINE SMOOTH",
"691 623 OFFCURVE",
"675 606 OFFCURVE",
"640 606 CURVE SMOOTH",
"626 606 LINE",
"626 558 LINE"
);
}
);
width = 800;
},
{
components = (
{
alignment = -1;
name = d;
}
);
layerId = "47995495-C855-4C5A-BA32-118EA0334940";
paths = (
{
closed = 1;
nodes = (
"692 525 LINE SMOOTH",
"757 525 OFFCURVE",
"796 558 OFFCURVE",
"796 620 CURVE SMOOTH",
"796 790 LINE",
"673 790 LINE",
"673 661 LINE",
"738 661 LINE",
"738 634 LINE SMOOTH",
"738 603 OFFCURVE",
"720 587 OFFCURVE",
"680 587 CURVE SMOOTH",
"662 587 LINE",
"662 525 LINE"
);
}
);
width = 823;
},
{
components = (
{
alignment = -1;
name = d;
}
);
layerId = "E2C2D751-4CF7-4DAD-9523-B06BE55028F5";
paths = (
{
closed = 1;
nodes = (
"726 457 LINE SMOOTH",
"802 457 OFFCURVE",
"852 501 OFFCURVE",
"852 581 CURVE SMOOTH",
"852 789 LINE",
"680 789 LINE",
"680 621 LINE",
"763 621 LINE",
"763 603 LINE SMOOTH",
"763 564 OFFCURVE",
"739 548 OFFCURVE",
"689 548 CURVE SMOOTH",
"677 548 LINE",
"677 457 LINE"
);
}
);
width = 875;
}
);
leftKerningGroup = KO_d;
leftMetricsKey = d;
rightKerningGroup = KO_dcaron;
unicode = 010F;
userData = {
KernOnName = dcaron;
};
},
{
glyphname = e;
layers = (
{
anchors = (
{
name = bottom;
position = "{295, 0}";
},
{
name = ogonek;
position = "{370, 0}";
},
{
name = top;
position = "{295, 557}";
}
);
layerId = "F114AD5B-DC62-4E73-AD12-1938E40AC8EF";
paths = (
{
closed = 1;
nodes = (
"413 -10 OFFCURVE",
"501 49 OFFCURVE",
"525 156 CURVE",
"463 169 LINE",
"446 97 OFFCURVE",
"390 50 OFFCURVE",
"296 50 CURVE SMOOTH",
"180 50 OFFCURVE",
"104 128 OFFCURVE",
"106 266 CURVE",
"527 266 LINE",
"535 447 OFFCURVE",
"448 567 OFFCURVE",
"288 567 CURVE SMOOTH",
"131 567 OFFCURVE",
"41 451 OFFCURVE",
"41 278 CURVE SMOOTH",
"41 96 OFFCURVE",
"141 -10 OFFCURVE",
"295 -10 CURVE SMOOTH"
);
},
{
closed = 1;
nodes = (
"111 441 OFFCURVE",
"182 510 OFFCURVE",
"289 510 CURVE SMOOTH",
"393 510 OFFCURVE",
"462 433 OFFCURVE",
"462 318 CURVE",
"106 318 LINE"
);
}
);
width = 555;
},
{
anchors = (
{
name = bottom;
position = "{309, 0}";
},
{
name = ogonek;
position = "{400, 3}";
},
{
name = top;
position = "{310, 565}";
}
);
layerId = "47995495-C855-4C5A-BA32-118EA0334940";
paths = (
{
closed = 1;
nodes = (
"439 -10 OFFCURVE",
"527 54 OFFCURVE",
"554 153 CURVE",
"463 174 LINE",
"443 114 OFFCURVE",
"391 75 OFFCURVE",
"312 75 CURVE SMOOTH",
"214 75 OFFCURVE",
"148 136 OFFCURVE",
"148 257 CURVE",
"558 257 LINE",
"569 444 OFFCURVE",
"475 575 OFFCURVE",
"303 575 CURVE SMOOTH",
"142 575 OFFCURVE",
"43 459 OFFCURVE",
"43 282 CURVE SMOOTH",
"43 97 OFFCURVE",
"151 -10 OFFCURVE",
"310 -10 CURVE SMOOTH"
);
},
{
closed = 1;
nodes = (
"152 437 OFFCURVE",
"215 494 OFFCURVE",
"301 494 CURVE SMOOTH",
"393 494 OFFCURVE",
"452 429 OFFCURVE",
"453 330 CURVE",
"148 330 LINE"
);
}
);
width = 595;
},
{
anchors = (
{
name = bottom;
position = "{320, 0}";
},
{
name = ogonek;
position = "{449, 9}";
},
{
name = top;
position = "{322, 582}";
}
);
layerId = "E2C2D751-4CF7-4DAD-9523-B06BE55028F5";
paths = (
{
closed = 1;
nodes = (
"463 -10 OFFCURVE",
"573 56 OFFCURVE",
"605 155 CURVE",
"443 196 LINE",
"427 154 OFFCURVE",
"389 126 OFFCURVE",
"333 126 CURVE SMOOTH",
"269 126 OFFCURVE",
"222 162 OFFCURVE",
"217 238 CURVE",
"606 238 LINE",
"629 458 OFFCURVE",
"514 592 OFFCURVE",
"324 592 CURVE SMOOTH",
"145 592 OFFCURVE",
"23 473 OFFCURVE",
"23 289 CURVE SMOOTH",
"23 98 OFFCURVE",
"155 -10 OFFCURVE",
"328 -10 CURVE SMOOTH"
);
},
{
closed = 1;
nodes = (
"219 415 OFFCURVE",
"257 457 OFFCURVE",
"317 457 CURVE SMOOTH",
"372 457 OFFCURVE",
"413 417 OFFCURVE",
"414 353 CURVE",
"217 353 LINE"
);
}
);
width = 633;
}
);
leftKerningGroup = KO_e;
rightKerningGroup = KO_e;
unicode = 0065;
userData = {
KernOnName = e;
};
},
{
glyphname = f;
lastChange = "2025-01-02 18:12:20 +0000";
layers = (
{
layerId = "F114AD5B-DC62-4E73-AD12-1938E40AC8EF";
paths = (
{
closed = 1;
nodes = (
"7 503 LINE",
"85 503 LINE",
"85 0 LINE",
"147 0 LINE",
"147 503 LINE",
"240 503 LINE",
"240 557 LINE",
"147 557 LINE",
"147 674 LINE SMOOTH",
"147 716 OFFCURVE",
"165 738 OFFCURVE",
"208 738 CURVE SMOOTH",
"217 738 OFFCURVE",
"225 737 OFFCURVE",
"234 734 CURVE",
"238 734 LINE",
"238 790 LINE",
"227 794 OFFCURVE",
"210 796 OFFCURVE",
"195 796 CURVE SMOOTH",
"137 796 OFFCURVE",
"85 766 OFFCURVE",
"85 681 CURVE SMOOTH",
"85 557 LINE",
"7 557 LINE"
);
}
);
width = 255;
},
{
layerId = "47995495-C855-4C5A-BA32-118EA0334940";
paths = (
{
closed = 1;
nodes = (
"10 485 LINE",
"92 485 LINE",
"92 0 LINE",
"193 0 LINE",
"193 485 LINE",
"310 485 LINE",
"310 565 LINE",
"193 565 LINE",
"193 631 LINE SMOOTH",
"193 689 OFFCURVE",
"219 706 OFFCURVE",
"276 706 CURVE SMOOTH",
"284 706 OFFCURVE",
"293 706 OFFCURVE",
"302 704 CURVE",
"308 704 LINE",
"308 790 LINE",
"294 793 OFFCURVE",
"272 795 OFFCURVE",
"254 795 CURVE SMOOTH",
"146 795 OFFCURVE",
"92 737 OFFCURVE",
"92 647 CURVE SMOOTH",
"92 565 LINE",
"10 565 LINE"
);
}
);
width = 320;
},
{
layerId = "E2C2D751-4CF7-4DAD-9523-B06BE55028F5";
paths = (
{
closed = 1;
nodes = (
"18 454 LINE",
"101 459 LINE",
"101 0 LINE",
"287 0 LINE",
"287 459 LINE",
"388 454 LINE",
"388 582 LINE",
"287 577 LINE",
"287 609 LINE SMOOTH",
"287 649 OFFCURVE",
"314 662 OFFCURVE",
"350 662 CURVE SMOOTH",
"362 662 OFFCURVE",
"373 661 OFFCURVE",
"379 659 CURVE",
"386 659 LINE",
"386 792 LINE",
"370 797 OFFCURVE",
"335 800 OFFCURVE",
"300 800 CURVE SMOOTH",
"175 800 OFFCURVE",
"101 742 OFFCURVE",
"101 625 CURVE SMOOTH",
"101 577 LINE",
"18 582 LINE"
);
}
);
width = 406;
}
);
leftKerningGroup = KO_f;
rightKerningGroup = KO_f;
unicode = 0066;
userData = {
KernOnName = f;
};
},
{
glyphname = g;
lastChange = "2025-02-20 09:16:21 +0000";
layers = (
{
anchors = (
{
name = bottom;
position = "{288, -176}";
},
{
name = top;
position = "{288, 557}";
}
);
background = {
paths = (
{
closed = 1;
nodes = (
"55 135 OFFCURVE",
"143 28 OFFCURVE",
"280 28 CURVE SMOOTH",
"366 28 OFFCURVE",
"436 68 OFFCURVE",
"466 134 CURVE",
"466 28 LINE SMOOTH",
"466 -68 OFFCURVE",
"398 -122 OFFCURVE",
"295 -122 CURVE SMOOTH",
"209 -122 OFFCURVE",
"157 -89 OFFCURVE",
"150 -31 CURVE",
"89 -41 LINE",
"106 -133 OFFCURVE",
"188 -177 OFFCURVE",
"298 -177 CURVE SMOOTH",
"436 -177 OFFCURVE",
"528 -93 OFFCURVE",
"528 32 CURVE SMOOTH",
"528 557 LINE",
"469 557 LINE",
"464 458 LINE",
"438 525 OFFCURVE",
"367 567 OFFCURVE",
"279 567 CURVE SMOOTH",
"141 567 OFFCURVE",
"55 465 OFFCURVE",
"55 302 CURVE SMOOTH"
);
},
{
closed = 1;
nodes = (
"120 433 OFFCURVE",
"181 508 OFFCURVE",
"288 508 CURVE SMOOTH",
"393 508 OFFCURVE",
"466 436 OFFCURVE",
"466 334 CURVE SMOOTH",
"466 267 LINE SMOOTH",
"466 160 OFFCURVE",
"395 88 OFFCURVE",
"290 88 CURVE SMOOTH",
"182 88 OFFCURVE",
"120 166 OFFCURVE",
"120 303 CURVE SMOOTH"
);
}
);
};
layerId = "F114AD5B-DC62-4E73-AD12-1938E40AC8EF";
paths = (
{
closed = 1;
nodes = (
"439 -181 OFFCURVE",
"515 -101 OFFCURVE",
"515 19 CURVE SMOOTH",
"515 557 LINE",
"457 557 LINE",
"451 452 LINE",
"420 523 OFFCURVE",
"351 567 OFFCURVE",
"265 567 CURVE SMOOTH",
"125 567 OFFCURVE",
"41 455 OFFCURVE",
"41 304 CURVE SMOOTH",
"41 150 OFFCURVE",
"128 36 OFFCURVE",
"269 36 CURVE SMOOTH",
"352 36 OFFCURVE",
"418 77 OFFCURVE",
"453 148 CURVE",
"453 19 LINE SMOOTH",
"453 -85 OFFCURVE",
"384 -125 OFFCURVE",
"280 -125 CURVE SMOOTH",
"182 -125 OFFCURVE",
"127 -85 OFFCURVE",
"114 -26 CURVE",
"53 -36 LINE",
"70 -123 OFFCURVE",
"145 -181 OFFCURVE",
"276 -181 CURVE SMOOTH"
);
},
{
closed = 1;
nodes = (
"170 96 OFFCURVE",
"106 174 OFFCURVE",
"106 303 CURVE SMOOTH",
"106 427 OFFCURVE",
"166 508 OFFCURVE",
"272 508 CURVE SMOOTH",
"377 508 OFFCURVE",
"453 431 OFFCURVE",
"453 328 CURVE SMOOTH",
"453 281 LINE SMOOTH",
"453 176 OFFCURVE",
"382 96 OFFCURVE",
"275 96 CURVE SMOOTH"
);
}
);
width = 586;
},
{
anchors = (
{
name = bottom;
position = "{299, -118}";
},
{
name = top;
position = "{299, 565}";
}
);
background = {
paths = (
{
closed = 1;
nodes = (
"459 -177 OFFCURVE",
"542 -93 OFFCURVE",
"542 33 CURVE SMOOTH",
"542 565 LINE",
"447 565 LINE",
"441 472 LINE",
"411 536 OFFCURVE",
"343 575 OFFCURVE",
"260 575 CURVE SMOOTH",
"120 575 OFFCURVE",
"33 466 OFFCURVE",
"33 313 CURVE SMOOTH",
"33 158 OFFCURVE",
"122 46 OFFCURVE",
"265 46 CURVE SMOOTH",
"344 46 OFFCURVE",
"406 82 OFFCURVE",
"441 144 CURVE",
"441 31 LINE SMOOTH",
"441 -62 OFFCURVE",
"380 -98 OFFCURVE",
"288 -98 CURVE SMOOTH",
"216 -98 OFFCURVE",
"162 -75 OFFCURVE",
"148 -15 CURVE",
"51 -30 LINE",
"66 -118 OFFCURVE",
"142 -177 OFFCURVE",
"283 -177 CURVE SMOOTH"
);
},
{
closed = 1;
nodes = (
"189 131 OFFCURVE",
"138 205 OFFCURVE",
"138 312 CURVE SMOOTH",
"138 420 OFFCURVE",
"190 490 OFFCURVE",
"284 490 CURVE SMOOTH",
"377 490 OFFCURVE",
"441 424 OFFCURVE",
"441 332 CURVE SMOOTH",
"441 294 LINE SMOOTH",
"441 201 OFFCURVE",
"379 131 OFFCURVE",
"287 131 CURVE SMOOTH"
);
}
);
};
layerId = "47995495-C855-4C5A-BA32-118EA0334940";
paths = (
{
closed = 1;
nodes = (
"467 -177 OFFCURVE",
"552 -93 OFFCURVE",
"552 33 CURVE SMOOTH",
"552 565 LINE",
"457 565 LINE",
"451 472 LINE",
"421 536 OFFCURVE",
"353 575 OFFCURVE",
"270 575 CURVE SMOOTH",
"130 575 OFFCURVE",
"43 466 OFFCURVE",
"43 313 CURVE SMOOTH",
"43 158 OFFCURVE",
"132 46 OFFCURVE",
"275 46 CURVE SMOOTH",
"354 46 OFFCURVE",
"416 82 OFFCURVE",
"451 144 CURVE",
"451 31 LINE SMOOTH",
"451 -62 OFFCURVE",
"388 -98 OFFCURVE",
"293 -98 CURVE SMOOTH",
"215 -98 OFFCURVE",
"162 -74 OFFCURVE",
"148 -15 CURVE",
"51 -30 LINE",
"67 -122 OFFCURVE",
"150 -177 OFFCURVE",
"288 -177 CURVE SMOOTH"
);
},
{
closed = 1;
nodes = (
"199 131 OFFCURVE",
"148 205 OFFCURVE",
"148 312 CURVE SMOOTH",
"148 420 OFFCURVE",
"200 490 OFFCURVE",
"294 490 CURVE SMOOTH",
"387 490 OFFCURVE",
"451 424 OFFCURVE",
"451 332 CURVE SMOOTH",
"451 294 LINE SMOOTH",
"451 201 OFFCURVE",
"389 131 OFFCURVE",
"297 131 CURVE SMOOTH"
);
}
);
width = 629;
},
{
anchors = (
{
name = bottom;
position = "{75, 41}";
},
{
name = top;
position = "{313, 582}";
}
);
background = {
paths = (
{
closed = 1;
nodes = (
"498 -177 OFFCURVE",
"599 -92 OFFCURVE",
"599 47 CURVE SMOOTH",
"599 582 LINE",
"423 582 LINE",
"415 509 LINE",
"387 562 OFFCURVE",
"323 591 OFFCURVE",
"254 591 CURVE SMOOTH",
"114 591 OFFCURVE",
"23 485 OFFCURVE",
"23 324 CURVE SMOOTH",
"23 160 OFFCURVE",
"116 53 OFFCURVE",
"259 53 CURVE SMOOTH",
"324 53 OFFCURVE",
"379 77 OFFCURVE",
"409 127 CURVE",
"409 41 LINE SMOOTH",
"409 -8 OFFCURVE",
"375 -41 OFFCURVE",
"307 -41 CURVE SMOOTH",
"260 -41 OFFCURVE",
"228 -23 OFFCURVE",
"221 7 CURVE",
"36 -18 LINE",
"58 -110 OFFCURVE",
"143 -177 OFFCURVE",
"298 -177 CURVE SMOOTH"
);
},
{
closed = 1;
nodes = (
"250 189 OFFCURVE",
"215 238 OFFCURVE",
"215 323 CURVE SMOOTH",
"215 407 OFFCURVE",
"250 454 OFFCURVE",
"313 454 CURVE SMOOTH",
"375 454 OFFCURVE",
"409 411 OFFCURVE",
"409 333 CURVE SMOOTH",
"409 311 LINE SMOOTH",
"409 234 OFFCURVE",
"374 189 OFFCURVE",
"313 189 CURVE SMOOTH"
);
}
);
};
layerId = "E2C2D751-4CF7-4DAD-9523-B06BE55028F5";
paths = (
{
closed = 1;
nodes = (
"497 -177 OFFCURVE",
"599 -92 OFFCURVE",
"599 47 CURVE SMOOTH",
"599 582 LINE",
"423 582 LINE",
"415 509 LINE",
"387 562 OFFCURVE",
"323 591 OFFCURVE",
"254 591 CURVE SMOOTH",
"114 591 OFFCURVE",
"23 485 OFFCURVE",
"23 324 CURVE SMOOTH",
"23 160 OFFCURVE",
"116 53 OFFCURVE",
"259 53 CURVE SMOOTH",
"324 53 OFFCURVE",
"379 77 OFFCURVE",
"409 127 CURVE",
"409 41 LINE SMOOTH",
"409 -8 OFFCURVE",
"373 -41 OFFCURVE",
"304 -41 CURVE SMOOTH",
"254 -41 OFFCURVE",
"222 -22 OFFCURVE",
"215 7 CURVE",
"30 -18 LINE",
"52 -109 OFFCURVE",
"137 -177 OFFCURVE",
"295 -177 CURVE SMOOTH"
);
},
{
closed = 1;
nodes = (
"250 189 OFFCURVE",
"215 238 OFFCURVE",
"215 323 CURVE SMOOTH",
"215 407 OFFCURVE",
"250 454 OFFCURVE",
"313 454 CURVE SMOOTH",
"375 454 OFFCURVE",
"409 411 OFFCURVE",
"409 333 CURVE SMOOTH",
"409 311 LINE SMOOTH",
"409 234 OFFCURVE",
"374 189 OFFCURVE",
"313 189 CURVE SMOOTH"
);
}
);
width = 642;
}
);
leftKerningGroup = KO_g;
leftMetricsKey = c;
rightKerningGroup = KO_g;
unicode = 0067;
userData = {
KernOnName = g;
};
},
{
glyphname = h;
layers = (
{
anchors = (
{
name = bottom;
position = "{297, 0}";
},
{
name = center;
position = "{134, 666}";
},
{
name = top;
position = "{297, 750}";
}
);
layerId = "F114AD5B-DC62-4E73-AD12-1938E40AC8EF";
paths = (
{
closed = 1;
nodes = (
"134 0 LINE",
"134 313 LINE SMOOTH",
"134 435 OFFCURVE",
"206 507 OFFCURVE",
"315 507 CURVE SMOOTH",
"400 507 OFFCURVE",
"457 463 OFFCURVE",
"457 370 CURVE SMOOTH",
"457 0 LINE",
"520 0 LINE",
"520 379 LINE SMOOTH",
"520 492 OFFCURVE",
"450 567 OFFCURVE",
"327 567 CURVE SMOOTH",
"247 567 OFFCURVE",
"180 538 OFFCURVE",
"134 461 CURVE",
"134 790 LINE",
"71 790 LINE",
"71 0 LINE"
);
}
);
width = 591;
},
{
anchors = (
{
name = bottom;
position = "{325, 0}";
},
{
name = center;
position = "{170, 658}";
},
{
name = top;
position = "{325, 750}";
}
);
layerId = "47995495-C855-4C5A-BA32-118EA0334940";
paths = (
{
closed = 1;
nodes = (
"187 0 LINE",
"187 336 LINE SMOOTH",
"187 428 OFFCURVE",
"256 483 OFFCURVE",
"339 483 CURVE SMOOTH",
"420 483 OFFCURVE",
"460 438 OFFCURVE",
"460 368 CURVE SMOOTH",
"460 0 LINE",
"562 0 LINE",
"562 378 LINE SMOOTH",
"562 511 OFFCURVE",
"481 575 OFFCURVE",
"368 575 CURVE SMOOTH",
"292 575 OFFCURVE",
"234 546 OFFCURVE",
"187 484 CURVE",
"187 790 LINE",
"84 790 LINE",
"84 0 LINE"
);
}
);
width = 640;
},
{
anchors = (
{
name = bottom;
position = "{322, 0}";
},
{
name = center;
position = "{163, 678}";
},
{
name = top;
position = "{322, 750}";
}
);
layerId = "E2C2D751-4CF7-4DAD-9523-B06BE55028F5";
paths = (
{
closed = 1;
nodes = (
"238 0 LINE",
"238 343 LINE SMOOTH",
"245 399 OFFCURVE",
"279 435 OFFCURVE",
"325 435 CURVE SMOOTH",
"371 435 OFFCURVE",
"401 411 OFFCURVE",
"401 362 CURVE SMOOTH",
"401 0 LINE",
"592 0 LINE",
"592 394 LINE SMOOTH",
"592 521 OFFCURVE",
"519 592 OFFCURVE",
"398 592 CURVE SMOOTH",
"326 592 OFFCURVE",
"278 570 OFFCURVE",
"238 519 CURVE",
"238 790 LINE",
"47 790 LINE",
"47 0 LINE"
);
}
);
width = 632;
}
);
leftKerningGroup = KO_i;
leftMetricsKey = "=n";
rightKerningGroup = KO_n;
rightMetricsKey = "=n";
unicode = 0068;
},
{
glyphname = i;
lastChange = "2025-02-20 16:20:55 +0000";
layers = (
{
anchors = (
{
name = bottom;
position = "{103, 0}";
},
{
name = ogonek;
position = "{130, 0}";
}
);
layerId = "F114AD5B-DC62-4E73-AD12-1938E40AC8EF";
paths = (
{
closed = 1;
nodes = (
"133 0 LINE",
"133 557 LINE",
"71 557 LINE",
"71 0 LINE"
);
},
{
closed = 1;
nodes = (
"133 656 LINE",
"133 790 LINE",
"71 790 LINE",
"71 656 LINE"
);
}
);
width = 204;
},
{
anchors = (
{
name = bottom;
position = "{136, 0}";
},
{
name = ogonek;
position = "{182, 0}";
}
);
layerId = "47995495-C855-4C5A-BA32-118EA0334940";
paths = (
{
closed = 1;
nodes = (
"186 0 LINE",
"186 565 LINE",
"84 565 LINE",
"84 0 LINE"
);
},
{
closed = 1;
nodes = (
"186 652 LINE",
"186 792 LINE",
"84 792 LINE",
"84 652 LINE"
);
}
);
width = 269;
},
{
anchors = (
{
name = bottom;
position = "{143, 0}";
},
{
name = ogonek;
position = "{236, 0}";
}
);
layerId = "E2C2D751-4CF7-4DAD-9523-B06BE55028F5";
paths = (
{
closed = 1;
nodes = (
"236 0 LINE",
"236 582 LINE",
"47 582 LINE",
"47 0 LINE"
);
},
{
closed = 1;
nodes = (
"236 648 LINE",
"236 790 LINE",
"47 790 LINE",
"47 648 LINE"
);
}
);
width = 285;
}
);
leftKerningGroup = KO_i;
leftMetricsKey = b;
rightKerningGroup = KO_i;
rightMetricsKey = d;
unicode = 0069;
},
{
glyphname = idotless;
layers = (
{
anchors = (
{
name = bottom;
position = "{103, 0}";
},
{
name = ogonek;
position = "{129, 0}";
},
{
name = top;
position = "{103, 557}";
}
);
layerId = "F114AD5B-DC62-4E73-AD12-1938E40AC8EF";
paths = (
{
closed = 1;
nodes = (
"134 0 LINE",
"134 557 LINE",
"71 557 LINE",
"71 0 LINE"
);
}
);
width = 205;
},
{
anchors = (
{
name = bottom;
position = "{143, 0}";
},
{
name = ogonek;
position = "{183, 0}";
},
{
name = top;
position = "{136, 565}";
}
);
layerId = "47995495-C855-4C5A-BA32-118EA0334940";
paths = (
{
closed = 1;
nodes = (
"187 0 LINE",
"187 565 LINE",
"84 565 LINE",
"84 0 LINE"
);
}
);
width = 271;
},
{
anchors = (
{
name = bottom;
position = "{164, 0}";
},
{
name = ogonek;
position = "{238, 0}";
},
{
name = top;
position = "{143, 582}";
}
);
layerId = "E2C2D751-4CF7-4DAD-9523-B06BE55028F5";
paths = (
{
closed = 1;
nodes = (
"236 0 LINE",
"236 582 LINE",
"47 582 LINE",
"47 0 LINE"
);
}
);
width = 283;
}
);
leftKerningGroup = KO_n;
leftMetricsKey = "=n";
rightKerningGroup = KO_u;
rightMetricsKey = "=|n";
unicode = 0131;
},
{
glyphname = j;
lastChange = "2025-02-20 16:21:04 +0000";
layers = (
{
layerId = "F114AD5B-DC62-4E73-AD12-1938E40AC8EF";
paths = (
{
closed = 1;
nodes = (
"96 -172 OFFCURVE",
"144 -130 OFFCURVE",
"144 -52 CURVE SMOOTH",
"144 557 LINE",
"82 557 LINE",
"82 -32 LINE SMOOTH",
"82 -89 OFFCURVE",
"57 -115 OFFCURVE",
"4 -115 CURVE SMOOTH",
"-11 -115 OFFCURVE",
"-27 -113 OFFCURVE",
"-36 -110 CURVE",
"-36 -166 LINE",
"-23 -170 OFFCURVE",
"-6 -172 OFFCURVE",
"11 -172 CURVE SMOOTH"
);
},
{
closed = 1;
nodes = (
"144 656 LINE",
"144 790 LINE",
"82 790 LINE",
"82 656 LINE"
);
}
);
width = 215;
},
{
layerId = "47995495-C855-4C5A-BA32-118EA0334940";
paths = (
{
closed = 1;
nodes = (
"130 -173 OFFCURVE",
"186 -125 OFFCURVE",
"186 -29 CURVE SMOOTH",
"186 565 LINE",
"85 565 LINE",
"85 -11 LINE SMOOTH",
"85 -65 OFFCURVE",
"63 -90 OFFCURVE",
"12 -90 CURVE SMOOTH",
"-1 -90 OFFCURVE",
"-18 -89 OFFCURVE",
"-27 -86 CURVE",
"-27 -166 LINE",
"-13 -170 OFFCURVE",
"7 -173 OFFCURVE",
"31 -173 CURVE SMOOTH"
);
},
{
closed = 1;
nodes = (
"186 652 LINE",
"186 792 LINE",
"84 792 LINE",
"84 652 LINE"
);
}
);
width = 269;
},
{
layerId = "E2C2D751-4CF7-4DAD-9523-B06BE55028F5";
paths = (
{
closed = 1;
nodes = (
"164 -177 OFFCURVE",
"238 -114 OFFCURVE",
"238 17 CURVE SMOOTH",
"238 582 LINE",
"49 582 LINE",
"49 30 LINE SMOOTH",
"49 -16 OFFCURVE",
"34 -41 OFFCURVE",
"-12 -41 CURVE SMOOTH",
"-27 -41 OFFCURVE",
"-41 -40 OFFCURVE",
"-51 -37 CURVE",
"-51 -165 LINE",
"-34 -172 OFFCURVE",
"-2 -177 OFFCURVE",
"32 -177 CURVE SMOOTH"
);
},
{
closed = 1;
nodes = (
"238 648 LINE",
"238 790 LINE",
"49 790 LINE",
"49 648 LINE"
);
}
);
width = 287;
}
);
leftKerningGroup = KO_j;
rightKerningGroup = KO_i;
rightMetricsKey = "=i";
unicode = 006A;
userData = {
KernOnName = j;
};
},
{
glyphname = jdotless;
layers = (
{
anchors = (
{
name = top;
position = "{113, 557}";
}
);
layerId = "F114AD5B-DC62-4E73-AD12-1938E40AC8EF";
paths = (
{
closed = 1;
nodes = (
"96 -172 OFFCURVE",
"144 -130 OFFCURVE",
"144 -52 CURVE SMOOTH",
"144 557 LINE",
"82 557 LINE",
"82 -32 LINE SMOOTH",
"82 -89 OFFCURVE",
"57 -115 OFFCURVE",
"4 -115 CURVE SMOOTH",
"-11 -115 OFFCURVE",
"-27 -113 OFFCURVE",
"-36 -110 CURVE",
"-36 -166 LINE",
"-23 -170 OFFCURVE",
"-6 -172 OFFCURVE",
"11 -172 CURVE SMOOTH"
);
}
);
width = 215;
},
{
anchors = (
{
name = top;
position = "{136, 565}";
}
);
layerId = "47995495-C855-4C5A-BA32-118EA0334940";
paths = (
{
closed = 1;
nodes = (
"129 -176 OFFCURVE",
"186 -131 OFFCURVE",
"186 -36 CURVE SMOOTH",
"186 565 LINE",
"85 565 LINE",
"85 -12 LINE SMOOTH",
"85 -67 OFFCURVE",
"62 -94 OFFCURVE",
"12 -94 CURVE SMOOTH",
"0 -94 OFFCURVE",
"-18 -92 OFFCURVE",
"-27 -89 CURVE",
"-27 -169 LINE",
"-13 -174 OFFCURVE",
"9 -176 OFFCURVE",
"31 -176 CURVE SMOOTH"
);
}
);
width = 269;
},
{
anchors = (
{
name = top;
position = "{143, 582}";
}
);
layerId = "E2C2D751-4CF7-4DAD-9523-B06BE55028F5";
paths = (
{
closed = 1;
nodes = (
"158 -186 OFFCURVE",
"238 -134 OFFCURVE",
"238 -4 CURVE SMOOTH",
"238 582 LINE",
"49 582 LINE",
"49 27 LINE SMOOTH",
"49 -24 OFFCURVE",
"30 -50 OFFCURVE",
"-12 -50 CURVE SMOOTH",
"-27 -50 OFFCURVE",
"-41 -49 OFFCURVE",
"-51 -46 CURVE",
"-51 -174 LINE",
"-34 -181 OFFCURVE",
"-7 -186 OFFCURVE",
"32 -186 CURVE SMOOTH"
);
}
);
width = 287;
}
);
leftMetricsKey = "=j";
rightMetricsKey = "=j";
unicode = 0237;
},
{
glyphname = k;
lastChange = "2025-02-20 10:03:40 +0000";
layers = (
{
anchors = (
{
name = bottom;
position = "{272, 0}";
},
{
name = top;
position = "{272, 750}";
}
);
background = {
paths = (
{
closed = 1;
nodes = (
"134 0 LINE",
"134 207 LINE",
"243 307 LINE",
"460 0 LINE",
"532 0 LINE",
"271 369 LINE",
"262 325 LINE",
"501 557 LINE",
"430 557 LINE",
"134 273 LINE",
"134 790 LINE",
"71 790 LINE",
"71 0 LINE"
);
}
);
};
layerId = "F114AD5B-DC62-4E73-AD12-1938E40AC8EF";
paths = (
{
closed = 1;
nodes = (
"134 0 LINE",
"134 205 LINE",
"243 310 LINE",
"460 0 LINE",
"532 0 LINE",
"287 351 LINE",
"501 557 LINE",
"426 557 LINE",
"134 271 LINE",
"134 790 LINE",
"71 790 LINE",
"71 0 LINE"
);
}
);
width = 522;
},
{
anchors = (
{
name = bottom;
position = "{309, 0}";
},
{
name = top;
position = "{309, 750}";
}
);
background = {
paths = (
{
closed = 1;
nodes = (
"187 0 LINE",
"187 192 LINE",
"279 279 LINE",
"465 0 LINE",
"584 0 LINE",
"353 346 LINE",
"563 565 LINE",
"446 565 LINE",
"187 302 LINE",
"187 790 LINE",
"84 790 LINE",
"84 0 LINE"
);
}
);
};
layerId = "47995495-C855-4C5A-BA32-118EA0334940";
paths = (
{
closed = 1;
nodes = (
"187 0 LINE",
"187 192 LINE",
"277 283 LINE",
"465 0 LINE",
"584 0 LINE",
"346 349 LINE",
"563 565 LINE",
"440 565 LINE",
"187 302 LINE",
"187 790 LINE",
"84 790 LINE",
"84 0 LINE"
);
}
);
width = 601;
},
{
anchors = (
{
name = bottom;
position = "{324, 0}";
},
{
name = top;
position = "{324, 750}";
}
);
layerId = "E2C2D751-4CF7-4DAD-9523-B06BE55028F5";
paths = (
{
closed = 1;
nodes = (
"238 0 LINE",
"238 154 LINE",
"298 229 LINE",
"440 0 LINE",
"667 0 LINE",
"436 344 LINE",
"654 582 LINE",
"431 582 LINE",
"238 355 LINE",
"238 790 LINE",
"47 790 LINE",
"47 0 LINE"
);
}
);
width = 680;
}
);
leftKerningGroup = KO_i;
leftMetricsKey = "=h";
rightKerningGroup = KO_k;
unicode = 006B;
userData = {
KernOnName = k;
};
},
{
glyphname = l;
layers = (
{
anchors = (
{
name = bottom;
position = "{102, 0}";
},
{
name = center;
position = "{102, 375}";
},
{
name = top;
position = "{102, 790}";
},
{
name = topright;
position = "{190, 750}";
}
);
guideLines = (
{
position = "{140, 841}";
},
{
position = "{150, 800}";
}
);
layerId = "F114AD5B-DC62-4E73-AD12-1938E40AC8EF";
paths = (
{
closed = 1;
nodes = (
"133 0 LINE",
"133 790 LINE",
"71 790 LINE",
"71 0 LINE"
);
}
);
width = 206;
},
{
anchors = (
{
name = bottom;
position = "{134, 0}";
},
{
name = center;
position = "{134, 375}";
},
{
name = top;
position = "{134, 790}";
},
{
name = topright;
position = "{234, 750}";
}
);
layerId = "47995495-C855-4C5A-BA32-118EA0334940";
paths = (
{
closed = 1;
nodes = (
"185 0 LINE",
"185 790 LINE",
"83 790 LINE",
"83 0 LINE"
);
}
);
width = 268;
},
{
anchors = (
{
name = bottom;
position = "{145, 0}";
},
{
name = center;
position = "{145, 375}";
},
{
name = top;
position = "{145, 790}";
},
{
name = topright;
position = "{270, 750}";
}
);
layerId = "E2C2D751-4CF7-4DAD-9523-B06BE55028F5";
paths = (
{
closed = 1;
nodes = (
"240 0 LINE",
"240 790 LINE",
"49 790 LINE",
"49 0 LINE"
);
}
);
width = 289;
}
);
leftKerningGroup = KO_l;
rightKerningGroup = KO_i;
unicode = 006C;
userData = {
KernOnName = l;
};
},
{
glyphname = lcaron;
layers = (
{
components = (
{
name = l;
}
);
layerId = "F114AD5B-DC62-4E73-AD12-1938E40AC8EF";
paths = (
{
closed = 1;
nodes = (
"229 558 LINE SMOOTH",
"290 558 OFFCURVE",
"324 586 OFFCURVE",
"324 640 CURVE SMOOTH",
"324 790 LINE",
"222 790 LINE",
"222 681 LINE",
"280 681 LINE",
"280 649 LINE SMOOTH",
"280 623 OFFCURVE",
"264 606 OFFCURVE",
"229 606 CURVE SMOOTH",
"215 606 LINE",
"215 558 LINE"
);
}
);
width = 389;
},
{
components = (
{
alignment = -1;
name = l;
transform = "{1, 0, 0, 1, 1, 0}";
}
);
layerId = "47995495-C855-4C5A-BA32-118EA0334940";
paths = (
{
closed = 1;
nodes = (
"302 525 LINE SMOOTH",
"367 525 OFFCURVE",
"406 558 OFFCURVE",
"406 621 CURVE SMOOTH",
"406 790 LINE",
"283 790 LINE",
"283 661 LINE",
"349 661 LINE",
"349 634 LINE SMOOTH",
"349 604 OFFCURVE",
"330 587 OFFCURVE",
"290 587 CURVE SMOOTH",
"272 587 LINE",
"272 525 LINE"
);
}
);
width = 433;
},
{
components = (
{
alignment = -1;
name = l;
transform = "{1, 0, 0, 1, -2, 0}";
}
);
layerId = "E2C2D751-4CF7-4DAD-9523-B06BE55028F5";
paths = (
{
closed = 1;
nodes = (
"354 458 LINE SMOOTH",
"430 458 OFFCURVE",
"480 502 OFFCURVE",
"480 582 CURVE SMOOTH",
"480 790 LINE",
"308 790 LINE",
"308 621 LINE",
"391 621 LINE",
"391 604 LINE SMOOTH",
"391 565 OFFCURVE",
"367 549 OFFCURVE",
"317 549 CURVE SMOOTH",
"289 549 LINE",
"289 458 LINE"
);
}
);
width = 510;
}
);
leftKerningGroup = KO_i;
leftMetricsKey = b;
rightKerningGroup = KO_dcaron;
unicode = 013E;
userData = {
KernOnName = lcaron;
};
},
